<?xml version="1.0" encoding="utf-8"?>
<!-- Generator: Adobe Illustrator 22.1.0, SVG Export Plug-In . SVG Version: 6.00 Build 0)  -->
<svg version="1.1" id="Layer_1" xmlns="http://www.w3.org/2000/svg" xmlns:xlink="http://www.w3.org/1999/xlink" x="0px" y="0px"
	 viewBox="0 0 720 720" style="enable-background:new 0 0 720 720;" xml:space="preserve">
<style type="text/css">
	.st0{clip-path:url(#SVGID_2_);fill:#A7C3FF;}
	.st1{clip-path:url(#SVGID_2_);}
	.st2{fill:#5E7FDD;}
	.st3{fill:#A7C3FF;}
	.st4{clip-path:url(#SVGID_4_);fill:#5E7FDD;}
	.st5{clip-path:url(#SVGID_4_);}
	.st6{fill:#061D87;}
	.st7{clip-path:url(#SVGID_6_);fill:#F7A4B8;}
	.st8{clip-path:url(#SVGID_6_);}
	.st9{fill:#F57689;}
	.st10{fill:#F7A4B8;}
	.st11{clip-path:url(#SVGID_8_);fill:#CED369;}
	.st12{clip-path:url(#SVGID_8_);}
	.st13{fill:#BCBC61;}
	.st14{fill:#CED369;}
</style>
<g>
	<defs>
		<rect id="SVGID_3_" x="-10" y="-799.1" width="719" height="719"/>
	</defs>
	<clipPath id="SVGID_2_">
		<use xlink:href="#SVGID_3_"  style="overflow:visible;"/>
	</clipPath>
	<rect x="-13.7" y="15.9" style="clip-path:url(#SVGID_2_);fill:#5E7FDD;" width="720" height="720"/>
</g>
<g>
	<defs>
		<rect id="SVGID_5_" x="-0.2" y="1" width="719" height="719"/>
	</defs>
	<clipPath id="SVGID_4_">
		<use xlink:href="#SVGID_5_"  style="overflow:visible;"/>
	</clipPath>
	<rect x="-0.7" y="0.5" style="clip-path:url(#SVGID_4_);fill:#F7A4B8;" width="720" height="720"/>
	<g class="st5">
		<path class="st9" d="M248.5-62.4c2.4-0.1,4.7-0.1,7.1,0.1c3.6,0.3,4.3,1,5.1,4.5c0.1,0.4,0.2,0.9,0.3,1.3c0.1,0.4,0.2,0.9,0.3,1.3
			c0-0.3,0-0.6,0-0.9c0-0.2,0.1-0.5,0.2-0.7c0.2-0.7,0.5-1.4,0.9-2.1c0.4-0.7,0.9-1.2,1.5-1.7c1.1-1.2,2.6-2.1,4.1-2.6
			c2.1-0.8,4.4-0.6,6.5,0.1c3.8,1.3,6.7,5.6,6.7,9.9c0,2.6-0.8,4.9-2.4,6.9c-3.5,4.4-7.4,8.3-12.4,11c-1.2,0.7-1.6,1.4-1.5,2.8
			c1,8.4,1.6,16.7,0.7,25.1c-0.1,0.5,0.4,1.4,0.9,1.7c4.8,3.5,5.6,7.8,2.1,12.7c-3.2,4.5-7.8,7.4-12.6,9.9
			c-12.8,6.7-26.4,10.6-40.9,10.9c-3.7,0.1-7.5-0.5-11.1-1.5c-6-1.7-8.5-6.6-5.7-12.2c0.2-0.4,0.1-1.3-0.2-1.7
			c-8.7-11-14.2-23.7-19.6-36.5c-1.3-3.2-2.4-6.4-3.8-9.6c-0.8-1.9-0.5-3.3,1-4.5c7.1-5.8,16.5-8.1,25-11.2c9-3.2,18.1-6.5,27.4-9
			C234.7-60.2,241.6-62,248.5-62.4z M244-14.8c-1.1,3-2.7,4.2-5.7,4.4c-1.5,0.1-2.6,0.6-2.6,2.2c0,1.8,1.5,2,2.9,2
			c4.1-0.1,8-2.7,9.3-6.8c2.6-8.3,2.2-16.5-2.2-24.2c-1.5-2.7-4-4.1-7-3.7c-2.6,0.3-5.1,1-7.6,1.8c-2.7,0.9-4.4,2.9-4.8,5.7
			c-0.2,1.4,0.1,2.9,0.4,4.4c1.6,7.5,0.1,13.6-7,17.6c-1.1,0.6-1.7,1.6-1,2.9c0.7,1.3,1.9,1.4,3.1,0.7c5.4-2.9,8.7-7.3,9.5-13.4
			c0.4-2.7,1.1-3.8,3.9-4.2c1.3-0.2,2.8,0.1,4.1,0.4c1.4,0.4,2.4,0.3,3-1.1c0.6-1.3-0.1-2.4-1.3-2.7c-1.7-0.5-3.5-1-5.3-0.9
			c-1.5,0-3,0.8-4.6,1.3c-0.2-0.9-0.4-1.6-0.5-2.2c-0.6-2.8,0-4,2.7-4.9c1.5-0.5,3-0.8,4.5-1.1c2.6-0.4,3.4,0.1,4.7,2.5
			c1.8,3.5,2.7,7.3,2.7,11.3c0,3.2-1.2,4.5-4.4,4.5c-1.2,0-2.5-0.5-3.6-1c-1.3-0.7-2.4-0.9-3.3,0.5c-0.8,1.3-0.1,2.3,1.1,3
			C237.8-14.2,240.7-13.9,244-14.8z M203.1-18.8c-0.9-4.1-0.2-6.9,2.4-8.4c2.6-1.5,6.4-1.4,8.4,0.2c2,1.6,3.1,5.4,2.1,8.1
			c-0.3,0.9-1.4,1.9-2.3,2c-0.7,0.1-1.9-0.9-2.3-1.8c-0.5-1.3-0.3-2.8-0.7-4.1c-0.3-0.8-1.1-1.9-1.9-2.1c-1.3-0.3-2.2,0.7-2.2,2
			c0.1,2,0.2,4.1,0.9,5.9c0.9,2.6,2.9,4.2,5.7,4.3c2.7,0.1,5-1.1,6.1-3.5c2-4.1,1.5-8.3-1-12.1c-2.2-3.3-5.6-4.5-9.4-4.3
			c-6.4,0.4-11,4.9-10.5,10.6c0.4,4.6,2.3,8.7,5.4,12.1c0.9,1,2,1.4,3.2,0.4c1.1-1,0.8-2,0-3.2C205.7-14.5,204.4-16.7,203.1-18.8z
			 M202.7,17.1c-0.9,1.8-0.1,3.2,1.6,3.7c2.7,0.8,5.6,1.7,8.4,1.7c16.5,0.2,31.7-4.3,45.6-13.1c2.4-1.6,4.5-3.8,6.4-6
			c1.5-1.8,1.1-3.1-0.3-4.1c-1.8,2-3.5,4.1-5.5,5.8c-8,6.6-17.2,11.1-27.3,13.1C222,20.2,212.2,21.1,202.7,17.1z M264-39.9
			c0,0.1,0,0.1,0,0.1c0.5-0.1,0.9-0.3,1.4-0.6c2-1.3,3.9-2.7,5.7-4.4c1.7-1.6,3.3-3.5,4.5-5.5c0.8-1.3,0.8-3.4,0.5-5
			c-0.5-2.5-3.3-4.2-5.7-3.7c-2.5,0.4-4.2,2.6-3.9,5.5c0.2,1.4,1,2.8,1.8,4.1c0.8,1.3,0.8,2.4-0.3,3.4c-0.7,0.6-1.8,1.1-2.7,0.7
			c-0.6-0.2-1.1-0.7-1.6-1.3c-0.5-0.7-1-1.4-1.3-2.2c0,0.5,0.1,1.1,0.2,1.6c0.2,1.5,0.5,2.9,0.7,4.4C263.5-42.6,263.9-40.4,264-39.9
			z M210.3,5.6c-0.6-1.9-2.8-3.1-4.6-2.6c-2,0.6-3.3,2.8-2.7,4.8c0.6,2,2.8,3.1,4.8,2.5C209.8,9.7,210.9,7.6,210.3,5.6z M224.9,5.3
			c2-0.6,3.2-2.8,2.6-4.8c-0.6-1.9-2.8-3.1-4.7-2.5c-2,0.6-3.2,2.8-2.6,4.8C220.9,4.8,223,5.9,224.9,5.3z M227.8,7.8
			c-1.9,0.5-3.2,2.6-2.7,4.6c0.5,2,2.7,3.3,4.7,2.8c1.9-0.5,3.1-2.6,2.7-4.6C232,8.5,229.9,7.3,227.8,7.8z M253.5-11.7
			c-2,0.6-3.2,2.9-2.5,4.8c0.6,1.9,2.8,3,4.7,2.4c2-0.6,3.2-2.8,2.5-4.8C257.5-11.2,255.4-12.3,253.5-11.7z M254.3,1.9
			c-0.6-2.1-2.7-3.2-4.7-2.6c-2,0.6-3.1,2.6-2.6,4.6c0.5,2,2.6,3.2,4.7,2.6C253.7,5.9,254.9,3.8,254.3,1.9z M219.5,10.8
			c-0.6-2-2.8-3.2-4.8-2.5c-1.9,0.6-3.1,2.7-2.5,4.6c0.6,2,2.8,3.2,4.8,2.6C218.9,14.8,220,12.7,219.5,10.8z M240.6,6.2
			c2.1-0.6,3.2-2.6,2.6-4.7c-0.6-2-2.5-3.1-4.5-2.6c-2,0.6-3.2,2.4-2.7,4.5C236.5,5.5,238.6,6.8,240.6,6.2z M256.4-59.6
			c-0.4-0.4-1.6-0.4-2.1-0.4c-5.6-0.3-11.5,1-17,2.5c-9.3,2.5-18.6,5.2-27.9,8.1c-8.6,2.7-17.5,5.1-25.5,9.2c-1.1,0.6-6,2.6-6.3,3.6
			c-0.9,2.8,10,0,11.3-0.3c19.9-3.7,39.7-9.3,58.4-17.1C248.3-54.3,257.7-57.9,256.4-59.6C256.4-59.6,256.4-59.6,256.4-59.6z"/>
		<path class="st9" d="M225.8,164.6c2.4-0.1,4.7-0.1,7.1,0.1c3.6,0.3,4.3,1,5.1,4.5c0.1,0.4,0.2,0.9,0.3,1.3
			c0.1,0.4,0.2,0.9,0.3,1.3c0-0.3,0-0.6,0-0.9c0-0.2,0.1-0.5,0.2-0.7c0.2-0.7,0.5-1.4,0.9-2.1c0.4-0.7,0.9-1.2,1.5-1.7
			c1.1-1.2,2.6-2.1,4.1-2.6c2.1-0.8,4.4-0.6,6.5,0.1c3.8,1.3,6.7,5.6,6.7,9.9c0,2.6-0.8,4.9-2.4,6.9c-3.5,4.4-7.4,8.3-12.4,11
			c-1.2,0.7-1.6,1.4-1.5,2.8c1,8.4,1.6,16.7,0.7,25.1c-0.1,0.5,0.4,1.4,0.9,1.7c4.8,3.5,5.6,7.8,2.1,12.7c-3.2,4.5-7.8,7.4-12.6,9.9
			c-12.8,6.7-26.4,10.6-40.9,10.9c-3.7,0.1-7.5-0.5-11.1-1.5c-6-1.7-8.5-6.6-5.7-12.2c0.2-0.4,0.1-1.3-0.2-1.7
			c-8.7-11-14.2-23.7-19.6-36.5c-1.3-3.2-2.4-6.4-3.8-9.6c-0.8-1.9-0.5-3.3,1-4.5c7.1-5.8,16.5-8.1,25-11.2c9-3.2,18.1-6.5,27.4-9
			C212.1,166.8,218.9,165.1,225.8,164.6z M221.3,212.2c-1.1,3-2.7,4.2-5.7,4.4c-1.5,0.1-2.6,0.6-2.6,2.2c0,1.8,1.5,2,2.9,2
			c4.1-0.1,8-2.7,9.3-6.8c2.6-8.3,2.2-16.5-2.2-24.2c-1.5-2.7-4-4.1-7-3.7c-2.6,0.3-5.1,1-7.6,1.8c-2.7,0.9-4.4,2.9-4.8,5.7
			c-0.2,1.4,0.1,2.9,0.4,4.4c1.6,7.5,0.1,13.6-7,17.6c-1.1,0.6-1.7,1.6-1,2.9c0.7,1.3,1.9,1.4,3.1,0.7c5.4-2.9,8.7-7.3,9.5-13.4
			c0.4-2.7,1.1-3.8,3.9-4.2c1.3-0.2,2.8,0.1,4.1,0.4c1.4,0.4,2.4,0.3,3-1.1c0.6-1.3-0.1-2.4-1.3-2.7c-1.7-0.5-3.5-1-5.3-0.9
			c-1.5,0-3,0.8-4.6,1.3c-0.2-0.9-0.4-1.6-0.5-2.2c-0.6-2.8,0-4,2.7-4.9c1.5-0.5,3-0.8,4.5-1.1c2.6-0.4,3.4,0.1,4.7,2.5
			c1.8,3.5,2.7,7.3,2.7,11.3c0,3.2-1.2,4.5-4.4,4.5c-1.2,0-2.5-0.5-3.6-1c-1.3-0.7-2.4-0.9-3.3,0.5c-0.8,1.3-0.1,2.3,1.1,3
			C215.1,212.8,218,213.2,221.3,212.2z M180.4,208.2c-0.9-4.1-0.2-6.9,2.4-8.4c2.6-1.5,6.4-1.4,8.4,0.2c2,1.6,3.1,5.4,2.1,8.1
			c-0.3,0.9-1.4,1.9-2.3,2c-0.7,0.1-1.9-0.9-2.3-1.8c-0.5-1.3-0.3-2.8-0.7-4.1c-0.3-0.8-1.1-1.9-1.9-2.1c-1.3-0.3-2.2,0.7-2.2,2
			c0.1,2,0.2,4.1,0.9,5.9c0.9,2.6,2.9,4.2,5.7,4.3c2.7,0.1,5-1.1,6.1-3.5c2-4.1,1.5-8.3-1-12.1c-2.2-3.3-5.6-4.5-9.4-4.3
			c-6.4,0.4-11,4.9-10.5,10.6c0.4,4.6,2.3,8.7,5.4,12.1c0.9,1,2,1.4,3.2,0.4c1.1-1,0.8-2,0-3.2C183,212.5,181.8,210.3,180.4,208.2z
			 M180,244.2c-0.9,1.8-0.1,3.2,1.6,3.7c2.7,0.8,5.6,1.7,8.4,1.7c16.5,0.2,31.7-4.3,45.6-13.1c2.4-1.6,4.5-3.8,6.4-6
			c1.5-1.8,1.1-3.1-0.3-4.1c-1.8,2-3.5,4.1-5.5,5.8c-8,6.6-17.2,11.1-27.3,13.1C199.3,247.2,189.6,248.1,180,244.2z M241.3,187.2
			c0,0.1,0,0.1,0,0.1c0.5-0.1,0.9-0.3,1.4-0.6c2-1.3,3.9-2.7,5.7-4.4c1.7-1.6,3.3-3.5,4.5-5.5c0.8-1.3,0.8-3.4,0.5-5
			c-0.5-2.5-3.3-4.2-5.7-3.7c-2.5,0.4-4.2,2.6-3.9,5.5c0.2,1.4,1,2.8,1.8,4.1c0.8,1.3,0.8,2.4-0.3,3.4c-0.7,0.6-1.8,1.1-2.7,0.7
			c-0.6-0.2-1.1-0.7-1.6-1.3c-0.5-0.7-1-1.4-1.3-2.2c0,0.5,0.1,1.1,0.2,1.6c0.2,1.5,0.5,2.9,0.7,4.4
			C240.8,184.4,241.2,186.6,241.3,187.2z M187.7,232.6c-0.6-1.9-2.8-3.1-4.6-2.6c-2,0.6-3.3,2.8-2.7,4.8c0.6,2,2.8,3.1,4.8,2.5
			C187.1,236.7,188.2,234.6,187.7,232.6z M202.2,232.4c2-0.6,3.2-2.8,2.6-4.8c-0.6-1.9-2.8-3.1-4.7-2.5c-2,0.6-3.2,2.8-2.6,4.8
			C198.2,231.8,200.3,232.9,202.2,232.4z M205.2,234.9c-1.9,0.5-3.2,2.6-2.7,4.6c0.5,2,2.7,3.3,4.7,2.8c1.9-0.5,3.1-2.6,2.7-4.6
			C209.3,235.6,207.2,234.3,205.2,234.9z M230.8,215.3c-2,0.6-3.2,2.9-2.5,4.8c0.6,1.9,2.8,3,4.7,2.4c2-0.6,3.2-2.8,2.5-4.8
			C234.9,215.8,232.7,214.7,230.8,215.3z M231.7,228.9c-0.6-2.1-2.7-3.2-4.7-2.6c-2,0.6-3.1,2.6-2.6,4.6c0.5,2,2.6,3.2,4.7,2.6
			C231,232.9,232.2,230.8,231.7,228.9z M196.8,237.8c-0.6-2-2.8-3.2-4.8-2.5c-1.9,0.6-3.1,2.7-2.5,4.6c0.6,2,2.8,3.2,4.8,2.6
			C196.2,241.9,197.4,239.7,196.8,237.8z M218,233.3c2.1-0.6,3.2-2.6,2.6-4.7c-0.6-2-2.5-3.1-4.5-2.6c-2,0.6-3.2,2.4-2.7,4.5
			C213.8,232.6,215.9,233.8,218,233.3z M233.7,167.5c-0.4-0.4-1.6-0.4-2.1-0.4c-5.6-0.3-11.5,1-17,2.5c-9.3,2.5-18.6,5.2-27.9,8.1
			c-8.6,2.7-17.5,5.1-25.5,9.2c-1.1,0.6-6,2.6-6.3,3.6c-0.9,2.8,10,0,11.3-0.3c19.9-3.7,39.7-9.3,58.4-17.1
			C225.6,172.7,235,169.1,233.7,167.5C233.7,167.5,233.7,167.5,233.7,167.5z"/>
		<path class="st9" d="M193.8,490.9c1.8,1.6,3.5,3.3,5,5.1c2.3,2.8,2.3,3.8,0.4,6.8c-0.2,0.4-0.5,0.8-0.8,1.1
			c-0.2,0.4-0.5,0.7-0.7,1.1c0.2-0.2,0.4-0.4,0.6-0.6c0.2-0.2,0.4-0.3,0.7-0.4c0.7-0.4,1.4-0.7,2.1-0.8c0.8-0.2,1.5-0.1,2.3-0.2
			c1.6-0.1,3.3,0.4,4.8,1.1c2,1,3.6,2.7,4.5,4.7c1.7,3.7,0.8,8.7-2.3,11.8c-1.8,1.9-4,2.9-6.6,3.2c-5.6,0.7-11.1,0.6-16.6-1
			c-1.4-0.4-2.2-0.2-3,1c-5.2,6.6-10.7,13-17.3,18.3c-0.4,0.3-0.6,1.3-0.6,1.9c0.9,5.9-1.6,9.5-7.5,10.4c-5.5,0.9-10.7-0.3-15.9-1.9
			c-13.8-4.3-26.2-11.2-36.6-21.3c-2.7-2.6-5-5.7-6.8-8.9c-3-5.5-1.3-10.7,4.6-12.7c0.5-0.2,1-0.9,1.1-1.4
			c1.6-13.9,6.7-26.8,12-39.6c1.3-3.2,2.9-6.2,4.1-9.4c0.7-1.9,2-2.7,3.9-2.5c9.1,0.9,17.4,5.9,25.6,9.8c8.7,4.1,17.4,8.2,25.7,13
			C182.6,482.7,188.6,486.3,193.8,490.9z M157,521.3c-2.9,1.3-4.9,1-7.1-0.9c-1.1-1-2.2-1.5-3.3-0.3c-1.2,1.3-0.4,2.5,0.6,3.5
			c3,2.9,7.6,3.7,11.4,1.7c7.7-4.1,13.2-10,15.6-18.6c0.8-3,0.1-5.7-2.3-7.6c-2-1.6-4.3-3-6.6-4.1c-2.5-1.3-5.2-1.1-7.4,0.7
			c-1.1,0.9-2,2.2-2.8,3.4c-4.1,6.4-9.6,9.7-17.4,7.5c-1.2-0.4-2.4,0-2.7,1.3c-0.4,1.4,0.4,2.3,1.7,2.7c5.9,1.7,11.3,1,16.2-2.8
			c2.2-1.7,3.5-1.9,5.7-0.2c1.1,0.8,1.9,2,2.6,3.2c0.7,1.3,1.5,1.9,2.9,1.4c1.4-0.5,1.6-1.7,1-2.8c-0.8-1.6-1.8-3.2-3.1-4.4
			c-1.1-1-2.7-1.6-4.1-2.4c0.5-0.8,0.9-1.4,1.2-1.9c1.5-2.4,2.8-2.8,5.4-1.5c1.4,0.7,2.7,1.5,3.9,2.4c2.1,1.6,2.4,2.5,1.6,5
			c-1.2,3.8-3.3,7.1-6.1,9.9c-2.3,2.3-4,2.4-6.3,0.1c-0.9-0.9-1.5-2.1-1.8-3.3c-0.4-1.4-1.1-2.4-2.7-2c-1.5,0.4-1.6,1.6-1.4,2.9
			C152.2,517.4,154,519.7,157,521.3z M130.9,489.6c2.3-3.6,4.7-5.1,7.6-4.3c2.9,0.8,5.5,3.5,5.8,6.1c0.3,2.5-1.6,6-4.2,7.2
			c-0.9,0.4-2.4,0.3-3.1-0.2c-0.6-0.4-0.7-2-0.4-2.8c0.5-1.3,1.8-2.2,2.4-3.4c0.4-0.8,0.6-2.1,0.2-2.8c-0.7-1.1-2.1-1.1-2.9-0.1
			c-1.3,1.5-2.7,3-3.6,4.8c-1.2,2.4-0.9,5,1,7.1c1.8,2,4.3,2.8,6.8,1.9c4.3-1.5,6.9-4.8,7.8-9.3c0.8-3.9-0.7-7.1-3.6-9.7
			c-4.8-4.3-11.2-4.3-14.9,0.1c-2.9,3.5-4.5,7.7-4.7,12.4c-0.1,1.4,0.4,2.4,1.9,2.5c1.5,0.1,2-0.9,2.2-2.3
			C129.7,494.5,130.4,492,130.9,489.6z M105.2,514.7c-1.9,0.6-2.3,2.2-1.5,3.8c1.3,2.5,2.7,5.2,4.7,7.2c11.5,11.8,25.5,19.4,41.5,23
			c2.8,0.6,5.9,0.5,8.8,0.3c2.4-0.2,3-1.4,2.7-3.2c-2.7,0.1-5.4,0.5-8,0.2c-10.4-1-20-4.3-28.6-10.1
			C116.7,530.5,109.1,524.3,105.2,514.7z M188.9,517.8c0,0.1-0.1,0.1-0.1,0.1c0.5,0.3,0.9,0.4,1.4,0.5c2.3,0.5,4.7,0.9,7.1,0.9
			c2.4,0.1,4.8-0.2,7.1-0.7c1.5-0.4,3-1.8,3.9-3.2c1.4-2.2,0.6-5.3-1.4-6.7c-2.1-1.5-4.8-1.2-6.6,1.1c-0.9,1.1-1.3,2.7-1.6,4.2
			c-0.4,1.5-1.1,2.3-2.6,2.2c-0.9,0-2-0.5-2.4-1.4c-0.3-0.6-0.3-1.3-0.2-2c0.1-0.9,0.3-1.7,0.7-2.5c-0.3,0.4-0.6,0.8-1,1.3
			c-0.9,1.2-1.7,2.4-2.6,3.6C190.5,515.5,189.2,517.3,188.9,517.8z M118.8,512c0.9-1.7,0.2-4.1-1.5-5.1c-1.8-1-4.3-0.3-5.3,1.5
			c-1,1.8-0.2,4.2,1.7,5.2C115.5,514.5,117.8,513.8,118.8,512z M129.3,522.1c1.8,1,4.3,0.3,5.2-1.5c0.9-1.8,0.2-4.1-1.5-5.1
			c-1.9-1-4.2-0.3-5.2,1.5C126.8,518.9,127.5,521.1,129.3,522.1z M129.6,526c-1.7-1-4.1-0.4-5.1,1.3c-1.1,1.8-0.5,4.2,1.3,5.3
			c1.7,1,4.1,0.4,5.1-1.4C132,529.4,131.4,527,129.6,526z M161.5,530.3c-1.8-1-4.3-0.2-5.2,1.6c-0.9,1.8-0.1,4.1,1.7,5
			c1.8,1,4.2,0.2,5.2-1.6C164,533.5,163.3,531.2,161.5,530.3z M152.5,540.5c1.1-1.9,0.4-4.2-1.5-5.2c-1.8-1-4-0.4-5.1,1.4
			c-1.1,1.8-0.4,4.1,1.5,5.2C149.3,542.8,151.5,542.2,152.5,540.5z M121.6,522.1c1-1.8,0.3-4.2-1.6-5.2c-1.8-0.9-4-0.3-5,1.5
			c-1,1.8-0.3,4.2,1.6,5.2C118.3,524.6,120.6,523.9,121.6,522.1z M139.7,533.9c1.9,1.1,4.1,0.5,5.2-1.5c1-1.8,0.4-4-1.4-5
			c-1.8-1.1-4-0.5-5.1,1.3C137.3,530.5,137.9,532.8,139.7,533.9z M197.4,498.5c0-0.5-0.8-1.4-1.2-1.8c-3.7-4.2-8.9-7.5-13.8-10.3
			c-8.4-4.8-16.8-9.5-25.4-14c-8-4.2-16-8.8-24.5-11.5c-1.2-0.4-6.1-2.4-7-1.9c-2.6,1.4,7.1,7.1,8.2,7.8
			c16.7,11.4,34.6,21.5,53.3,29.2C188,496.4,197.2,500.6,197.4,498.5C197.4,498.5,197.4,498.5,197.4,498.5z"/>
		<path class="st9" d="M18.7,348.9c2.4-0.1,4.7-0.1,7.1,0.1c3.6,0.3,4.3,1,5.1,4.5c0.1,0.4,0.2,0.9,0.3,1.3c0.1,0.4,0.2,0.9,0.3,1.3
			c0-0.3,0-0.6,0-0.9c0-0.2,0.1-0.5,0.2-0.7c0.2-0.7,0.5-1.4,0.9-2.1c0.4-0.7,0.9-1.2,1.5-1.7c1.1-1.2,2.6-2.1,4.1-2.6
			c2.1-0.8,4.4-0.6,6.5,0.1c3.8,1.3,6.7,5.6,6.7,9.9c0,2.6-0.8,4.9-2.4,6.9c-3.5,4.4-7.4,8.3-12.4,11c-1.2,0.7-1.6,1.4-1.5,2.8
			c1,8.4,1.6,16.7,0.7,25.1c-0.1,0.5,0.4,1.4,0.9,1.7c4.8,3.5,5.6,7.8,2.1,12.7c-3.2,4.5-7.8,7.4-12.6,9.9
			c-12.8,6.7-26.4,10.6-40.9,10.9c-3.7,0.1-7.5-0.5-11.1-1.5c-6-1.7-8.5-6.6-5.7-12.2c0.2-0.4,0.1-1.3-0.2-1.7
			c-8.7-11-14.2-23.7-19.6-36.5c-1.3-3.2-2.4-6.4-3.8-9.6c-0.8-1.9-0.5-3.3,1-4.5c7.1-5.8,16.5-8.1,25-11.2c9-3.2,18.1-6.5,27.4-9
			C4.9,351.1,11.8,349.3,18.7,348.9z M14.2,396.4c-1.1,3-2.7,4.2-5.7,4.4c-1.5,0.1-2.6,0.6-2.6,2.2c0,1.8,1.5,2,2.9,2
			c4.1-0.1,8-2.7,9.3-6.8c2.6-8.3,2.2-16.5-2.2-24.2c-1.5-2.7-4-4.1-7-3.7c-2.6,0.3-5.1,1-7.6,1.8c-2.7,0.9-4.4,2.9-4.8,5.7
			c-0.2,1.4,0.1,2.9,0.4,4.4c1.6,7.5,0.1,13.6-7,17.6c-1.1,0.6-1.7,1.6-1,2.9c0.7,1.3,1.9,1.4,3.1,0.7c5.4-2.9,8.7-7.3,9.5-13.4
			c0.4-2.7,1.1-3.8,3.9-4.2c1.3-0.2,2.8,0.1,4.1,0.4c1.4,0.4,2.4,0.3,3-1.1c0.6-1.3-0.1-2.4-1.3-2.7c-1.7-0.5-3.5-1-5.3-0.9
			c-1.5,0-3,0.8-4.6,1.3c-0.2-0.9-0.4-1.6-0.5-2.2c-0.6-2.8,0-4,2.7-4.9c1.5-0.5,3-0.8,4.5-1.1c2.6-0.4,3.4,0.1,4.7,2.5
			c1.8,3.5,2.7,7.3,2.7,11.3c0,3.2-1.2,4.5-4.4,4.5c-1.2,0-2.5-0.5-3.6-1c-1.3-0.7-2.4-0.9-3.3,0.5c-0.8,1.3-0.1,2.3,1.1,3
			C8,397.1,10.9,397.4,14.2,396.4z M-26.7,392.5c-0.9-4.1-0.2-6.9,2.4-8.4c2.6-1.5,6.4-1.4,8.4,0.2c2,1.6,3.1,5.4,2.1,8.1
			c-0.3,0.9-1.4,1.9-2.3,2c-0.7,0.1-1.9-0.9-2.3-1.8c-0.5-1.3-0.3-2.8-0.7-4.1c-0.3-0.8-1.1-1.9-1.9-2.1c-1.3-0.3-2.2,0.7-2.2,2
			c0.1,2,0.2,4.1,0.9,5.9c0.9,2.6,2.9,4.2,5.7,4.3c2.7,0.1,5-1.1,6.1-3.5c2-4.1,1.5-8.3-1-12.1c-2.2-3.3-5.6-4.5-9.4-4.3
			c-6.4,0.4-11,4.9-10.5,10.6c0.4,4.6,2.3,8.7,5.4,12.1c0.9,1,2,1.4,3.2,0.4c1.1-1,0.8-2,0-3.2C-24.1,396.8-25.4,394.6-26.7,392.5z
			 M-27.1,428.4c-0.9,1.8-0.1,3.2,1.6,3.7c2.7,0.8,5.6,1.7,8.4,1.7c16.5,0.2,31.7-4.3,45.6-13.1c2.4-1.6,4.5-3.8,6.4-6
			c1.5-1.8,1.1-3.1-0.3-4.1c-1.8,2-3.5,4.1-5.5,5.8c-8,6.6-17.2,11.1-27.3,13.1C-7.8,431.5-17.6,432.4-27.1,428.4z M34.2,371.4
			c0,0.1,0,0.1,0,0.1c0.5-0.1,0.9-0.3,1.4-0.6c2-1.3,3.9-2.7,5.7-4.4c1.7-1.6,3.3-3.5,4.5-5.5c0.8-1.3,0.8-3.4,0.5-5
			c-0.5-2.5-3.3-4.2-5.7-3.7c-2.5,0.4-4.2,2.6-3.9,5.5c0.2,1.4,1,2.8,1.8,4.1c0.8,1.3,0.8,2.4-0.3,3.4c-0.7,0.6-1.8,1.1-2.7,0.7
			c-0.6-0.2-1.1-0.7-1.6-1.3c-0.5-0.7-1-1.4-1.3-2.2c0,0.5,0.1,1.1,0.2,1.6c0.2,1.5,0.5,2.9,0.7,4.4
			C33.7,368.7,34.1,370.9,34.2,371.4z M-19.5,416.9c-0.6-1.9-2.8-3.1-4.6-2.6c-2,0.6-3.3,2.8-2.7,4.8c0.6,2,2.8,3.1,4.8,2.5
			C-20,421-18.9,418.9-19.5,416.9z M-4.9,416.6c2-0.6,3.2-2.8,2.6-4.8c-0.6-1.9-2.8-3.1-4.7-2.5c-2,0.6-3.2,2.8-2.6,4.8
			C-8.9,416.1-6.8,417.2-4.9,416.6z M-1.9,419.1c-1.9,0.5-3.2,2.6-2.7,4.6c0.5,2,2.7,3.3,4.7,2.8c1.9-0.5,3.1-2.6,2.7-4.6
			C2.2,419.8,0.1,418.6-1.9,419.1z M23.7,399.6c-2,0.6-3.2,2.9-2.5,4.8c0.6,1.9,2.8,3,4.7,2.4c2-0.6,3.2-2.8,2.5-4.8
			C27.7,400.1,25.6,399,23.7,399.6z M24.5,413.2c-0.6-2.1-2.7-3.2-4.7-2.6c-2,0.6-3.1,2.6-2.6,4.6c0.5,2,2.6,3.2,4.7,2.6
			C23.9,417.1,25.1,415.1,24.5,413.2z M-10.3,422.1c-0.6-2-2.8-3.2-4.8-2.5c-1.9,0.6-3.1,2.7-2.5,4.6c0.6,2,2.8,3.2,4.8,2.6
			C-10.9,426.1-9.8,424-10.3,422.1z M10.8,417.5c2.1-0.6,3.2-2.6,2.6-4.7c-0.6-2-2.5-3.1-4.5-2.6c-2,0.6-3.2,2.4-2.7,4.5
			C6.7,416.8,8.8,418.1,10.8,417.5z M26.6,351.7c-0.4-0.4-1.6-0.4-2.1-0.4c-5.6-0.3-11.5,1-17,2.5c-9.3,2.5-18.6,5.2-27.9,8.1
			c-8.6,2.7-17.5,5.1-25.5,9.2c-1.1,0.6-6,2.6-6.3,3.6c-0.9,2.8,10,0,11.3-0.3c19.9-3.7,39.7-9.3,58.4-17.1
			C18.5,357,27.9,353.4,26.6,351.7C26.6,351.7,26.6,351.7,26.6,351.7z"/>
		<path class="st9" d="M610.1,502.2c1.8,1.6,3.5,3.3,5,5.1c2.3,2.8,2.3,3.8,0.4,6.8c-0.2,0.4-0.5,0.8-0.8,1.1
			c-0.2,0.4-0.5,0.7-0.7,1.1c0.2-0.2,0.4-0.4,0.6-0.6c0.2-0.2,0.4-0.3,0.7-0.4c0.7-0.4,1.4-0.7,2.1-0.8c0.8-0.2,1.5-0.1,2.3-0.2
			c1.6-0.1,3.3,0.4,4.8,1.1c2,1,3.6,2.7,4.5,4.7c1.7,3.7,0.8,8.7-2.3,11.8c-1.8,1.9-4,2.9-6.6,3.2c-5.6,0.7-11.1,0.6-16.6-1
			c-1.4-0.4-2.2-0.2-3,1c-5.2,6.6-10.7,13-17.3,18.3c-0.4,0.3-0.6,1.3-0.6,1.9c0.9,5.9-1.6,9.5-7.5,10.4c-5.5,0.9-10.7-0.3-15.9-1.9
			c-13.8-4.3-26.2-11.2-36.6-21.3c-2.7-2.6-5-5.7-6.8-8.9c-3-5.5-1.3-10.7,4.6-12.7c0.5-0.2,1-0.9,1.1-1.4
			c1.6-13.9,6.7-26.8,12-39.6c1.3-3.2,2.9-6.2,4.1-9.4c0.7-1.9,2-2.7,3.9-2.5c9.1,0.9,17.4,5.9,25.6,9.8c8.7,4.1,17.4,8.2,25.7,13
			C598.8,494,604.9,497.6,610.1,502.2z M573.3,532.6c-2.9,1.3-4.9,1-7.1-0.9c-1.1-1-2.2-1.5-3.3-0.3c-1.2,1.3-0.4,2.5,0.6,3.5
			c3,2.9,7.6,3.7,11.4,1.7c7.7-4.1,13.2-10,15.6-18.6c0.8-3,0.1-5.7-2.3-7.6c-2-1.6-4.3-3-6.6-4.1c-2.5-1.3-5.2-1.1-7.4,0.7
			c-1.1,0.9-2,2.2-2.8,3.4c-4.1,6.4-9.6,9.7-17.4,7.5c-1.2-0.4-2.4,0-2.7,1.3c-0.4,1.4,0.4,2.3,1.7,2.7c5.9,1.7,11.3,1,16.2-2.8
			c2.2-1.7,3.5-1.9,5.7-0.2c1.1,0.8,1.9,2,2.6,3.2c0.7,1.3,1.5,1.9,2.9,1.4c1.4-0.5,1.6-1.7,1-2.8c-0.8-1.6-1.8-3.2-3.1-4.4
			c-1.1-1-2.7-1.6-4.1-2.4c0.5-0.8,0.9-1.4,1.2-1.9c1.5-2.4,2.8-2.8,5.4-1.5c1.4,0.7,2.7,1.5,3.9,2.4c2.1,1.6,2.4,2.5,1.6,5
			c-1.2,3.8-3.3,7.1-6.1,9.9c-2.3,2.3-4,2.4-6.3,0.1c-0.9-0.9-1.5-2.1-1.8-3.3c-0.4-1.4-1.1-2.4-2.7-2c-1.5,0.4-1.6,1.6-1.4,2.9
			C568.4,528.7,570.2,531,573.3,532.6z M547.2,500.9c2.3-3.6,4.7-5.1,7.6-4.3c2.9,0.8,5.5,3.5,5.8,6.1c0.3,2.5-1.6,6-4.2,7.2
			c-0.9,0.4-2.4,0.3-3.1-0.2c-0.6-0.4-0.7-2-0.4-2.8c0.5-1.3,1.8-2.2,2.4-3.4c0.4-0.8,0.6-2.1,0.2-2.8c-0.7-1.1-2.1-1.1-2.9-0.1
			c-1.3,1.5-2.7,3-3.6,4.8c-1.2,2.4-0.9,5,1,7.1c1.8,2,4.3,2.8,6.8,1.9c4.3-1.5,6.9-4.8,7.8-9.3c0.8-3.9-0.7-7.1-3.6-9.7
			c-4.8-4.3-11.2-4.3-14.9,0.1c-2.9,3.5-4.5,7.7-4.7,12.4c-0.1,1.4,0.4,2.4,1.9,2.5c1.5,0.1,2-0.9,2.2-2.3
			C546,505.8,546.6,503.3,547.2,500.9z M521.4,526c-1.9,0.6-2.3,2.2-1.5,3.8c1.3,2.5,2.7,5.2,4.7,7.2c11.5,11.8,25.5,19.4,41.5,23
			c2.8,0.6,5.9,0.5,8.8,0.3c2.4-0.2,3-1.4,2.7-3.2c-2.7,0.1-5.4,0.5-8,0.2c-10.4-1-20-4.3-28.6-10.1
			C532.9,541.8,525.4,535.6,521.4,526z M605.1,529.1c0,0.1-0.1,0.1-0.1,0.1c0.5,0.3,0.9,0.4,1.4,0.5c2.3,0.5,4.7,0.9,7.1,0.9
			c2.4,0.1,4.8-0.2,7.1-0.7c1.5-0.4,3-1.8,3.9-3.2c1.4-2.2,0.6-5.3-1.4-6.7c-2.1-1.5-4.8-1.2-6.6,1.1c-0.9,1.1-1.3,2.7-1.6,4.2
			c-0.4,1.5-1.1,2.3-2.6,2.2c-0.9,0-2-0.5-2.4-1.4c-0.3-0.6-0.3-1.3-0.2-2c0.1-0.9,0.3-1.7,0.7-2.5c-0.3,0.4-0.6,0.8-1,1.3
			c-0.9,1.2-1.7,2.4-2.6,3.6C606.7,526.8,605.4,528.6,605.1,529.1z M535,523.3c0.9-1.7,0.2-4.1-1.5-5.1c-1.8-1-4.3-0.3-5.3,1.5
			c-1,1.8-0.2,4.2,1.7,5.2C531.8,525.8,534,525.1,535,523.3z M545.5,533.4c1.8,1,4.3,0.3,5.2-1.5c0.9-1.8,0.2-4.1-1.5-5.1
			c-1.9-1-4.2-0.3-5.2,1.5C543.1,530.2,543.7,532.4,545.5,533.4z M545.8,537.3c-1.7-1-4.1-0.4-5.1,1.3c-1.1,1.8-0.5,4.2,1.3,5.3
			c1.7,1,4.1,0.4,5.1-1.4C548.3,540.7,547.7,538.3,545.8,537.3z M577.7,541.6c-1.8-1-4.3-0.2-5.2,1.6c-0.9,1.8-0.1,4.1,1.7,5
			c1.8,1,4.2,0.2,5.2-1.6C580.3,544.8,579.5,542.5,577.7,541.6z M568.8,551.8c1.1-1.9,0.4-4.2-1.5-5.2c-1.8-1-4-0.4-5.1,1.4
			c-1.1,1.8-0.4,4.1,1.5,5.2C565.5,554.1,567.8,553.5,568.8,551.8z M537.8,533.4c1-1.8,0.3-4.2-1.6-5.2c-1.8-0.9-4-0.3-5,1.5
			c-1,1.8-0.3,4.2,1.6,5.2C534.5,535.9,536.9,535.1,537.8,533.4z M556,545.2c1.9,1.1,4.1,0.5,5.2-1.5c1-1.8,0.4-4-1.4-5
			c-1.8-1.1-4-0.5-5.1,1.3C553.6,541.8,554.2,544.1,556,545.2z M613.7,509.8c0-0.5-0.8-1.4-1.2-1.8c-3.7-4.2-8.9-7.5-13.8-10.3
			c-8.4-4.8-16.8-9.5-25.4-14c-8-4.2-16-8.8-24.5-11.5c-1.2-0.4-6.1-2.4-7-1.9c-2.6,1.4,7.1,7.1,8.2,7.8
			c16.7,11.4,34.6,21.5,53.3,29.2C604.2,507.7,613.4,511.9,613.7,509.8C613.7,509.8,613.7,509.8,613.7,509.8z"/>
		<path class="st9" d="M80.2,78.6c1.8,1.6,3.5,3.3,5,5.1c2.3,2.8,2.3,3.8,0.4,6.8c-0.2,0.4-0.5,0.8-0.7,1.1
			c-0.2,0.4-0.5,0.7-0.7,1.1c0.2-0.2,0.4-0.4,0.6-0.6c0.2-0.2,0.4-0.3,0.7-0.4c0.7-0.4,1.4-0.7,2.1-0.8c0.8-0.2,1.5-0.1,2.3-0.2
			c1.6-0.1,3.3,0.4,4.8,1.1c2,1,3.6,2.7,4.5,4.7c1.7,3.7,0.8,8.7-2.3,11.8c-1.8,1.9-4,2.9-6.6,3.2c-5.6,0.7-11.1,0.6-16.6-1
			c-1.4-0.4-2.2-0.2-3,1c-5.2,6.6-10.7,13-17.3,18.3c-0.4,0.3-0.6,1.3-0.6,1.9c0.9,5.9-1.6,9.5-7.5,10.4c-5.5,0.9-10.7-0.3-15.9-1.9
			c-13.8-4.3-26.2-11.2-36.6-21.3c-2.7-2.6-5-5.7-6.8-8.9c-3-5.5-1.3-10.7,4.6-12.7c0.5-0.2,1-0.9,1.1-1.4
			c1.6-13.9,6.7-26.8,12-39.6C5,53,6.5,50,7.8,46.8c0.7-1.9,2-2.7,3.9-2.5c9.1,0.9,17.4,5.9,25.6,9.8c8.7,4.1,17.4,8.2,25.7,13
			C68.9,70.4,75,74.1,80.2,78.6z M43.4,109.1c-2.9,1.3-4.9,1-7.1-0.9c-1.1-1-2.2-1.5-3.3-0.3c-1.2,1.3-0.4,2.5,0.6,3.5
			c3,2.9,7.6,3.7,11.4,1.7c7.7-4.1,13.2-10,15.6-18.6c0.8-3,0.1-5.7-2.3-7.6c-2-1.6-4.3-3-6.6-4.1c-2.5-1.3-5.2-1.1-7.4,0.7
			c-1.1,0.9-2,2.2-2.8,3.4c-4.1,6.4-9.6,9.7-17.4,7.5c-1.2-0.4-2.4,0-2.7,1.3c-0.4,1.4,0.4,2.3,1.7,2.7c5.9,1.7,11.3,1,16.2-2.8
			c2.2-1.7,3.5-1.9,5.7-0.2c1.1,0.8,1.9,2,2.6,3.2c0.7,1.3,1.5,1.9,2.9,1.4c1.4-0.5,1.6-1.7,1-2.8c-0.8-1.6-1.8-3.2-3.1-4.4
			c-1.1-1-2.7-1.6-4.1-2.4c0.5-0.8,0.9-1.4,1.2-1.9c1.5-2.4,2.8-2.8,5.4-1.5c1.4,0.7,2.7,1.5,3.9,2.4c2.1,1.6,2.4,2.5,1.6,5
			c-1.2,3.8-3.3,7.1-6.1,9.9c-2.3,2.3-4,2.4-6.3,0.1c-0.9-0.9-1.5-2.1-1.8-3.3c-0.4-1.4-1.1-2.4-2.7-2c-1.5,0.4-1.6,1.6-1.4,2.9
			C38.5,105.1,40.3,107.4,43.4,109.1z M17.3,77.3c2.3-3.6,4.7-5.1,7.6-4.3c2.9,0.8,5.5,3.5,5.8,6.1c0.3,2.5-1.6,6-4.2,7.2
			c-0.9,0.4-2.4,0.3-3.1-0.2c-0.6-0.4-0.7-2-0.4-2.8c0.5-1.3,1.8-2.2,2.4-3.4c0.4-0.8,0.6-2.1,0.2-2.8c-0.7-1.1-2.1-1.1-2.9-0.1
			c-1.3,1.5-2.7,3-3.6,4.8c-1.2,2.4-0.9,5,1,7.1c1.8,2,4.3,2.8,6.8,1.9c4.3-1.5,6.9-4.8,7.8-9.3c0.8-3.9-0.7-7.1-3.6-9.7
			c-4.8-4.3-11.2-4.3-14.9,0.1c-2.9,3.5-4.5,7.7-4.7,12.4c-0.1,1.4,0.4,2.4,1.9,2.5c1.5,0.1,2-0.9,2.2-2.3
			C16.1,82.2,16.7,79.8,17.3,77.3z M-8.5,102.5c-1.9,0.6-2.3,2.2-1.5,3.8c1.3,2.5,2.7,5.2,4.7,7.2c11.5,11.8,25.5,19.4,41.5,23
			c2.8,0.6,5.9,0.5,8.8,0.3c2.4-0.2,3-1.4,2.7-3.2c-2.7,0.1-5.4,0.5-8,0.2c-10.4-1-20-4.3-28.6-10.1C3,118.3-4.5,112.1-8.5,102.5z
			 M75.2,105.5c0,0.1-0.1,0.1-0.1,0.1c0.5,0.3,0.9,0.4,1.4,0.5c2.3,0.5,4.7,0.9,7.1,0.9c2.4,0.1,4.8-0.2,7.1-0.7
			c1.5-0.4,3-1.8,3.9-3.2c1.4-2.2,0.6-5.3-1.4-6.7c-2.1-1.5-4.8-1.2-6.6,1.1c-0.9,1.1-1.3,2.7-1.6,4.2c-0.4,1.5-1.1,2.3-2.6,2.2
			c-0.9,0-2-0.5-2.4-1.4c-0.3-0.6-0.3-1.3-0.2-2c0.1-0.9,0.3-1.7,0.7-2.5c-0.3,0.4-0.6,0.8-1,1.3c-0.9,1.2-1.7,2.4-2.6,3.6
			C76.8,103.2,75.5,105.1,75.2,105.5z M5.1,99.8C6,98,5.3,95.6,3.6,94.7c-1.8-1-4.3-0.3-5.3,1.5c-1,1.8-0.2,4.2,1.7,5.2
			C1.9,102.2,4.1,101.5,5.1,99.8z M15.6,109.9c1.8,1,4.3,0.3,5.2-1.5c0.9-1.8,0.2-4.1-1.5-5.1c-1.9-1-4.2-0.3-5.2,1.5
			C13.2,106.6,13.8,108.9,15.6,109.9z M15.9,113.7c-1.7-1-4.1-0.4-5.1,1.3c-1.1,1.8-0.5,4.2,1.3,5.3c1.7,1,4.1,0.4,5.1-1.4
			C18.4,117.2,17.8,114.8,15.9,113.7z M47.8,118c-1.8-1-4.3-0.2-5.2,1.6c-0.9,1.8-0.1,4.1,1.7,5c1.8,1,4.2,0.2,5.2-1.6
			C50.4,121.3,49.6,118.9,47.8,118z M38.9,128.2c1.1-1.9,0.4-4.2-1.5-5.2c-1.8-1-4-0.4-5.1,1.4c-1.1,1.8-0.4,4.1,1.5,5.2
			C35.6,130.6,37.9,130,38.9,128.2z M7.9,109.9c1-1.8,0.3-4.2-1.6-5.2c-1.8-0.9-4-0.3-5,1.5c-1,1.8-0.3,4.2,1.6,5.2
			C4.6,112.3,7,111.6,7.9,109.9z M26.1,121.6c1.9,1.1,4.1,0.5,5.2-1.5c1-1.8,0.4-4-1.4-5c-1.8-1.1-4-0.5-5.1,1.3
			C23.7,118.2,24.3,120.5,26.1,121.6z M83.8,86.2c0-0.5-0.8-1.4-1.2-1.8c-3.7-4.2-8.9-7.5-13.8-10.3c-8.4-4.8-16.8-9.5-25.4-14
			c-8-4.2-16-8.8-24.5-11.5c-1.2-0.4-6.1-2.4-7-1.9c-2.6,1.4,7.1,7.1,8.2,7.8C36.7,66,54.7,76,73.4,83.8
			C74.3,84.2,83.5,88.3,83.8,86.2C83.8,86.2,83.8,86.2,83.8,86.2z"/>
		<path class="st9" d="M543.3,210.1c2.4-0.1,4.7-0.1,7.1,0.1c3.6,0.3,4.3,1,5.1,4.5c0.1,0.4,0.2,0.9,0.3,1.3
			c0.1,0.4,0.2,0.9,0.3,1.3c0-0.3,0-0.6,0-0.9c0-0.2,0.1-0.5,0.2-0.7c0.2-0.7,0.5-1.4,0.9-2.1c0.4-0.7,0.9-1.2,1.5-1.7
			c1.1-1.2,2.6-2.1,4.1-2.6c2.1-0.8,4.4-0.6,6.5,0.1c3.8,1.3,6.7,5.6,6.7,9.9c0,2.6-0.8,4.9-2.4,6.9c-3.5,4.4-7.4,8.3-12.4,11
			c-1.2,0.7-1.6,1.4-1.5,2.8c1,8.4,1.6,16.7,0.7,25.1c-0.1,0.5,0.4,1.4,0.9,1.7c4.8,3.5,5.6,7.8,2.1,12.7c-3.2,4.5-7.8,7.4-12.6,9.9
			c-12.8,6.7-26.4,10.6-40.9,10.9c-3.7,0.1-7.5-0.5-11.1-1.5c-6-1.7-8.5-6.6-5.7-12.2c0.2-0.4,0.1-1.3-0.2-1.7
			c-8.7-11-14.2-23.7-19.6-36.5c-1.3-3.2-2.4-6.4-3.8-9.6c-0.8-1.9-0.5-3.3,1-4.5c7.1-5.8,16.5-8.1,25-11.2c9-3.2,18.1-6.5,27.4-9
			C529.6,212.2,536.4,210.5,543.3,210.1z M538.9,257.6c-1.1,3-2.7,4.2-5.7,4.4c-1.5,0.1-2.6,0.6-2.6,2.2c0,1.8,1.5,2,2.9,2
			c4.1-0.1,8-2.7,9.3-6.8c2.6-8.3,2.2-16.5-2.2-24.2c-1.5-2.7-4-4.1-7-3.7c-2.6,0.3-5.1,1-7.6,1.8c-2.7,0.9-4.4,2.9-4.8,5.7
			c-0.2,1.4,0.1,2.9,0.4,4.4c1.6,7.5,0.1,13.6-7,17.6c-1.1,0.6-1.7,1.6-1,2.9c0.7,1.3,1.9,1.4,3.1,0.7c5.4-2.9,8.7-7.3,9.5-13.4
			c0.4-2.7,1.1-3.8,3.9-4.2c1.3-0.2,2.8,0.1,4.1,0.4c1.4,0.4,2.4,0.3,3-1.1c0.6-1.3-0.1-2.4-1.3-2.7c-1.7-0.5-3.5-1-5.3-0.9
			c-1.5,0-3,0.8-4.6,1.3c-0.2-0.9-0.4-1.6-0.5-2.2c-0.6-2.8,0-4,2.7-4.9c1.5-0.5,3-0.8,4.5-1.1c2.6-0.4,3.4,0.1,4.7,2.5
			c1.8,3.5,2.7,7.3,2.7,11.3c0,3.2-1.2,4.5-4.4,4.5c-1.2,0-2.5-0.5-3.6-1c-1.3-0.7-2.4-0.9-3.3,0.5c-0.8,1.3-0.1,2.3,1.1,3
			C532.6,258.2,535.5,258.6,538.9,257.6z M497.9,253.6c-0.9-4.1-0.2-6.9,2.4-8.4c2.6-1.5,6.4-1.4,8.4,0.2c2,1.6,3.1,5.4,2.1,8.1
			c-0.3,0.9-1.4,1.9-2.3,2c-0.7,0.1-1.9-0.9-2.3-1.8c-0.5-1.3-0.3-2.8-0.7-4.1c-0.3-0.8-1.1-1.9-1.9-2.1c-1.3-0.3-2.2,0.7-2.2,2
			c0.1,2,0.2,4.1,0.9,5.9c0.9,2.6,2.9,4.2,5.7,4.3c2.7,0.1,5-1.1,6.1-3.5c2-4.1,1.5-8.3-1-12.1c-2.2-3.3-5.6-4.5-9.4-4.3
			c-6.4,0.4-11,4.9-10.5,10.6c0.4,4.6,2.3,8.7,5.4,12.1c0.9,1,2,1.4,3.2,0.4c1.1-1,0.8-2,0-3.2C500.6,257.9,499.3,255.8,497.9,253.6
			z M497.5,289.6c-0.9,1.8-0.1,3.2,1.6,3.7c2.7,0.8,5.6,1.7,8.4,1.7c16.5,0.2,31.7-4.3,45.6-13.1c2.4-1.6,4.5-3.8,6.4-6
			c1.5-1.8,1.1-3.1-0.3-4.1c-1.8,2-3.5,4.1-5.5,5.8c-8,6.6-17.2,11.1-27.3,13.1C516.8,292.7,507.1,293.6,497.5,289.6z M558.9,232.6
			c0,0.1,0,0.1,0,0.1c0.5-0.1,0.9-0.3,1.4-0.6c2-1.3,3.9-2.7,5.7-4.4c1.7-1.6,3.3-3.5,4.5-5.5c0.8-1.3,0.8-3.4,0.5-5
			c-0.5-2.5-3.3-4.2-5.7-3.7c-2.5,0.4-4.2,2.6-3.9,5.5c0.2,1.4,1,2.8,1.8,4.1c0.8,1.3,0.8,2.4-0.3,3.4c-0.7,0.6-1.8,1.1-2.7,0.7
			c-0.6-0.2-1.1-0.7-1.6-1.3c-0.5-0.7-1-1.4-1.3-2.2c0,0.5,0.1,1.1,0.2,1.6c0.2,1.5,0.5,2.9,0.7,4.4
			C558.4,229.8,558.7,232.1,558.9,232.6z M505.2,278.1c-0.6-1.9-2.8-3.1-4.6-2.6c-2,0.6-3.3,2.8-2.7,4.8c0.6,2,2.8,3.1,4.8,2.5
			C504.7,282.1,505.8,280,505.2,278.1z M519.8,277.8c2-0.6,3.2-2.8,2.6-4.8c-0.6-1.9-2.8-3.1-4.7-2.5c-2,0.6-3.2,2.8-2.6,4.8
			C515.7,277.2,517.8,278.4,519.8,277.8z M522.7,280.3c-1.9,0.5-3.2,2.6-2.7,4.6c0.5,2,2.7,3.3,4.7,2.8c1.9-0.5,3.1-2.6,2.7-4.6
			C526.9,281,524.8,279.8,522.7,280.3z M548.3,260.8c-2,0.6-3.2,2.9-2.5,4.8c0.6,1.9,2.8,3,4.7,2.4c2-0.6,3.2-2.8,2.5-4.8
			C552.4,261.3,550.2,260.2,548.3,260.8z M549.2,274.3c-0.6-2.1-2.7-3.2-4.7-2.6c-2,0.6-3.1,2.6-2.6,4.6c0.5,2,2.6,3.2,4.7,2.6
			C548.6,278.3,549.7,276.3,549.2,274.3z M514.3,283.2c-0.6-2-2.8-3.2-4.8-2.5c-1.9,0.6-3.1,2.7-2.5,4.6c0.6,2,2.8,3.2,4.8,2.6
			C513.7,287.3,514.9,285.1,514.3,283.2z M535.5,278.7c2.1-0.6,3.2-2.6,2.6-4.7c-0.6-2-2.5-3.1-4.5-2.6c-2,0.6-3.2,2.4-2.7,4.5
			C531.4,278,533.4,279.2,535.5,278.7z M551.2,212.9c-0.4-0.4-1.6-0.4-2.1-0.4c-5.6-0.3-11.5,1-17,2.5c-9.3,2.5-18.6,5.2-27.9,8.1
			c-8.6,2.7-17.5,5.1-25.5,9.2c-1.1,0.6-6,2.6-6.3,3.6c-0.9,2.8,10,0,11.3-0.3c19.9-3.7,39.7-9.3,58.4-17.1
			C543.1,218.1,552.6,214.5,551.2,212.9C551.2,212.9,551.2,212.9,551.2,212.9z"/>
		<path class="st9" d="M536.1,8.5c1.8,1.6,3.5,3.3,5,5.1c2.3,2.8,2.3,3.8,0.4,6.8c-0.2,0.4-0.5,0.8-0.7,1.1
			c-0.2,0.4-0.5,0.7-0.7,1.1c0.2-0.2,0.4-0.4,0.6-0.6c0.2-0.2,0.4-0.3,0.7-0.4c0.7-0.4,1.4-0.7,2.1-0.8c0.8-0.2,1.5-0.1,2.3-0.2
			c1.6-0.1,3.3,0.4,4.8,1.1c2,1,3.6,2.7,4.5,4.7c1.7,3.7,0.8,8.7-2.3,11.8c-1.8,1.9-4,2.9-6.6,3.2c-5.6,0.7-11.1,0.6-16.6-1
			c-1.4-0.4-2.2-0.2-3,1c-5.2,6.6-10.7,13-17.3,18.3c-0.4,0.3-0.6,1.3-0.6,1.9c0.9,5.9-1.6,9.5-7.5,10.4c-5.5,0.9-10.7-0.3-15.9-1.9
			c-13.8-4.3-26.2-11.2-36.6-21.3c-2.7-2.6-5-5.7-6.8-8.9c-3-5.5-1.3-10.7,4.6-12.7c0.5-0.2,1-0.9,1.1-1.4
			c1.6-13.9,6.7-26.8,12-39.6c1.3-3.2,2.9-6.2,4.1-9.4c0.7-1.9,2-2.7,3.9-2.5c9.1,0.9,17.4,5.9,25.6,9.8c8.7,4.1,17.4,8.2,25.7,13
			C524.8,0.3,530.9,3.9,536.1,8.5z M499.3,38.9c-2.9,1.3-4.9,1-7.1-0.9c-1.1-1-2.2-1.5-3.3-0.3c-1.2,1.3-0.4,2.5,0.6,3.5
			c3,2.9,7.6,3.7,11.4,1.7c7.7-4.1,13.2-10,15.6-18.6c0.8-3,0.1-5.7-2.3-7.6c-2-1.6-4.3-3-6.6-4.1c-2.5-1.3-5.2-1.1-7.4,0.7
			c-1.1,0.9-2,2.2-2.8,3.4c-4.1,6.4-9.6,9.7-17.4,7.5c-1.2-0.4-2.4,0-2.7,1.3c-0.4,1.4,0.4,2.3,1.7,2.7c5.9,1.7,11.3,1,16.2-2.8
			c2.2-1.7,3.5-1.9,5.7-0.2c1.1,0.8,1.9,2,2.6,3.2c0.7,1.3,1.5,1.9,2.9,1.4c1.4-0.5,1.6-1.7,1-2.8c-0.8-1.6-1.8-3.2-3.1-4.4
			c-1.1-1-2.7-1.6-4.1-2.4c0.5-0.8,0.9-1.4,1.2-1.9c1.5-2.4,2.8-2.8,5.4-1.5c1.4,0.7,2.7,1.5,3.9,2.4c2.1,1.6,2.4,2.5,1.6,5
			c-1.2,3.8-3.3,7.1-6.1,9.9c-2.3,2.3-4,2.4-6.3,0.1c-0.9-0.9-1.5-2.1-1.8-3.3c-0.4-1.4-1.1-2.4-2.7-2c-1.5,0.4-1.6,1.6-1.4,2.9
			C494.4,35,496.2,37.3,499.3,38.9z M473.2,7.2c2.3-3.6,4.7-5.1,7.6-4.3c2.9,0.8,5.5,3.5,5.8,6.1c0.3,2.5-1.6,6-4.2,7.2
			c-0.9,0.4-2.4,0.3-3.1-0.2c-0.6-0.4-0.7-2-0.4-2.8c0.5-1.3,1.8-2.2,2.4-3.4c0.4-0.8,0.6-2.1,0.2-2.8c-0.7-1.1-2.1-1.1-2.9-0.1
			c-1.3,1.5-2.7,3-3.6,4.8c-1.2,2.4-0.9,5,1,7.1c1.8,2,4.3,2.8,6.8,1.9c4.3-1.5,6.9-4.8,7.8-9.3c0.8-3.9-0.7-7.1-3.6-9.7
			c-4.8-4.3-11.2-4.3-14.9,0.1c-2.9,3.5-4.5,7.7-4.7,12.4c-0.1,1.4,0.4,2.4,1.9,2.5c1.5,0.1,2-0.9,2.2-2.3
			C472,12.1,472.6,9.6,473.2,7.2z M447.4,32.3c-1.9,0.6-2.3,2.2-1.5,3.8c1.3,2.5,2.7,5.2,4.7,7.2c11.5,11.8,25.5,19.4,41.5,23
			c2.8,0.6,5.9,0.5,8.8,0.3c2.4-0.2,3-1.4,2.7-3.2c-2.7,0.1-5.4,0.5-8,0.2c-10.4-1-20-4.3-28.6-10.1
			C458.9,48.1,451.4,41.9,447.4,32.3z M531.1,35.4c0,0.1-0.1,0.1-0.1,0.1c0.5,0.3,0.9,0.4,1.4,0.5c2.3,0.5,4.7,0.9,7.1,0.9
			c2.4,0.1,4.8-0.2,7.1-0.7c1.5-0.4,3-1.8,3.9-3.2c1.4-2.2,0.6-5.3-1.4-6.7c-2.1-1.5-4.8-1.2-6.6,1.1c-0.9,1.1-1.3,2.7-1.6,4.2
			c-0.4,1.5-1.1,2.3-2.6,2.2c-0.9,0-2-0.5-2.4-1.4c-0.3-0.6-0.3-1.3-0.2-2c0.1-0.9,0.3-1.7,0.7-2.5c-0.3,0.4-0.6,0.8-1,1.3
			c-0.9,1.2-1.7,2.4-2.6,3.6C532.7,33.1,531.4,34.9,531.1,35.4z M461,29.6c0.9-1.7,0.2-4.1-1.5-5.1c-1.8-1-4.3-0.3-5.3,1.5
			c-1,1.8-0.2,4.2,1.7,5.2C457.8,32.1,460,31.4,461,29.6z M471.5,39.7c1.8,1,4.3,0.3,5.2-1.5c0.9-1.8,0.2-4.1-1.5-5.1
			c-1.9-1-4.2-0.3-5.2,1.5C469,36.5,469.7,38.7,471.5,39.7z M471.8,43.6c-1.7-1-4.1-0.4-5.1,1.3c-1.1,1.8-0.5,4.2,1.3,5.3
			c1.7,1,4.1,0.4,5.1-1.4C474.3,47,473.7,44.6,471.8,43.6z M503.7,47.8c-1.8-1-4.3-0.2-5.2,1.6c-0.9,1.8-0.1,4.1,1.7,5
			c1.8,1,4.2,0.2,5.2-1.6C506.3,51.1,505.5,48.8,503.7,47.8z M494.8,58.1c1.1-1.9,0.4-4.2-1.5-5.2c-1.8-1-4-0.4-5.1,1.4
			c-1.1,1.8-0.4,4.1,1.5,5.2C491.5,60.4,493.8,59.8,494.8,58.1z M463.8,39.7c1-1.8,0.3-4.2-1.6-5.2c-1.8-0.9-4-0.3-5,1.5
			c-1,1.8-0.3,4.2,1.6,5.2C460.5,42.2,462.9,41.4,463.8,39.7z M482,51.4c1.9,1.1,4.1,0.5,5.2-1.5c1-1.8,0.4-4-1.4-5
			c-1.8-1.1-4-0.5-5.1,1.3C479.6,48.1,480.2,50.4,482,51.4z M539.6,16.1c0-0.5-0.8-1.4-1.2-1.8c-3.7-4.2-8.9-7.5-13.8-10.3
			c-8.4-4.8-16.8-9.5-25.4-14c-8-4.2-16-8.8-24.5-11.5c-1.2-0.4-6.1-2.4-7-1.9c-2.6,1.4,7.1,7.1,8.2,7.8
			c16.7,11.4,34.6,21.5,53.3,29.2C530.2,14,539.4,18.2,539.6,16.1C539.6,16.1,539.6,16.1,539.6,16.1z"/>
		<path class="st9" d="M394.1,423.8c1.8,1.6,3.5,3.3,5,5.1c2.3,2.8,2.3,3.8,0.4,6.8c-0.2,0.4-0.5,0.8-0.8,1.1
			c-0.2,0.4-0.5,0.7-0.7,1.1c0.2-0.2,0.4-0.4,0.6-0.6c0.2-0.2,0.4-0.3,0.7-0.4c0.7-0.4,1.4-0.7,2.1-0.8c0.8-0.2,1.5-0.1,2.3-0.2
			c1.6-0.1,3.3,0.4,4.8,1.1c2,1,3.6,2.7,4.5,4.7c1.7,3.7,0.8,8.7-2.3,11.8c-1.8,1.9-4,2.9-6.6,3.2c-5.6,0.7-11.1,0.6-16.6-1
			c-1.4-0.4-2.2-0.2-3,1c-5.2,6.6-10.7,13-17.3,18.3c-0.4,0.3-0.6,1.3-0.6,1.9c0.9,5.9-1.6,9.5-7.5,10.4c-5.5,0.9-10.7-0.3-15.9-1.9
			c-13.8-4.3-26.2-11.2-36.6-21.3c-2.7-2.6-5-5.7-6.8-8.9c-3-5.5-1.3-10.7,4.6-12.7c0.5-0.2,1-0.9,1.1-1.4
			c1.6-13.9,6.7-26.8,12-39.6c1.3-3.2,2.9-6.2,4.1-9.4c0.7-1.9,2-2.7,3.9-2.5c9.1,0.9,17.4,5.9,25.6,9.8c8.7,4.1,17.4,8.2,25.7,13
			C382.8,415.6,388.9,419.3,394.1,423.8z M357.3,454.3c-2.9,1.3-4.9,1-7.1-0.9c-1.1-1-2.2-1.5-3.3-0.3c-1.2,1.3-0.4,2.5,0.6,3.5
			c3,2.9,7.6,3.7,11.4,1.7c7.7-4.1,13.2-10,15.6-18.6c0.8-3,0.1-5.7-2.3-7.6c-2-1.6-4.3-3-6.6-4.1c-2.5-1.3-5.2-1.1-7.4,0.7
			c-1.1,0.9-2,2.2-2.8,3.4c-4.1,6.4-9.6,9.7-17.4,7.5c-1.2-0.4-2.4,0-2.7,1.3c-0.4,1.4,0.4,2.3,1.7,2.7c5.9,1.7,11.3,1,16.2-2.8
			c2.2-1.7,3.5-1.9,5.7-0.2c1.1,0.8,1.9,2,2.6,3.2c0.7,1.3,1.5,1.9,2.9,1.4c1.4-0.5,1.6-1.7,1-2.8c-0.8-1.6-1.8-3.2-3.1-4.4
			c-1.1-1-2.7-1.6-4.1-2.4c0.5-0.8,0.9-1.4,1.2-1.9c1.5-2.4,2.8-2.8,5.4-1.5c1.4,0.7,2.7,1.5,3.9,2.4c2.1,1.6,2.4,2.5,1.6,5
			c-1.2,3.8-3.3,7.1-6.1,9.9c-2.3,2.3-4,2.4-6.3,0.1c-0.9-0.9-1.5-2.1-1.8-3.3c-0.4-1.4-1.1-2.4-2.7-2c-1.5,0.4-1.6,1.6-1.4,2.9
			C352.4,450.3,354.2,452.6,357.3,454.3z M331.1,422.5c2.3-3.6,4.7-5.1,7.6-4.3c2.9,0.8,5.5,3.5,5.8,6.1c0.3,2.5-1.6,6-4.2,7.2
			c-0.9,0.4-2.4,0.3-3.1-0.2c-0.6-0.4-0.7-2-0.4-2.8c0.5-1.3,1.8-2.2,2.4-3.4c0.4-0.8,0.6-2.1,0.2-2.8c-0.7-1.1-2.1-1.1-2.9-0.1
			c-1.3,1.5-2.7,3-3.6,4.8c-1.2,2.4-0.9,5,1,7.1c1.8,2,4.3,2.8,6.8,1.9c4.3-1.5,6.9-4.8,7.8-9.3c0.8-3.9-0.7-7.1-3.6-9.7
			c-4.8-4.3-11.2-4.3-14.9,0.1c-2.9,3.5-4.5,7.7-4.7,12.4c-0.1,1.4,0.4,2.4,1.9,2.5c1.5,0.1,2-0.9,2.2-2.3
			C329.9,427.4,330.6,425,331.1,422.5z M305.4,447.7c-1.9,0.6-2.3,2.2-1.5,3.8c1.3,2.5,2.7,5.2,4.7,7.2c11.5,11.8,25.5,19.4,41.5,23
			c2.8,0.6,5.9,0.5,8.8,0.3c2.4-0.2,3-1.4,2.7-3.2c-2.7,0.1-5.4,0.5-8,0.2c-10.4-1-20-4.3-28.6-10.1
			C316.9,463.5,309.4,457.3,305.4,447.7z M389.1,450.7c0,0.1-0.1,0.1-0.1,0.1c0.5,0.3,0.9,0.4,1.4,0.5c2.3,0.5,4.7,0.9,7.1,0.9
			c2.4,0.1,4.8-0.2,7.1-0.7c1.5-0.4,3-1.8,3.9-3.2c1.4-2.2,0.6-5.3-1.4-6.7c-2.1-1.5-4.8-1.2-6.6,1.1c-0.9,1.1-1.3,2.7-1.6,4.2
			c-0.4,1.5-1.1,2.3-2.6,2.2c-0.9,0-2-0.5-2.4-1.4c-0.3-0.6-0.3-1.3-0.2-2c0.1-0.9,0.3-1.7,0.7-2.5c-0.3,0.4-0.6,0.8-1,1.3
			c-0.9,1.2-1.7,2.4-2.6,3.6C390.7,448.4,389.4,450.3,389.1,450.7z M319,444.9c0.9-1.7,0.2-4.1-1.5-5.1c-1.8-1-4.3-0.3-5.3,1.5
			c-1,1.8-0.2,4.2,1.7,5.2C315.8,447.4,318,446.7,319,444.9z M329.5,455c1.8,1,4.3,0.3,5.2-1.5c0.9-1.8,0.2-4.1-1.5-5.1
			c-1.9-1-4.2-0.3-5.2,1.5C327,451.8,327.7,454.1,329.5,455z M329.8,458.9c-1.7-1-4.1-0.4-5.1,1.3c-1.1,1.8-0.5,4.2,1.3,5.3
			c1.7,1,4.1,0.4,5.1-1.4C332.3,462.3,331.6,460,329.8,458.9z M361.7,463.2c-1.8-1-4.3-0.2-5.2,1.6c-0.9,1.8-0.1,4.1,1.7,5
			c1.8,1,4.2,0.2,5.2-1.6C364.2,466.4,363.5,464.1,361.7,463.2z M352.7,473.4c1.1-1.9,0.4-4.2-1.5-5.2c-1.8-1-4-0.4-5.1,1.4
			c-1.1,1.8-0.4,4.1,1.5,5.2C349.5,475.8,351.8,475.2,352.7,473.4z M321.8,455.1c1-1.8,0.3-4.2-1.6-5.2c-1.8-0.9-4-0.3-5,1.5
			c-1,1.8-0.3,4.2,1.6,5.2C318.5,457.5,320.9,456.8,321.8,455.1z M340,466.8c1.9,1.1,4.1,0.5,5.2-1.5c1-1.8,0.4-4-1.4-5
			c-1.8-1.1-4-0.5-5.1,1.3C337.6,463.4,338.1,465.7,340,466.8z M397.6,431.4c0-0.5-0.8-1.4-1.2-1.8c-3.7-4.2-8.9-7.5-13.8-10.3
			c-8.4-4.8-16.8-9.5-25.4-14c-8-4.2-16-8.8-24.5-11.5c-1.2-0.4-6.1-2.4-7-1.9c-2.6,1.4,7.1,7.1,8.2,7.8
			c16.7,11.4,34.6,21.5,53.3,29.2C388.2,429.4,397.4,433.5,397.6,431.4C397.6,431.4,397.6,431.4,397.6,431.4z"/>
		<path class="st9" d="M236.8,143.8c0.1-17.4,11.8-29,26.4-27.3c6.5,0.8,10.2,4.4,9.9,9.7c-0.4,6.9-5.2,7.5-10.6,7.3
			C252.8,133.1,244.2,135.6,236.8,143.8z"/>
		<path class="st9" d="M52,37.4C65.4,26.2,66.9,9.8,56.2-0.3c-4.8-4.5-9.9-5.1-13.8-1.4c-5,4.7-2.4,8.8,1.2,12.8
			C50,18.3,53.6,26.5,52,37.4z"/>
		<path class="st9" d="M226,656.9c-12.9-11.8-13.7-28.2-2.7-37.8c4.9-4.3,10.1-4.7,13.8-0.9c4.8,4.9,2.1,8.9-1.7,12.7
			C228.7,637.9,224.8,645.9,226,656.9z"/>
		<path class="st9" d="M391.5,387.2c9-15,24.9-19,36.6-10.1c5.2,4,6.6,8.9,3.6,13.4c-3.8,5.7-8.3,3.8-12.8,0.9
			C410.7,386.1,402.1,383.8,391.5,387.2z"/>
		<path class="st9" d="M586.3,456c5.3-23.5,24.5-35.7,43.7-29c8.6,3,12.5,8.9,10.5,16c-2.6,9.2-9.3,8.6-16.5,6.7
			C611.1,446.3,598.7,447.1,586.3,456z"/>
		<path class="st9" d="M518.9,655.5c-13-20.3-8.3-42.5,9.9-51.5c8.1-4,15.1-2.7,18.8,3.8c4.7,8.3-0.4,12.6-6.8,16.4
			C529.4,631.1,521.3,640.4,518.9,655.5z"/>
		<path class="st9" d="M195.6,661.5c13-20.3,8.3-42.5-9.9-51.5c-8.1-4-15.1-2.7-18.8,3.8c-4.7,8.3,0.4,12.6,6.8,16.4
			C185.2,637,193.2,646.4,195.6,661.5z"/>
		<path class="st9" d="M175,439.1c-15.5-18.5-13.6-41.1,3.3-52.3c7.6-5,14.7-4.6,19.1,1.3c5.7,7.6,1.2,12.6-4.7,17.2
			C182.2,413.5,175.4,423.8,175,439.1z"/>
		<path class="st9" d="M374,368.9c22.4-8.9,31.5-29.7,22-47.6c-4.3-8-10.7-11-17.5-7.9c-8.7,4-7.1,10.5-4.1,17.3
			C379.8,342.9,380.8,355.2,374,368.9z"/>
		<path class="st9" d="M514.7,192c21.4-11.1,28.4-32.7,17.1-49.6c-5-7.5-11.8-9.9-18.2-6.2c-8.2,4.8-6,11.1-2.3,17.6
			C517.9,165.6,520.2,177.7,514.7,192z"/>
		<path class="st9" d="M202.2,141.1c3.6-23.8-9.7-42.2-30.1-43c-9.1-0.3-14.9,3.7-15.7,11.1c-0.9,9.5,5.5,11.4,12.9,12.2
			C182.7,123,193.9,128.3,202.2,141.1z"/>
		<path class="st9" d="M-5.4,340.5c-10.7-13.8-8.7-30.1,3.9-37.7c5.6-3.4,10.7-2.9,13.8,1.5c3.9,5.7,0.5,9.1-3.8,12.3
			C0.6,322.2-4.6,329.5-5.4,340.5z"/>
		<path class="st9" d="M522.2,686c-1.1-17.4,9.7-29.8,24.4-29.1c6.5,0.3,10.5,3.6,10.6,9c0.1,6.9-4.7,7.9-10.1,8
			C537.4,674.2,529,677.3,522.2,686z"/>
		<path class="st9" d="M491.9,209.2c4.2-16.9-4.1-31.1-18.7-33c-6.5-0.9-11,1.6-12,6.9c-1.3,6.8,3.2,8.6,8.4,9.7
			C479.1,194.9,486.8,199.4,491.9,209.2z"/>
		<path class="st9" d="M563.3,453.7c11.2-13.3,9.9-29.7-2.3-37.9c-5.5-3.6-10.6-3.3-13.8,0.9c-4.2,5.5-0.9,9.1,3.3,12.4
			C558,435.1,563,442.6,563.3,453.7z"/>
		<path class="st9" d="M145.2,452.3c11.2-13.3,9.9-29.7-2.3-37.9c-5.5-3.6-10.6-3.3-13.8,0.9c-4.2,5.5-0.9,9.1,3.3,12.4
			C140,433.7,144.9,441.2,145.2,452.3z"/>
		<path class="st9" d="M367.6,11.3c-4,4.2-8.3,7.2-10.4,11.3c-2,3.9-1.6,9-2.5,15.2c-3.8-5.3-5.9-10.2-9.6-12.9
			c-3.5-2.6-8.7-3-15-4.9c11.2-5.2,13.8-14.2,15.3-24.6c2.8,3.9,5,8.7,8.7,11.4C357.6,9.5,362.7,9.8,367.6,11.3z"/>
		<path class="st9" d="M612.4,633.1c-4,4.2-8.3,7.2-10.4,11.3c-2,3.9-1.6,9-2.5,15.2c-3.8-5.3-5.9-10.2-9.6-12.9
			c-3.5-2.6-8.7-3-15-4.9c11.2-5.2,13.8-14.2,15.3-24.6c2.8,3.9,5,8.7,8.7,11.4C602.4,631.3,607.6,631.6,612.4,633.1z"/>
		<path class="st9" d="M408.4,602.9c-4,4.2-8.3,7.2-10.4,11.3c-2,3.9-1.6,9-2.5,15.2c-3.8-5.3-5.9-10.2-9.6-12.9
			c-3.5-2.6-8.7-3-15-4.9c11.2-5.2,13.8-14.2,15.3-24.6c2.8,3.9,5,8.7,8.7,11.4C398.4,601,403.5,601.4,408.4,602.9z"/>
		<path class="st9" d="M76.7,207.8c-4,4.2-8.3,7.2-10.4,11.3c-2,3.9-1.6,9-2.5,15.2c-3.8-5.3-5.9-10.2-9.6-12.9
			c-3.5-2.6-8.7-3-15-4.9c11.2-5.2,13.8-14.2,15.3-24.6c2.8,3.9,5,8.7,8.7,11.4C66.8,205.9,71.9,206.3,76.7,207.8z"/>
		<path class="st9" d="M626.8,306.9c-4,4.2-8.3,7.2-10.4,11.3c-2,3.9-1.6,9-2.5,15.2c-3.8-5.3-5.9-10.2-9.6-12.9
			c-3.5-2.6-8.7-3-15-4.9c11.2-5.2,13.8-14.2,15.3-24.6c2.8,3.9,5,8.7,8.7,11.4C616.8,305,621.9,305.4,626.8,306.9z"/>
		<path class="st9" d="M131.8,654.3c-4,4.2-8.3,7.2-10.4,11.3c-2,3.9-1.6,9-2.5,15.2c-3.8-5.3-5.9-10.2-9.6-12.9
			c-3.5-2.6-8.7-3-15-4.9c11.2-5.2,13.8-14.2,15.3-24.6c2.8,3.9,5,8.7,8.7,11.4C121.8,652.5,126.9,652.9,131.8,654.3z"/>
		<path class="st9" d="M341.9,67.4c-4,4.2-8.3,7.2-10.4,11.3c-2,3.9-1.6,9-2.5,15.2c-3.8-5.3-5.9-10.2-9.6-12.9
			c-3.5-2.6-8.7-3-15-4.9c11.2-5.2,13.8-14.2,15.3-24.6c2.8,3.9,5,8.7,8.7,11.4C332,65.5,337.1,65.9,341.9,67.4z"/>
		<path class="st9" d="M356.3,591.3c-6.8,7.1-14.2,12.3-17.8,19.4c-3.4,6.7-2.8,15.5-4.3,26.1c-6.5-9.1-10.2-17.4-16.5-22.2
			c-6-4.5-14.9-5.1-25.6-8.4c19.2-8.9,23.7-24.3,26.2-42.2c4.9,6.7,8.6,15,14.9,19.6C339.2,588.1,348,588.8,356.3,591.3z"/>
		<path class="st9" d="M360.6,231.8c-4,4.2-8.3,7.2-10.4,11.3c-2,3.9-1.6,9-2.5,15.2c-3.8-5.3-5.9-10.2-9.6-12.9
			c-3.5-2.6-8.7-3-15-4.9c11.2-5.2,13.8-14.2,15.3-24.6c2.8,3.9,5,8.7,8.7,11.4C350.6,229.9,355.8,230.3,360.6,231.8z"/>
		<path class="st9" d="M517,429.6c-4,4.2-8.3,7.2-10.4,11.3c-2,3.9-1.6,9-2.5,15.2c-3.8-5.3-5.9-10.2-9.6-12.9
			c-3.5-2.6-8.7-3-15-4.9c11.2-5.2,13.8-14.2,15.3-24.6c2.8,3.9,5,8.7,8.7,11.4C507,427.7,512.1,428.1,517,429.6z"/>
		<path class="st9" d="M490.5,470.8c-4,4.2-8.3,7.2-10.4,11.3c-2,3.9-1.6,9-2.5,15.2c-3.8-5.3-5.9-10.2-9.6-12.9
			c-3.5-2.6-8.7-3-15-4.9c11.2-5.2,13.8-14.2,15.3-24.6c2.8,3.9,5,8.7,8.7,11.4C480.5,468.9,485.7,469.3,490.5,470.8z"/>
		<path class="st9" d="M609.5,82.5c-4,4.2-8.3,7.2-10.4,11.3c-2,3.9-1.6,9-2.5,15.2c-3.8-5.3-5.9-10.2-9.6-12.9
			c-3.5-2.6-8.7-3-15-4.9c11.2-5.2,13.8-14.2,15.3-24.6c2.8,3.9,5,8.7,8.7,11.4C599.5,80.6,604.6,81,609.5,82.5z"/>
		<path class="st9" d="M122,249.3c-4,4.2-8.3,7.2-10.4,11.3c-2,3.9-1.6,9-2.5,15.2c-3.8-5.3-5.9-10.2-9.6-12.9
			c-3.5-2.6-8.7-3-15-4.9c11.2-5.2,13.8-14.2,15.3-24.6c2.8,3.9,5,8.7,8.7,11.4C112,247.4,117.2,247.8,122,249.3z"/>
		<path class="st9" d="M150.3,45.7c-4,4.2-8.3,7.2-10.4,11.3c-2,3.9-1.6,9-2.5,15.2c-3.8-5.3-5.9-10.2-9.6-12.9
			c-3.5-2.6-8.7-3-15-4.9c11.2-5.2,13.8-14.2,15.3-24.6c2.8,3.9,5,8.7,8.7,11.4C140.4,43.8,145.5,44.2,150.3,45.7z"/>
		<path class="st9" d="M17.8,623.3c-4,4.2-8.3,7.2-10.4,11.3c-2,3.9-1.6,9-2.5,15.2C1.1,644.6-1,639.7-4.7,637
			c-3.5-2.6-8.7-3-15-4.9c11.2-5.2,13.8-14.2,15.3-24.6c2.8,3.9,5,8.7,8.7,11.4C7.8,621.5,12.9,621.9,17.8,623.3z"/>
		<path class="st9" d="M421.2,154.1c-6.8,7.1-14.2,12.3-17.8,19.4c-3.4,6.7-2.8,15.5-4.3,26.1c-6.5-9.1-10.2-17.4-16.5-22.2
			c-6-4.5-14.9-5.1-25.6-8.4c19.2-8.9,23.7-24.3,26.2-42.2c4.9,6.7,8.6,15,14.9,19.6C404,150.9,412.9,151.6,421.2,154.1z"/>
		<path class="st9" d="M668.5,9.3c-6.8,7.1-14.2,12.3-17.8,19.4c-3.4,6.7-2.8,15.5-4.3,26.1c-6.5-9.1-10.2-17.4-16.5-22.2
			c-6-4.5-14.9-5.1-25.6-8.4C623.4,15.4,628-0.1,630.4-18c4.9,6.7,8.6,15,14.9,19.6C651.4,6.1,660.2,6.7,668.5,9.3z"/>
		<path class="st9" d="M248.5,657.2c2.4-0.1,4.7-0.1,7.1,0.1c3.6,0.3,4.3,1,5.1,4.5c0.1,0.4,0.2,0.9,0.3,1.3
			c0.1,0.4,0.2,0.9,0.3,1.3c0-0.3,0-0.6,0-0.9c0-0.2,0.1-0.5,0.2-0.7c0.2-0.7,0.5-1.4,0.9-2.1c0.4-0.7,0.9-1.2,1.5-1.7
			c1.1-1.2,2.6-2.1,4.1-2.6c2.1-0.8,4.4-0.6,6.5,0.1c3.8,1.3,6.7,5.6,6.7,9.9c0,2.6-0.8,4.9-2.4,6.9c-3.5,4.4-7.4,8.3-12.4,11
			c-1.2,0.7-1.6,1.4-1.5,2.8c1,8.4,1.6,16.7,0.7,25.1c-0.1,0.5,0.4,1.4,0.9,1.7c4.8,3.5,5.6,7.8,2.1,12.7c-3.2,4.5-7.8,7.4-12.6,9.9
			c-12.8,6.7-26.4,10.6-40.9,10.9c-3.7,0.1-7.5-0.5-11.1-1.5c-6-1.7-8.5-6.6-5.7-12.2c0.2-0.4,0.1-1.3-0.2-1.7
			c-8.7-11-14.2-23.7-19.6-36.5c-1.3-3.2-2.4-6.4-3.8-9.6c-0.8-1.9-0.5-3.3,1-4.5c7.1-5.8,16.5-8.1,25-11.2c9-3.2,18.1-6.5,27.4-9
			C234.7,659.4,241.6,657.7,248.5,657.2z M244,704.8c-1.1,3-2.7,4.2-5.7,4.4c-1.5,0.1-2.6,0.6-2.6,2.2c0,1.8,1.5,2,2.9,2
			c4.1-0.1,8-2.7,9.3-6.8c2.6-8.3,2.2-16.5-2.2-24.2c-1.5-2.7-4-4.1-7-3.7c-2.6,0.3-5.1,1-7.6,1.8c-2.7,0.9-4.4,2.9-4.8,5.7
			c-0.2,1.4,0.1,2.9,0.4,4.4c1.6,7.5,0.1,13.6-7,17.6c-1.1,0.6-1.7,1.6-1,2.9c0.7,1.3,1.9,1.4,3.1,0.7c5.4-2.9,8.7-7.3,9.5-13.4
			c0.4-2.7,1.1-3.8,3.9-4.2c1.3-0.2,2.8,0.1,4.1,0.4c1.4,0.4,2.4,0.3,3-1.1c0.6-1.3-0.1-2.4-1.3-2.7c-1.7-0.5-3.5-1-5.3-0.9
			c-1.5,0-3,0.8-4.6,1.3c-0.2-0.9-0.4-1.6-0.5-2.2c-0.6-2.8,0-4,2.7-4.9c1.5-0.5,3-0.8,4.5-1.1c2.6-0.4,3.4,0.1,4.7,2.5
			c1.8,3.5,2.7,7.3,2.7,11.3c0,3.2-1.2,4.5-4.4,4.5c-1.2,0-2.5-0.5-3.6-1c-1.3-0.7-2.4-0.9-3.3,0.5c-0.8,1.3-0.1,2.3,1.1,3
			C237.8,705.4,240.7,705.8,244,704.8z M203.1,700.8c-0.9-4.1-0.2-6.9,2.4-8.4c2.6-1.5,6.4-1.4,8.4,0.2c2,1.6,3.1,5.4,2.1,8.1
			c-0.3,0.9-1.4,1.9-2.3,2c-0.7,0.1-1.9-0.9-2.3-1.8c-0.5-1.3-0.3-2.8-0.7-4.1c-0.3-0.8-1.1-1.9-1.9-2.1c-1.3-0.3-2.2,0.7-2.2,2
			c0.1,2,0.2,4.1,0.9,5.9c0.9,2.6,2.9,4.2,5.7,4.3c2.7,0.1,5-1.1,6.1-3.5c2-4.1,1.5-8.3-1-12.1c-2.2-3.3-5.6-4.5-9.4-4.3
			c-6.4,0.4-11,4.9-10.5,10.6c0.4,4.6,2.3,8.7,5.4,12.1c0.9,1,2,1.4,3.2,0.4c1.1-1,0.8-2,0-3.2C205.7,705.1,204.4,702.9,203.1,700.8
			z M202.7,736.8c-0.9,1.8-0.1,3.2,1.6,3.7c2.7,0.8,5.6,1.7,8.4,1.7c16.5,0.2,31.7-4.3,45.6-13.1c2.4-1.6,4.5-3.8,6.4-6
			c1.5-1.8,1.1-3.1-0.3-4.1c-1.8,2-3.5,4.1-5.5,5.8c-8,6.6-17.2,11.1-27.3,13.1C222,739.8,212.2,740.7,202.7,736.8z M264,679.8
			c0,0.1,0,0.1,0,0.1c0.5-0.1,0.9-0.3,1.4-0.6c2-1.3,3.9-2.7,5.7-4.4c1.7-1.6,3.3-3.5,4.5-5.5c0.8-1.3,0.8-3.4,0.5-5
			c-0.5-2.5-3.3-4.2-5.7-3.7c-2.5,0.4-4.2,2.6-3.9,5.5c0.2,1.4,1,2.8,1.8,4.1c0.8,1.3,0.8,2.4-0.3,3.4c-0.7,0.6-1.8,1.1-2.7,0.7
			c-0.6-0.2-1.1-0.7-1.6-1.3c-0.5-0.7-1-1.4-1.3-2.2c0,0.5,0.1,1.1,0.2,1.6c0.2,1.5,0.5,2.9,0.7,4.4
			C263.5,677,263.9,679.2,264,679.8z M210.3,725.2c-0.6-1.9-2.8-3.1-4.6-2.6c-2,0.6-3.3,2.8-2.7,4.8c0.6,2,2.8,3.1,4.8,2.5
			C209.8,729.3,210.9,727.2,210.3,725.2z M224.9,725c2-0.6,3.2-2.8,2.6-4.8c-0.6-1.9-2.8-3.1-4.7-2.5c-2,0.6-3.2,2.8-2.6,4.8
			C220.9,724.4,223,725.5,224.9,725z M227.8,727.5c-1.9,0.5-3.2,2.6-2.7,4.6c0.5,2,2.7,3.3,4.7,2.8c1.9-0.5,3.1-2.6,2.7-4.6
			C232,728.2,229.9,726.9,227.8,727.5z M253.5,707.9c-2,0.6-3.2,2.9-2.5,4.8c0.6,1.9,2.8,3,4.7,2.4c2-0.6,3.2-2.8,2.5-4.8
			C257.5,708.4,255.4,707.3,253.5,707.9z M254.3,721.5c-0.6-2.1-2.7-3.2-4.7-2.6c-2,0.6-3.1,2.6-2.6,4.6c0.5,2,2.6,3.2,4.7,2.6
			C253.7,725.5,254.9,723.4,254.3,721.5z M219.5,730.4c-0.6-2-2.8-3.2-4.8-2.5c-1.9,0.6-3.1,2.7-2.5,4.6c0.6,2,2.8,3.2,4.8,2.6
			C218.9,734.4,220,732.3,219.5,730.4z M240.6,725.8c2.1-0.6,3.2-2.6,2.6-4.7c-0.6-2-2.5-3.1-4.5-2.6c-2,0.6-3.2,2.4-2.7,4.5
			C236.5,725.2,238.6,726.4,240.6,725.8z M256.4,660.1c-0.4-0.4-1.6-0.4-2.1-0.4c-5.6-0.3-11.5,1-17,2.5c-9.3,2.5-18.6,5.2-27.9,8.1
			c-8.6,2.7-17.5,5.1-25.5,9.2c-1.1,0.6-6,2.6-6.3,3.6c-0.9,2.8,10,0,11.3-0.3c19.9-3.7,39.7-9.3,58.4-17.1
			C248.3,665.3,257.7,661.7,256.4,660.1C256.4,660.1,256.4,660.1,256.4,660.1z"/>
		<path class="st9" d="M536.1,728.1c1.8,1.6,3.5,3.3,5,5.1c2.3,2.8,2.3,3.8,0.4,6.8c-0.2,0.4-0.5,0.8-0.7,1.1
			c-0.2,0.4-0.5,0.7-0.7,1.1c0.2-0.2,0.4-0.4,0.6-0.6c0.2-0.2,0.4-0.3,0.7-0.4c0.7-0.4,1.4-0.7,2.1-0.8c0.8-0.2,1.5-0.1,2.3-0.2
			c1.6-0.1,3.3,0.4,4.8,1.1c2,1,3.6,2.7,4.5,4.7c1.7,3.7,0.8,8.7-2.3,11.8c-1.8,1.9-4,2.9-6.6,3.2c-5.6,0.7-11.1,0.6-16.6-1
			c-1.4-0.4-2.2-0.2-3,1c-5.2,6.6-10.7,13-17.3,18.3c-0.4,0.3-0.6,1.3-0.6,1.9c0.9,5.9-1.6,9.5-7.5,10.4c-5.5,0.9-10.7-0.3-15.9-1.9
			c-13.8-4.3-26.2-11.2-36.6-21.3c-2.7-2.6-5-5.7-6.8-8.9c-3-5.5-1.3-10.7,4.6-12.7c0.5-0.2,1-0.9,1.1-1.4
			c1.6-13.9,6.7-26.8,12-39.6c1.3-3.2,2.9-6.2,4.1-9.4c0.7-1.9,2-2.7,3.9-2.5c9.1,0.9,17.4,5.9,25.6,9.8c8.7,4.1,17.4,8.2,25.7,13
			C524.8,719.9,530.9,723.5,536.1,728.1z M499.3,758.5c-2.9,1.3-4.9,1-7.1-0.9c-1.1-1-2.2-1.5-3.3-0.3c-1.2,1.3-0.4,2.5,0.6,3.5
			c3,2.9,7.6,3.7,11.4,1.7c7.7-4.1,13.2-10,15.6-18.6c0.8-3,0.1-5.7-2.3-7.6c-2-1.6-4.3-3-6.6-4.1c-2.5-1.3-5.2-1.1-7.4,0.7
			c-1.1,0.9-2,2.2-2.8,3.4c-4.1,6.4-9.6,9.7-17.4,7.5c-1.2-0.4-2.4,0-2.7,1.3c-0.4,1.4,0.4,2.3,1.7,2.7c5.9,1.7,11.3,1,16.2-2.8
			c2.2-1.7,3.5-1.9,5.7-0.2c1.1,0.8,1.9,2,2.6,3.2c0.7,1.3,1.5,1.9,2.9,1.4c1.4-0.5,1.6-1.7,1-2.8c-0.8-1.6-1.8-3.2-3.1-4.4
			c-1.1-1-2.7-1.6-4.1-2.4c0.5-0.8,0.9-1.4,1.2-1.9c1.5-2.4,2.8-2.8,5.4-1.5c1.4,0.7,2.7,1.5,3.9,2.4c2.1,1.6,2.4,2.5,1.6,5
			c-1.2,3.8-3.3,7.1-6.1,9.9c-2.3,2.3-4,2.4-6.3,0.1c-0.9-0.9-1.5-2.1-1.8-3.3c-0.4-1.4-1.1-2.4-2.7-2c-1.5,0.4-1.6,1.6-1.4,2.9
			C494.4,754.6,496.2,756.9,499.3,758.5z M473.2,726.8c2.3-3.6,4.7-5.1,7.6-4.3c2.9,0.8,5.5,3.5,5.8,6.1c0.3,2.5-1.6,6-4.2,7.2
			c-0.9,0.4-2.4,0.3-3.1-0.2c-0.6-0.4-0.7-2-0.4-2.8c0.5-1.3,1.8-2.2,2.4-3.4c0.4-0.8,0.6-2.1,0.2-2.8c-0.7-1.1-2.1-1.1-2.9-0.1
			c-1.3,1.5-2.7,3-3.6,4.8c-1.2,2.4-0.9,5,1,7.1c1.8,2,4.3,2.8,6.8,1.9c4.3-1.5,6.9-4.8,7.8-9.3c0.8-3.9-0.7-7.1-3.6-9.7
			c-4.8-4.3-11.2-4.3-14.9,0.1c-2.9,3.5-4.5,7.7-4.7,12.4c-0.1,1.4,0.4,2.4,1.9,2.5c1.5,0.1,2-0.9,2.2-2.3
			C472,731.7,472.6,729.3,473.2,726.8z M447.4,751.9c-1.9,0.6-2.3,2.2-1.5,3.8c1.3,2.5,2.7,5.2,4.7,7.2c11.5,11.8,25.5,19.4,41.5,23
			c2.8,0.6,5.9,0.5,8.8,0.3c2.4-0.2,3-1.4,2.7-3.2c-2.7,0.1-5.4,0.5-8,0.2c-10.4-1-20-4.3-28.6-10.1
			C458.9,767.8,451.4,761.5,447.4,751.9z M531.1,755c0,0.1-0.1,0.1-0.1,0.1c0.5,0.3,0.9,0.4,1.4,0.5c2.3,0.5,4.7,0.9,7.1,0.9
			c2.4,0.1,4.8-0.2,7.1-0.7c1.5-0.4,3-1.8,3.9-3.2c1.4-2.2,0.6-5.3-1.4-6.7c-2.1-1.5-4.8-1.2-6.6,1.1c-0.9,1.1-1.3,2.7-1.6,4.2
			c-0.4,1.5-1.1,2.3-2.6,2.2c-0.9,0-2-0.5-2.4-1.4c-0.3-0.6-0.3-1.3-0.2-2c0.1-0.9,0.3-1.7,0.7-2.5c-0.3,0.4-0.6,0.8-1,1.3
			c-0.9,1.2-1.7,2.4-2.6,3.6C532.7,752.7,531.4,754.5,531.1,755z M461,749.2c0.9-1.7,0.2-4.1-1.5-5.1c-1.8-1-4.3-0.3-5.3,1.5
			c-1,1.8-0.2,4.2,1.7,5.2C457.8,751.7,460,751,461,749.2z M471.5,759.3c1.8,1,4.3,0.3,5.2-1.5c0.9-1.8,0.2-4.1-1.5-5.1
			c-1.9-1-4.2-0.3-5.2,1.5C469,756.1,469.7,758.3,471.5,759.3z M471.8,763.2c-1.7-1-4.1-0.4-5.1,1.3c-1.1,1.8-0.5,4.2,1.3,5.3
			c1.7,1,4.1,0.4,5.1-1.4C474.3,766.6,473.7,764.2,471.8,763.2z M503.7,767.5c-1.8-1-4.3-0.2-5.2,1.6c-0.9,1.8-0.1,4.1,1.7,5
			c1.8,1,4.2,0.2,5.2-1.6C506.3,770.7,505.5,768.4,503.7,767.5z M494.8,777.7c1.1-1.9,0.4-4.2-1.5-5.2c-1.8-1-4-0.4-5.1,1.4
			c-1.1,1.8-0.4,4.1,1.5,5.2C491.5,780,493.8,779.4,494.8,777.7z M463.8,759.3c1-1.8,0.3-4.2-1.6-5.2c-1.8-0.9-4-0.3-5,1.5
			c-1,1.8-0.3,4.2,1.6,5.2C460.5,761.8,462.9,761.1,463.8,759.3z M482,771.1c1.9,1.1,4.1,0.5,5.2-1.5c1-1.8,0.4-4-1.4-5
			c-1.8-1.1-4-0.5-5.1,1.3C479.6,767.7,480.2,770,482,771.1z M539.6,735.7c0-0.5-0.8-1.4-1.2-1.8c-3.7-4.2-8.9-7.5-13.8-10.3
			c-8.4-4.8-16.8-9.5-25.4-14c-8-4.2-16-8.8-24.5-11.5c-1.2-0.4-6.1-2.4-7-1.9c-2.6,1.4,7.1,7.1,8.2,7.8
			c16.7,11.4,34.6,21.5,53.3,29.2C530.2,733.7,539.4,737.8,539.6,735.7C539.6,735.7,539.6,735.7,539.6,735.7z"/>
		<path class="st9" d="M52,757c13.3-11.2,14.8-27.6,4.2-37.7c-4.8-4.5-9.9-5.1-13.8-1.4c-5,4.7-2.4,8.8,1.2,12.8
			C50,737.9,53.6,746.1,52,757z"/>
		<path class="st9" d="M367.6,730.9c-4,4.2-8.3,7.2-10.4,11.3c-2,3.9-1.6,9-2.5,15.2c-3.8-5.3-5.9-10.2-9.6-12.9
			c-3.5-2.6-8.7-3-15-4.9c11.2-5.2,13.8-14.2,15.3-24.6c2.8,3.9,5,8.7,8.7,11.4C357.6,729.1,362.7,729.5,367.6,730.9z"/>
		<path class="st9" d="M668.5,728.9c-6.8,7.1-14.2,12.3-17.8,19.4c-3.4,6.7-2.8,15.5-4.3,26.1c-6.5-9.1-10.2-17.4-16.5-22.2
			c-6-4.5-14.9-5.1-25.6-8.4c19.2-8.9,23.7-24.3,26.2-42.2c4.9,6.7,8.6,15,14.9,19.6C651.4,725.7,660.2,726.4,668.5,728.9z"/>
		<path class="st9" d="M683.6,239.3c-6.8,7.1-14.2,12.3-17.8,19.4c-3.4,6.7-2.8,15.5-4.3,26.1c-6.5-9.1-10.2-17.4-16.5-22.2
			c-6-4.5-14.9-5.1-25.6-8.4c19.2-8.9,23.7-24.3,26.2-42.2c4.9,6.7,8.6,15,14.9,19.6C666.5,236.1,675.3,236.7,683.6,239.3z"/>
		<path class="st9" d="M24,537.5c-6.8,7.1-14.2,12.3-17.8,19.4c-3.4,6.7-2.8,15.5-4.3,26.1c-6.5-9.1-10.2-17.4-16.5-22.2
			c-6-4.5-14.9-5.1-25.6-8.4c19.2-8.9,23.7-24.3,26.2-42.2c4.9,6.7,8.6,15,14.9,19.6C6.9,534.3,15.7,534.9,24,537.5z"/>
		<path class="st9" d="M738.6,348.9c2.4-0.1,4.7-0.1,7.1,0.1c3.6,0.3,4.3,1,5.1,4.5c0.1,0.4,0.2,0.9,0.3,1.3
			c0.1,0.4,0.2,0.9,0.3,1.3c0-0.3,0-0.6,0-0.9c0-0.2,0.1-0.5,0.2-0.7c0.2-0.7,0.5-1.4,0.9-2.1c0.4-0.7,0.9-1.2,1.5-1.7
			c1.1-1.2,2.6-2.1,4.1-2.6c2.1-0.8,4.4-0.6,6.5,0.1c3.8,1.3,6.7,5.6,6.7,9.9c0,2.6-0.8,4.9-2.4,6.9c-3.5,4.4-7.4,8.3-12.4,11
			c-1.2,0.7-1.6,1.4-1.5,2.8c1,8.4,1.6,16.7,0.7,25.1c-0.1,0.5,0.4,1.4,0.9,1.7c4.8,3.5,5.6,7.8,2.1,12.7c-3.2,4.5-7.8,7.4-12.6,9.9
			c-12.8,6.7-26.4,10.6-40.9,10.9c-3.7,0.1-7.5-0.5-11.1-1.5c-6-1.7-8.5-6.6-5.7-12.2c0.2-0.4,0.1-1.3-0.2-1.7
			c-8.7-11-14.2-23.7-19.6-36.5c-1.3-3.2-2.4-6.4-3.8-9.6c-0.8-1.9-0.5-3.3,1-4.5c7.1-5.8,16.5-8.1,25-11.2c9-3.2,18.1-6.5,27.4-9
			C724.9,351.1,731.8,349.3,738.6,348.9z M734.2,396.4c-1.1,3-2.7,4.2-5.7,4.4c-1.5,0.1-2.6,0.6-2.6,2.2c0,1.8,1.5,2,2.9,2
			c4.1-0.1,8-2.7,9.3-6.8c2.6-8.3,2.2-16.5-2.2-24.2c-1.5-2.7-4-4.1-7-3.7c-2.6,0.3-5.1,1-7.6,1.8c-2.7,0.9-4.4,2.9-4.8,5.7
			c-0.2,1.4,0.1,2.9,0.4,4.4c1.6,7.5,0.1,13.6-7,17.6c-1.1,0.6-1.7,1.6-1,2.9c0.7,1.3,1.9,1.4,3.1,0.7c5.4-2.9,8.7-7.3,9.5-13.4
			c0.4-2.7,1.1-3.8,3.9-4.2c1.3-0.2,2.8,0.1,4.1,0.4c1.4,0.4,2.4,0.3,3-1.1c0.6-1.3-0.1-2.4-1.3-2.7c-1.7-0.5-3.5-1-5.3-0.9
			c-1.5,0-3,0.8-4.6,1.3c-0.2-0.9-0.4-1.6-0.5-2.2c-0.6-2.8,0-4,2.7-4.9c1.5-0.5,3-0.8,4.5-1.1c2.6-0.4,3.4,0.1,4.7,2.5
			c1.8,3.5,2.7,7.3,2.7,11.3c0,3.2-1.2,4.5-4.4,4.5c-1.2,0-2.5-0.5-3.6-1c-1.3-0.7-2.4-0.9-3.3,0.5c-0.8,1.3-0.1,2.3,1.1,3
			C727.9,397.1,730.8,397.4,734.2,396.4z M693.2,392.5c-0.9-4.1-0.2-6.9,2.4-8.4c2.6-1.5,6.4-1.4,8.4,0.2c2,1.6,3.1,5.4,2.1,8.1
			c-0.3,0.9-1.4,1.9-2.3,2c-0.7,0.1-1.9-0.9-2.3-1.8c-0.5-1.3-0.3-2.8-0.7-4.1c-0.3-0.8-1.1-1.9-1.9-2.1c-1.3-0.3-2.2,0.7-2.2,2
			c0.1,2,0.2,4.1,0.9,5.9c0.9,2.6,2.9,4.2,5.7,4.3c2.7,0.1,5-1.1,6.1-3.5c2-4.1,1.5-8.3-1-12.1c-2.2-3.3-5.6-4.5-9.4-4.3
			c-6.4,0.4-11,4.9-10.5,10.6c0.4,4.6,2.3,8.7,5.4,12.1c0.9,1,2,1.4,3.2,0.4c1.1-1,0.8-2,0-3.2C695.9,396.8,694.6,394.6,693.2,392.5
			z M692.8,428.4c-0.9,1.8-0.1,3.2,1.6,3.7c2.7,0.8,5.6,1.7,8.4,1.7c16.5,0.2,31.7-4.3,45.6-13.1c2.4-1.6,4.5-3.8,6.4-6
			c1.5-1.8,1.1-3.1-0.3-4.1c-1.8,2-3.5,4.1-5.5,5.8c-8,6.6-17.2,11.1-27.3,13.1C712.1,431.5,702.4,432.4,692.8,428.4z M754.2,371.4
			c0,0.1,0,0.1,0,0.1c0.5-0.1,0.9-0.3,1.4-0.6c2-1.3,3.9-2.7,5.7-4.4c1.7-1.6,3.3-3.5,4.5-5.5c0.8-1.3,0.8-3.4,0.5-5
			c-0.5-2.5-3.3-4.2-5.7-3.7c-2.5,0.4-4.2,2.6-3.9,5.5c0.2,1.4,1,2.8,1.8,4.1c0.8,1.3,0.8,2.4-0.3,3.4c-0.7,0.6-1.8,1.1-2.7,0.7
			c-0.6-0.2-1.1-0.7-1.6-1.3c-0.5-0.7-1-1.4-1.3-2.2c0,0.5,0.1,1.1,0.2,1.6c0.2,1.5,0.5,2.9,0.7,4.4
			C753.7,368.7,754,370.9,754.2,371.4z M700.5,416.9c-0.6-1.9-2.8-3.1-4.6-2.6c-2,0.6-3.3,2.8-2.7,4.8c0.6,2,2.8,3.1,4.8,2.5
			C700,421,701.1,418.9,700.5,416.9z M715.1,416.6c2-0.6,3.2-2.8,2.6-4.8c-0.6-1.9-2.8-3.1-4.7-2.5c-2,0.6-3.2,2.8-2.6,4.8
			C711,416.1,713.1,417.2,715.1,416.6z M718,419.1c-1.9,0.5-3.2,2.6-2.7,4.6c0.5,2,2.7,3.3,4.7,2.8c1.9-0.5,3.1-2.6,2.7-4.6
			C722.2,419.8,720.1,418.6,718,419.1z M743.6,399.6c-2,0.6-3.2,2.9-2.5,4.8c0.6,1.9,2.8,3,4.7,2.4c2-0.6,3.2-2.8,2.5-4.8
			C747.7,400.1,745.5,399,743.6,399.6z M744.5,413.2c-0.6-2.1-2.7-3.2-4.7-2.6c-2,0.6-3.1,2.6-2.6,4.6c0.5,2,2.6,3.2,4.7,2.6
			C743.9,417.1,745,415.1,744.5,413.2z M709.7,422.1c-0.6-2-2.8-3.2-4.8-2.5c-1.9,0.6-3.1,2.7-2.5,4.6c0.6,2,2.8,3.2,4.8,2.6
			C709,426.1,710.2,424,709.7,422.1z M730.8,417.5c2.1-0.6,3.2-2.6,2.6-4.7c-0.6-2-2.5-3.1-4.5-2.6c-2,0.6-3.2,2.4-2.7,4.5
			C726.7,416.8,728.7,418.1,730.8,417.5z M746.5,351.7c-0.4-0.4-1.6-0.4-2.1-0.4c-5.6-0.3-11.5,1-17,2.5c-9.3,2.5-18.6,5.2-27.9,8.1
			c-8.6,2.7-17.5,5.1-25.5,9.2c-1.1,0.6-6,2.6-6.3,3.6c-0.9,2.8,10,0,11.3-0.3c19.9-3.7,39.7-9.3,58.4-17.1
			C738.4,357,747.9,353.4,746.5,351.7C746.5,351.7,746.5,351.7,746.5,351.7z"/>
		<path class="st9" d="M800.1,79.6c1.8,1.6,3.5,3.3,5,5.1c2.3,2.8,2.3,3.8,0.4,6.8c-0.2,0.4-0.5,0.8-0.8,1.1
			c-0.2,0.4-0.5,0.7-0.7,1.1c0.2-0.2,0.4-0.4,0.6-0.6c0.2-0.2,0.4-0.3,0.7-0.4c0.7-0.4,1.4-0.7,2.1-0.8c0.8-0.2,1.5-0.1,2.3-0.2
			c1.6-0.1,3.3,0.4,4.8,1.1c2,1,3.6,2.7,4.5,4.7c1.7,3.7,0.8,8.7-2.3,11.8c-1.8,1.9-4,2.9-6.6,3.2c-5.6,0.7-11.1,0.6-16.6-1
			c-1.4-0.4-2.2-0.2-3,1c-5.2,6.6-10.7,13-17.3,18.3c-0.4,0.3-0.6,1.3-0.6,1.9c0.9,5.9-1.6,9.5-7.5,10.4c-5.5,0.9-10.7-0.3-15.9-1.9
			c-13.8-4.3-26.2-11.2-36.6-21.3c-2.7-2.6-5-5.7-6.8-8.9c-3-5.5-1.3-10.7,4.6-12.7c0.5-0.2,1-0.9,1.1-1.4
			c1.6-13.9,6.7-26.8,12-39.6c1.3-3.2,2.9-6.2,4.1-9.4c0.7-1.9,2-2.7,3.9-2.5c9.1,0.9,17.4,5.9,25.6,9.8c8.7,4.1,17.4,8.2,25.7,13
			C788.9,71.4,795,75.1,800.1,79.6z M763.4,110.1c-2.9,1.3-4.9,1-7.1-0.9c-1.1-1-2.2-1.5-3.3-0.3c-1.2,1.3-0.4,2.5,0.6,3.5
			c3,2.9,7.6,3.7,11.4,1.7c7.7-4.1,13.2-10,15.6-18.6c0.8-3,0.1-5.7-2.3-7.6c-2-1.6-4.3-3-6.6-4.1c-2.5-1.3-5.2-1.1-7.4,0.7
			c-1.1,0.9-2,2.2-2.8,3.4c-4.1,6.4-9.6,9.7-17.4,7.5c-1.2-0.4-2.4,0-2.7,1.3c-0.4,1.4,0.4,2.3,1.7,2.7c5.9,1.7,11.3,1,16.2-2.8
			c2.2-1.7,3.5-1.9,5.7-0.2c1.1,0.8,1.9,2,2.6,3.2c0.7,1.3,1.5,1.9,2.9,1.4c1.4-0.5,1.6-1.7,1-2.8c-0.8-1.6-1.8-3.2-3.1-4.4
			c-1.1-1-2.7-1.6-4.1-2.4c0.5-0.8,0.9-1.4,1.2-1.9c1.5-2.4,2.8-2.8,5.4-1.5c1.4,0.7,2.7,1.5,3.9,2.4c2.1,1.6,2.4,2.5,1.6,5
			c-1.2,3.8-3.3,7.1-6.1,9.9c-2.3,2.3-4,2.4-6.3,0.1c-0.9-0.9-1.5-2.1-1.8-3.3c-0.4-1.4-1.1-2.4-2.7-2c-1.5,0.4-1.6,1.6-1.4,2.9
			C758.5,106.1,760.3,108.4,763.4,110.1z M737.2,78.3c2.3-3.6,4.7-5.1,7.6-4.3c2.9,0.8,5.5,3.5,5.8,6.1c0.3,2.5-1.6,6-4.2,7.2
			c-0.9,0.4-2.4,0.3-3.1-0.2c-0.6-0.4-0.7-2-0.4-2.8c0.5-1.3,1.8-2.2,2.4-3.4c0.4-0.8,0.6-2.1,0.2-2.8c-0.7-1.1-2.1-1.1-2.9-0.1
			c-1.3,1.5-2.7,3-3.6,4.8c-1.2,2.4-0.9,5,1,7.1c1.8,2,4.3,2.8,6.8,1.9c4.3-1.5,6.9-4.8,7.8-9.3c0.8-3.9-0.7-7.1-3.6-9.7
			c-4.8-4.3-11.2-4.3-14.9,0.1c-2.9,3.5-4.5,7.7-4.7,12.4c-0.1,1.4,0.4,2.4,1.9,2.5c1.5,0.1,2-0.9,2.2-2.3
			C736,83.3,736.7,80.8,737.2,78.3z M711.5,103.5c-1.9,0.6-2.3,2.2-1.5,3.8c1.3,2.5,2.7,5.2,4.7,7.2c11.5,11.8,25.5,19.4,41.5,23
			c2.8,0.6,5.9,0.5,8.8,0.3c2.4-0.2,3-1.4,2.7-3.2c-2.7,0.1-5.4,0.5-8,0.2c-10.4-1-20-4.3-28.6-10.1
			C723,119.3,715.5,113.1,711.5,103.5z M795.2,106.6c0,0.1-0.1,0.1-0.1,0.1c0.5,0.3,0.9,0.4,1.4,0.5c2.3,0.5,4.7,0.9,7.1,0.9
			c2.4,0.1,4.8-0.2,7.1-0.7c1.5-0.4,3-1.8,3.9-3.2c1.4-2.2,0.6-5.3-1.4-6.7c-2.1-1.5-4.8-1.2-6.6,1.1c-0.9,1.1-1.3,2.7-1.6,4.2
			c-0.4,1.5-1.1,2.3-2.6,2.2c-0.9,0-2-0.5-2.4-1.4c-0.3-0.6-0.3-1.3-0.2-2c0.1-0.9,0.3-1.7,0.7-2.5c-0.3,0.4-0.6,0.8-1,1.3
			c-0.9,1.2-1.7,2.4-2.6,3.6C796.8,104.2,795.5,106.1,795.2,106.6z M725.1,100.8c0.9-1.7,0.2-4.1-1.5-5.1c-1.8-1-4.3-0.3-5.3,1.5
			c-1,1.8-0.2,4.2,1.7,5.2C721.8,103.2,724.1,102.5,725.1,100.8z M735.6,110.9c1.8,1,4.3,0.3,5.2-1.5c0.9-1.8,0.2-4.1-1.5-5.1
			c-1.9-1-4.2-0.3-5.2,1.5C733.1,107.6,733.8,109.9,735.6,110.9z M735.9,114.7c-1.7-1-4.1-0.4-5.1,1.3c-1.1,1.8-0.5,4.2,1.3,5.3
			c1.7,1,4.1,0.4,5.1-1.4C738.3,118.2,737.7,115.8,735.9,114.7z M767.8,119c-1.8-1-4.3-0.2-5.2,1.6c-0.9,1.8-0.1,4.1,1.7,5
			c1.8,1,4.2,0.2,5.2-1.6C770.3,122.3,769.6,119.9,767.8,119z M758.8,129.2c1.1-1.9,0.4-4.2-1.5-5.2c-1.8-1-4-0.4-5.1,1.4
			c-1.1,1.8-0.4,4.1,1.5,5.2C755.6,131.6,757.8,131,758.8,129.2z M727.9,110.9c1-1.8,0.3-4.2-1.6-5.2c-1.8-0.9-4-0.3-5,1.5
			c-1,1.8-0.3,4.2,1.6,5.2C724.6,113.3,727,112.6,727.9,110.9z M746.1,122.6c1.9,1.1,4.1,0.5,5.2-1.5c1-1.8,0.4-4-1.4-5
			c-1.8-1.1-4-0.5-5.1,1.3C743.6,119.2,744.2,121.5,746.1,122.6z M803.7,87.2c0-0.5-0.8-1.4-1.2-1.8c-3.7-4.2-8.9-7.5-13.8-10.3
			c-8.4-4.8-16.8-9.5-25.4-14c-8-4.2-16-8.8-24.5-11.5c-1.2-0.4-6.1-2.4-7-1.9c-2.6,1.4,7.1,7.1,8.2,7.8
			C756.7,67,774.6,77,793.3,84.8C794.3,85.2,803.5,89.3,803.7,87.2C803.7,87.2,803.7,87.2,803.7,87.2z"/>
		<path class="st9" d="M714.6,340.5c-10.7-13.8-8.7-30.1,3.9-37.7c5.6-3.4,10.7-2.9,13.8,1.5c3.9,5.7,0.5,9.1-3.8,12.3
			C720.5,322.2,715.3,329.5,714.6,340.5z"/>
		<path class="st9" d="M737.8,623.3c-4,4.2-8.3,7.2-10.4,11.3c-2,3.9-1.6,9-2.5,15.2c-3.8-5.3-5.9-10.2-9.6-12.9
			c-3.5-2.6-8.7-3-15-4.9c11.2-5.2,13.8-14.2,15.3-24.6c2.8,3.9,5,8.7,8.7,11.4C727.8,621.5,732.9,621.9,737.8,623.3z"/>
		<path class="st9" d="M744,537.5c-6.8,7.1-14.2,12.3-17.8,19.4c-3.4,6.7-2.8,15.5-4.3,26.1c-6.5-9.1-10.2-17.4-16.5-22.2
			c-6-4.5-14.9-5.1-25.6-8.4c19.2-8.9,23.7-24.3,26.2-42.2c4.9,6.7,8.6,15,14.9,19.6C726.9,534.3,735.7,534.9,744,537.5z"/>
		<path class="st9" d="M296.3,328.2c-6.8,7.1-14.2,12.3-17.8,19.4c-3.4,6.7-2.8,15.5-4.3,26.1c-6.5-9.1-10.2-17.4-16.5-22.2
			c-6-4.5-14.9-5.1-25.6-8.4c19.2-8.9,23.7-24.3,26.2-42.2c4.9,6.7,8.6,15,14.9,19.6C279.1,324.9,288,325.6,296.3,328.2z"/>
	</g>
</g>
</svg>
