<?xml version="1.0" encoding="utf-8"?>
<!-- Generator: Adobe Illustrator 22.1.0, SVG Export Plug-In . SVG Version: 6.00 Build 0)  -->
<svg version="1.1" id="Layer_1" xmlns="http://www.w3.org/2000/svg" xmlns:xlink="http://www.w3.org/1999/xlink" x="0px" y="0px"
	 viewBox="0 0 720 720" style="enable-background:new 0 0 720 720;" xml:space="preserve">
<style type="text/css">
	.st0{clip-path:url(#SVGID_2_);fill:#A7C3FF;}
	.st1{clip-path:url(#SVGID_2_);}
	.st2{fill:#5E7FDD;}
	.st3{fill:#A7C3FF;}
	.st4{clip-path:url(#SVGID_4_);fill:#5E7FDD;}
	.st5{clip-path:url(#SVGID_4_);}
	.st6{fill:#061D87;}
	.st7{clip-path:url(#SVGID_6_);fill:#F7A4B8;}
	.st8{clip-path:url(#SVGID_6_);}
	.st9{fill:#F57689;}
	.st10{fill:#F7A4B8;}
	.st11{clip-path:url(#SVGID_8_);fill:#CED369;}
	.st12{clip-path:url(#SVGID_8_);}
	.st13{fill:#BCBC61;}
	.st14{fill:#CED369;}
</style>
<g>
	<defs>
		<rect id="SVGID_3_" x="1.2" y="0.9" width="719" height="719"/>
	</defs>
	<clipPath id="SVGID_2_">
		<use xlink:href="#SVGID_3_"  style="overflow:visible;"/>
	</clipPath>
	<rect x="0.7" y="0.4" style="clip-path:url(#SVGID_2_);fill:#5E7FDD;" width="720" height="720"/>
	<g class="st1">
		<path class="st6" d="M250-62.5c2.4-0.1,4.7-0.1,7.1,0.1c3.6,0.3,4.3,1,5.1,4.5c0.1,0.4,0.2,0.9,0.3,1.3c0.1,0.4,0.2,0.9,0.3,1.3
			c0-0.3,0-0.6,0-0.9c0-0.2,0.1-0.5,0.2-0.7c0.2-0.7,0.5-1.4,0.9-2.1c0.4-0.7,0.9-1.2,1.5-1.7c1.1-1.2,2.6-2.1,4.1-2.6
			c2.1-0.8,4.4-0.6,6.5,0.1c3.8,1.3,6.7,5.6,6.7,9.9c0,2.6-0.8,4.9-2.4,6.9c-3.5,4.4-7.4,8.3-12.4,11c-1.2,0.7-1.6,1.4-1.5,2.8
			c1,8.4,1.6,16.7,0.7,25.1c-0.1,0.5,0.4,1.4,0.9,1.7c4.8,3.5,5.6,7.8,2.1,12.7c-3.2,4.5-7.8,7.4-12.6,9.9
			c-12.8,6.7-26.4,10.6-40.9,10.9c-3.7,0.1-7.5-0.5-11.1-1.5c-6-1.7-8.5-6.6-5.7-12.2c0.2-0.4,0.1-1.3-0.2-1.7
			c-8.7-11-14.2-23.7-19.6-36.5c-1.3-3.2-2.4-6.4-3.8-9.6c-0.8-1.9-0.5-3.3,1-4.5c7.1-5.8,16.5-8.1,25-11.2c9-3.2,18.1-6.5,27.4-9
			C236.2-60.3,243.1-62.1,250-62.5z M245.5-15c-1.1,3-2.7,4.2-5.7,4.4c-1.5,0.1-2.6,0.6-2.6,2.2c0,1.8,1.5,2,2.9,2
			c4.1-0.1,8-2.7,9.3-6.8c2.6-8.3,2.2-16.5-2.2-24.2c-1.5-2.7-4-4.1-7-3.7c-2.6,0.3-5.1,1-7.6,1.8c-2.7,0.9-4.4,2.9-4.8,5.7
			c-0.2,1.4,0.1,2.9,0.4,4.4c1.6,7.5,0.1,13.6-7,17.6c-1.1,0.6-1.7,1.6-1,2.9c0.7,1.3,1.9,1.4,3.1,0.7c5.4-2.9,8.7-7.3,9.5-13.4
			c0.4-2.7,1.1-3.8,3.9-4.2c1.3-0.2,2.8,0.1,4.1,0.4c1.4,0.4,2.4,0.3,3-1.1c0.6-1.3-0.1-2.4-1.3-2.7c-1.7-0.5-3.5-1-5.3-0.9
			c-1.5,0-3,0.8-4.6,1.3c-0.2-0.9-0.4-1.6-0.5-2.2c-0.6-2.8,0-4,2.7-4.9c1.5-0.5,3-0.8,4.5-1.1c2.6-0.4,3.4,0.1,4.7,2.5
			c1.8,3.5,2.7,7.3,2.7,11.3c0,3.2-1.2,4.5-4.4,4.5c-1.2,0-2.5-0.5-3.6-1c-1.3-0.7-2.4-0.9-3.3,0.5c-0.8,1.3-0.1,2.3,1.1,3
			C239.3-14.3,242.2-14,245.5-15z M204.6-18.9c-0.9-4.1-0.2-6.9,2.4-8.4c2.6-1.5,6.4-1.4,8.4,0.2c2,1.6,3.1,5.4,2.1,8.1
			c-0.3,0.9-1.4,1.9-2.3,2c-0.7,0.1-1.9-0.9-2.3-1.8c-0.5-1.3-0.3-2.8-0.7-4.1c-0.3-0.8-1.1-1.9-1.9-2.1c-1.3-0.3-2.2,0.7-2.2,2
			c0.1,2,0.2,4.1,0.9,5.9c0.9,2.6,2.9,4.2,5.7,4.3c2.7,0.1,5-1.1,6.1-3.5c2-4.1,1.5-8.3-1-12.1c-2.2-3.3-5.6-4.5-9.4-4.3
			c-6.4,0.4-11,4.9-10.5,10.6c0.4,4.6,2.3,8.7,5.4,12.1c0.9,1,2,1.4,3.2,0.4c1.1-1,0.8-2,0-3.2C207.2-14.6,205.9-16.8,204.6-18.9z
			 M204.2,17c-0.9,1.8-0.1,3.2,1.6,3.7c2.7,0.8,5.6,1.7,8.4,1.7c16.5,0.2,31.7-4.3,45.6-13.1c2.4-1.6,4.5-3.8,6.4-6
			c1.5-1.8,1.1-3.1-0.3-4.1c-1.8,2-3.5,4.1-5.5,5.8c-8,6.6-17.2,11.1-27.3,13.1C223.4,20.1,213.7,21,204.2,17z M265.5-40
			c0,0.1,0,0.1,0,0.1c0.5-0.1,0.9-0.3,1.4-0.6c2-1.3,3.9-2.7,5.7-4.4c1.7-1.6,3.3-3.5,4.5-5.5c0.8-1.3,0.8-3.4,0.5-5
			c-0.5-2.5-3.3-4.2-5.7-3.7c-2.5,0.4-4.2,2.6-3.9,5.5c0.2,1.4,1,2.8,1.8,4.1c0.8,1.3,0.8,2.4-0.3,3.4c-0.7,0.6-1.8,1.1-2.7,0.7
			c-0.6-0.2-1.1-0.7-1.6-1.3c-0.5-0.7-1-1.4-1.3-2.2c0,0.5,0.1,1.1,0.2,1.6c0.2,1.5,0.5,2.9,0.7,4.4C265-42.7,265.4-40.5,265.5-40z
			 M211.8,5.5c-0.6-1.9-2.8-3.1-4.6-2.6c-2,0.6-3.3,2.8-2.7,4.8c0.6,2,2.8,3.1,4.8,2.5C211.3,9.6,212.4,7.5,211.8,5.5z M226.4,5.2
			c2-0.6,3.2-2.8,2.6-4.8c-0.6-1.9-2.8-3.1-4.7-2.5c-2,0.6-3.2,2.8-2.6,4.8C222.4,4.7,224.5,5.8,226.4,5.2z M229.3,7.7
			c-1.9,0.5-3.2,2.6-2.7,4.6c0.5,2,2.7,3.3,4.7,2.8c1.9-0.5,3.1-2.6,2.7-4.6C233.5,8.4,231.4,7.2,229.3,7.7z M254.9-11.8
			c-2,0.6-3.2,2.9-2.5,4.8c0.6,1.9,2.8,3,4.7,2.4c2-0.6,3.2-2.8,2.5-4.8C259-11.3,256.9-12.4,254.9-11.8z M255.8,1.8
			c-0.6-2.1-2.7-3.2-4.7-2.6c-2,0.6-3.1,2.6-2.6,4.6c0.5,2,2.6,3.2,4.7,2.6C255.2,5.7,256.4,3.7,255.8,1.8z M221,10.7
			c-0.6-2-2.8-3.2-4.8-2.5c-1.9,0.6-3.1,2.7-2.5,4.6c0.6,2,2.8,3.2,4.8,2.6C220.4,14.7,221.5,12.6,221,10.7z M242.1,6.1
			c2.1-0.6,3.2-2.6,2.6-4.7c-0.6-2-2.5-3.1-4.5-2.6c-2,0.6-3.2,2.4-2.7,4.5C238,5.4,240.1,6.7,242.1,6.1z M257.9-59.7
			c-0.4-0.4-1.6-0.4-2.1-0.4c-5.6-0.3-11.5,1-17,2.5c-9.3,2.5-18.6,5.2-27.9,8.1c-8.6,2.7-17.5,5.1-25.5,9.2c-1.1,0.6-6,2.6-6.3,3.6
			c-0.9,2.8,10,0,11.3-0.3c19.9-3.7,39.7-9.3,58.4-17.1C249.8-54.4,259.2-58,257.9-59.7C257.9-59.7,257.9-59.7,257.9-59.7z"/>
		<path class="st6" d="M227.3,164.5c2.4-0.1,4.7-0.1,7.1,0.1c3.6,0.3,4.3,1,5.1,4.5c0.1,0.4,0.2,0.9,0.3,1.3
			c0.1,0.4,0.2,0.9,0.3,1.3c0-0.3,0-0.6,0-0.9c0-0.2,0.1-0.5,0.2-0.7c0.2-0.7,0.5-1.4,0.9-2.1c0.4-0.7,0.9-1.2,1.5-1.7
			c1.1-1.2,2.6-2.1,4.1-2.6c2.1-0.8,4.4-0.6,6.5,0.1c3.8,1.3,6.7,5.6,6.7,9.9c0,2.6-0.8,4.9-2.4,6.9c-3.5,4.4-7.4,8.3-12.4,11
			c-1.2,0.7-1.6,1.4-1.5,2.8c1,8.4,1.6,16.7,0.7,25.1c-0.1,0.5,0.4,1.4,0.9,1.7c4.8,3.5,5.6,7.8,2.1,12.7c-3.2,4.5-7.8,7.4-12.6,9.9
			c-12.8,6.7-26.4,10.6-40.9,10.9c-3.7,0.1-7.5-0.5-11.1-1.5c-6-1.7-8.5-6.6-5.7-12.2c0.2-0.4,0.1-1.3-0.2-1.7
			c-8.7-11-14.2-23.7-19.6-36.5c-1.3-3.2-2.4-6.4-3.8-9.6c-0.8-1.9-0.5-3.3,1-4.5c7.1-5.8,16.5-8.1,25-11.2c9-3.2,18.1-6.5,27.4-9
			C213.6,166.7,220.4,164.9,227.3,164.5z M222.8,212.1c-1.1,3-2.7,4.2-5.7,4.4c-1.5,0.1-2.6,0.6-2.6,2.2c0,1.8,1.5,2,2.9,2
			c4.1-0.1,8-2.7,9.3-6.8c2.6-8.3,2.2-16.5-2.2-24.2c-1.5-2.7-4-4.1-7-3.7c-2.6,0.3-5.1,1-7.6,1.8c-2.7,0.9-4.4,2.9-4.8,5.7
			c-0.2,1.4,0.1,2.9,0.4,4.4c1.6,7.5,0.1,13.6-7,17.6c-1.1,0.6-1.7,1.6-1,2.9c0.7,1.3,1.9,1.4,3.1,0.7c5.4-2.9,8.7-7.3,9.5-13.4
			c0.4-2.7,1.1-3.8,3.9-4.2c1.3-0.2,2.8,0.1,4.1,0.4c1.4,0.4,2.4,0.3,3-1.1c0.6-1.3-0.1-2.4-1.3-2.7c-1.7-0.5-3.5-1-5.3-0.9
			c-1.5,0-3,0.8-4.6,1.3c-0.2-0.9-0.4-1.6-0.5-2.2c-0.6-2.8,0-4,2.7-4.9c1.5-0.5,3-0.8,4.5-1.1c2.6-0.4,3.4,0.1,4.7,2.5
			c1.8,3.5,2.7,7.3,2.7,11.3c0,3.2-1.2,4.5-4.4,4.5c-1.2,0-2.5-0.5-3.6-1c-1.3-0.7-2.4-0.9-3.3,0.5c-0.8,1.3-0.1,2.3,1.1,3
			C216.6,212.7,219.5,213,222.8,212.1z M181.9,208.1c-0.9-4.1-0.2-6.9,2.4-8.4c2.6-1.5,6.4-1.4,8.4,0.2c2,1.6,3.1,5.4,2.1,8.1
			c-0.3,0.9-1.4,1.9-2.3,2c-0.7,0.1-1.9-0.9-2.3-1.8c-0.5-1.3-0.3-2.8-0.7-4.1c-0.3-0.8-1.1-1.9-1.9-2.1c-1.3-0.3-2.2,0.7-2.2,2
			c0.1,2,0.2,4.1,0.9,5.9c0.9,2.6,2.9,4.2,5.7,4.3c2.7,0.1,5-1.1,6.1-3.5c2-4.1,1.5-8.3-1-12.1c-2.2-3.3-5.6-4.5-9.4-4.3
			c-6.4,0.4-11,4.9-10.5,10.6c0.4,4.6,2.3,8.7,5.4,12.1c0.9,1,2,1.4,3.2,0.4c1.1-1,0.8-2,0-3.2C184.5,212.4,183.2,210.2,181.9,208.1
			z M181.5,244.1c-0.9,1.8-0.1,3.2,1.6,3.7c2.7,0.8,5.6,1.7,8.4,1.7c16.5,0.2,31.7-4.3,45.6-13.1c2.4-1.6,4.5-3.8,6.4-6
			c1.5-1.8,1.1-3.1-0.3-4.1c-1.8,2-3.5,4.1-5.5,5.8c-8,6.6-17.2,11.1-27.3,13.1C200.8,247.1,191.1,248,181.5,244.1z M242.8,187.1
			c0,0.1,0,0.1,0,0.1c0.5-0.1,0.9-0.3,1.4-0.6c2-1.3,3.9-2.7,5.7-4.4c1.7-1.6,3.3-3.5,4.5-5.5c0.8-1.3,0.8-3.4,0.5-5
			c-0.5-2.5-3.3-4.2-5.7-3.7c-2.5,0.4-4.2,2.6-3.9,5.5c0.2,1.4,1,2.8,1.8,4.1c0.8,1.3,0.8,2.4-0.3,3.4c-0.7,0.6-1.8,1.1-2.7,0.7
			c-0.6-0.2-1.1-0.7-1.6-1.3c-0.5-0.7-1-1.4-1.3-2.2c0,0.5,0.1,1.1,0.2,1.6c0.2,1.5,0.5,2.9,0.7,4.4
			C242.3,184.3,242.7,186.5,242.8,187.1z M189.2,232.5c-0.6-1.9-2.8-3.1-4.6-2.6c-2,0.6-3.3,2.8-2.7,4.8c0.6,2,2.8,3.1,4.8,2.5
			C188.6,236.6,189.7,234.5,189.2,232.5z M203.7,232.3c2-0.6,3.2-2.8,2.6-4.8c-0.6-1.9-2.8-3.1-4.7-2.5c-2,0.6-3.2,2.8-2.6,4.8
			C199.7,231.7,201.8,232.8,203.7,232.3z M206.7,234.8c-1.9,0.5-3.2,2.6-2.7,4.6c0.5,2,2.7,3.3,4.7,2.8c1.9-0.5,3.1-2.6,2.7-4.6
			C210.8,235.4,208.7,234.2,206.7,234.8z M232.3,215.2c-2,0.6-3.2,2.9-2.5,4.8c0.6,1.9,2.8,3,4.7,2.4c2-0.6,3.2-2.8,2.5-4.8
			C236.4,215.7,234.2,214.6,232.3,215.2z M233.2,228.8c-0.6-2.1-2.7-3.2-4.7-2.6c-2,0.6-3.1,2.6-2.6,4.6c0.5,2,2.6,3.2,4.7,2.6
			C232.5,232.8,233.7,230.7,233.2,228.8z M198.3,237.7c-0.6-2-2.8-3.2-4.8-2.5c-1.9,0.6-3.1,2.7-2.5,4.6c0.6,2,2.8,3.2,4.8,2.6
			C197.7,241.7,198.9,239.6,198.3,237.7z M219.4,233.1c2.1-0.6,3.2-2.6,2.6-4.7c-0.6-2-2.5-3.1-4.5-2.6c-2,0.6-3.2,2.4-2.7,4.5
			C215.3,232.4,217.4,233.7,219.4,233.1z M235.2,167.3c-0.4-0.4-1.6-0.4-2.1-0.4c-5.6-0.3-11.5,1-17,2.5c-9.3,2.5-18.6,5.2-27.9,8.1
			c-8.6,2.7-17.5,5.1-25.5,9.2c-1.1,0.6-6,2.6-6.3,3.6c-0.9,2.8,10,0,11.3-0.3c19.9-3.7,39.7-9.3,58.4-17.1
			C227.1,172.6,236.5,169,235.2,167.3C235.2,167.4,235.2,167.4,235.2,167.3z"/>
		<path class="st6" d="M195.3,490.8c1.8,1.6,3.5,3.3,5,5.1c2.3,2.8,2.3,3.8,0.4,6.8c-0.2,0.4-0.5,0.8-0.8,1.1
			c-0.2,0.4-0.5,0.7-0.7,1.1c0.2-0.2,0.4-0.4,0.6-0.6c0.2-0.2,0.4-0.3,0.7-0.4c0.7-0.4,1.4-0.7,2.1-0.8c0.8-0.2,1.5-0.1,2.3-0.2
			c1.6-0.1,3.3,0.4,4.8,1.1c2,1,3.6,2.7,4.5,4.7c1.7,3.7,0.8,8.7-2.3,11.8c-1.8,1.9-4,2.9-6.6,3.2c-5.6,0.7-11.1,0.6-16.6-1
			c-1.4-0.4-2.2-0.2-3,1c-5.2,6.6-10.7,13-17.3,18.3c-0.4,0.3-0.6,1.3-0.6,1.9c0.9,5.9-1.6,9.5-7.5,10.4c-5.5,0.9-10.7-0.3-15.9-1.9
			c-13.8-4.3-26.2-11.2-36.6-21.3c-2.7-2.6-5-5.7-6.8-8.9c-3-5.5-1.3-10.7,4.6-12.7c0.5-0.2,1-0.9,1.1-1.4
			c1.6-13.9,6.7-26.8,12-39.6c1.3-3.2,2.9-6.2,4.1-9.4c0.7-1.9,2-2.7,3.9-2.5c9.1,0.9,17.4,5.9,25.6,9.8c8.7,4.1,17.4,8.2,25.7,13
			C184.1,482.6,190.1,486.2,195.3,490.8z M158.5,521.2c-2.9,1.3-4.9,1-7.1-0.9c-1.1-1-2.2-1.5-3.3-0.3c-1.2,1.3-0.4,2.5,0.6,3.5
			c3,2.9,7.6,3.7,11.4,1.7c7.7-4.1,13.2-10,15.6-18.6c0.8-3,0.1-5.7-2.3-7.6c-2-1.6-4.3-3-6.6-4.1c-2.5-1.3-5.2-1.1-7.4,0.7
			c-1.1,0.9-2,2.2-2.8,3.4c-4.1,6.4-9.6,9.7-17.4,7.5c-1.2-0.4-2.4,0-2.7,1.3c-0.4,1.4,0.4,2.3,1.7,2.7c5.9,1.7,11.3,1,16.2-2.8
			c2.2-1.7,3.5-1.9,5.7-0.2c1.1,0.8,1.9,2,2.6,3.2c0.7,1.3,1.5,1.9,2.9,1.4c1.4-0.5,1.6-1.7,1-2.8c-0.8-1.6-1.8-3.2-3.1-4.4
			c-1.1-1-2.7-1.6-4.1-2.4c0.5-0.8,0.9-1.4,1.2-1.9c1.5-2.4,2.8-2.8,5.4-1.5c1.4,0.7,2.7,1.5,3.9,2.4c2.1,1.6,2.4,2.5,1.6,5
			c-1.2,3.8-3.3,7.1-6.1,9.9c-2.3,2.3-4,2.4-6.3,0.1c-0.9-0.9-1.5-2.1-1.8-3.3c-0.4-1.4-1.1-2.4-2.7-2c-1.5,0.4-1.6,1.6-1.4,2.9
			C153.7,517.3,155.5,519.6,158.5,521.2z M132.4,489.5c2.3-3.6,4.7-5.1,7.6-4.3c2.9,0.8,5.5,3.5,5.8,6.1c0.3,2.5-1.6,6-4.2,7.2
			c-0.9,0.4-2.4,0.3-3.1-0.2c-0.6-0.4-0.7-2-0.4-2.8c0.5-1.3,1.8-2.2,2.4-3.4c0.4-0.8,0.6-2.1,0.2-2.8c-0.7-1.1-2.1-1.1-2.9-0.1
			c-1.3,1.5-2.7,3-3.6,4.8c-1.2,2.4-0.9,5,1,7.1c1.8,2,4.3,2.8,6.8,1.9c4.3-1.5,6.9-4.8,7.8-9.3c0.8-3.9-0.7-7.1-3.6-9.7
			c-4.8-4.3-11.2-4.3-14.9,0.1c-2.9,3.5-4.5,7.7-4.7,12.4c-0.1,1.4,0.4,2.4,1.9,2.5c1.5,0.1,2-0.9,2.2-2.3
			C131.2,494.4,131.8,491.9,132.4,489.5z M106.7,514.6c-1.9,0.6-2.3,2.2-1.5,3.8c1.3,2.5,2.7,5.2,4.7,7.2
			c11.5,11.8,25.5,19.4,41.5,23c2.8,0.6,5.9,0.5,8.8,0.3c2.4-0.2,3-1.4,2.7-3.2c-2.7,0.1-5.4,0.5-8,0.2c-10.4-1-20-4.3-28.6-10.1
			C118.2,530.4,110.6,524.2,106.7,514.6z M190.4,517.7c0,0.1-0.1,0.1-0.1,0.1c0.5,0.3,0.9,0.4,1.4,0.5c2.3,0.5,4.7,0.9,7.1,0.9
			c2.4,0.1,4.8-0.2,7.1-0.7c1.5-0.4,3-1.8,3.9-3.2c1.4-2.2,0.6-5.3-1.4-6.7c-2.1-1.5-4.8-1.2-6.6,1.1c-0.9,1.1-1.3,2.7-1.6,4.2
			c-0.4,1.5-1.1,2.3-2.6,2.2c-0.9,0-2-0.5-2.4-1.4c-0.3-0.6-0.3-1.3-0.2-2c0.1-0.9,0.3-1.7,0.7-2.5c-0.3,0.4-0.6,0.8-1,1.3
			c-0.9,1.2-1.7,2.4-2.6,3.6C192,515.4,190.7,517.2,190.4,517.7z M120.2,511.9c0.9-1.7,0.2-4.1-1.5-5.1c-1.8-1-4.3-0.3-5.3,1.5
			c-1,1.8-0.2,4.2,1.7,5.2C117,514.4,119.3,513.7,120.2,511.9z M130.8,522c1.8,1,4.3,0.3,5.2-1.5c0.9-1.8,0.2-4.1-1.5-5.1
			c-1.9-1-4.2-0.3-5.2,1.5C128.3,518.8,129,521,130.8,522z M131.1,525.9c-1.7-1-4.1-0.4-5.1,1.3c-1.1,1.8-0.5,4.2,1.3,5.3
			c1.7,1,4.1,0.4,5.1-1.4C133.5,529.3,132.9,526.9,131.1,525.9z M163,530.1c-1.8-1-4.3-0.2-5.2,1.6c-0.9,1.8-0.1,4.1,1.7,5
			c1.8,1,4.2,0.2,5.2-1.6C165.5,533.4,164.7,531.1,163,530.1z M154,540.4c1.1-1.9,0.4-4.2-1.5-5.2c-1.8-1-4-0.4-5.1,1.4
			c-1.1,1.8-0.4,4.1,1.5,5.2C150.7,542.7,153,542.1,154,540.4z M123.1,522c1-1.8,0.3-4.2-1.6-5.2c-1.8-0.9-4-0.3-5,1.5
			c-1,1.8-0.3,4.2,1.6,5.2C119.8,524.5,122.1,523.7,123.1,522z M141.2,533.7c1.9,1.1,4.1,0.5,5.2-1.5c1-1.8,0.4-4-1.4-5
			c-1.8-1.1-4-0.5-5.1,1.3C138.8,530.3,139.4,532.7,141.2,533.7z M198.9,498.4c0-0.5-0.8-1.4-1.2-1.8c-3.7-4.2-8.9-7.5-13.8-10.3
			c-8.4-4.8-16.8-9.5-25.4-14c-8-4.2-16-8.8-24.5-11.5c-1.2-0.4-6.1-2.4-7-1.9c-2.6,1.4,7.1,7.1,8.2,7.8
			c16.7,11.4,34.6,21.5,53.3,29.2C189.5,496.3,198.7,500.5,198.9,498.4C198.9,498.4,198.9,498.4,198.9,498.4z"/>
		<path class="st6" d="M20.2,348.8c2.4-0.1,4.7-0.1,7.1,0.1c3.6,0.3,4.3,1,5.1,4.5c0.1,0.4,0.2,0.9,0.3,1.3c0.1,0.4,0.2,0.9,0.3,1.3
			c0-0.3,0-0.6,0-0.9c0-0.2,0.1-0.5,0.2-0.7c0.2-0.7,0.5-1.4,0.9-2.1c0.4-0.7,0.9-1.2,1.5-1.7c1.1-1.2,2.6-2.1,4.1-2.6
			c2.1-0.8,4.4-0.6,6.5,0.1c3.8,1.3,6.7,5.6,6.7,9.9c0,2.6-0.8,4.9-2.4,6.9c-3.5,4.4-7.4,8.3-12.4,11c-1.2,0.7-1.6,1.4-1.5,2.8
			c1,8.4,1.6,16.7,0.7,25.1c-0.1,0.5,0.4,1.4,0.9,1.7c4.8,3.5,5.6,7.8,2.1,12.7c-3.2,4.5-7.8,7.4-12.6,9.9
			c-12.8,6.7-26.4,10.6-40.9,10.9c-3.7,0.1-7.5-0.5-11.1-1.5c-6-1.7-8.5-6.6-5.7-12.2c0.2-0.4,0.1-1.3-0.2-1.7
			c-8.7-11-14.2-23.7-19.6-36.5c-1.3-3.2-2.4-6.4-3.8-9.6c-0.8-1.9-0.5-3.3,1-4.5c7.1-5.8,16.5-8.1,25-11.2c9-3.2,18.1-6.5,27.4-9
			C6.4,350.9,13.3,349.2,20.2,348.8z M15.7,396.3c-1.1,3-2.7,4.2-5.7,4.4c-1.5,0.1-2.6,0.6-2.6,2.2c0,1.8,1.5,2,2.9,2
			c4.1-0.1,8-2.7,9.3-6.8c2.6-8.3,2.2-16.5-2.2-24.2c-1.5-2.7-4-4.1-7-3.7c-2.6,0.3-5.1,1-7.6,1.8c-2.7,0.9-4.4,2.9-4.8,5.7
			c-0.2,1.4,0.1,2.9,0.4,4.4c1.6,7.5,0.1,13.6-7,17.6c-1.1,0.6-1.7,1.6-1,2.9c0.7,1.3,1.9,1.4,3.1,0.7c5.4-2.9,8.7-7.3,9.5-13.4
			c0.4-2.7,1.1-3.8,3.9-4.2c1.3-0.2,2.8,0.1,4.1,0.4c1.4,0.4,2.4,0.3,3-1.1c0.6-1.3-0.1-2.4-1.3-2.7c-1.7-0.5-3.5-1-5.3-0.9
			c-1.5,0-3,0.8-4.6,1.3c-0.2-0.9-0.4-1.6-0.5-2.2c-0.6-2.8,0-4,2.7-4.9c1.5-0.5,3-0.8,4.5-1.1c2.6-0.4,3.4,0.1,4.7,2.5
			c1.8,3.5,2.7,7.3,2.7,11.3c0,3.2-1.2,4.5-4.4,4.5c-1.2,0-2.5-0.5-3.6-1c-1.3-0.7-2.4-0.9-3.3,0.5c-0.8,1.3-0.1,2.3,1.1,3
			C9.5,397,12.4,397.3,15.7,396.3z M-25.2,392.4c-0.9-4.1-0.2-6.9,2.4-8.4c2.6-1.5,6.4-1.4,8.4,0.2c2,1.6,3.1,5.4,2.1,8.1
			c-0.3,0.9-1.4,1.9-2.3,2c-0.7,0.1-1.9-0.9-2.3-1.8c-0.5-1.3-0.3-2.8-0.7-4.1c-0.3-0.8-1.1-1.9-1.9-2.1c-1.3-0.3-2.2,0.7-2.2,2
			c0.1,2,0.2,4.1,0.9,5.9c0.9,2.6,2.9,4.2,5.7,4.3c2.7,0.1,5-1.1,6.1-3.5c2-4.1,1.5-8.3-1-12.1c-2.2-3.3-5.6-4.5-9.4-4.3
			c-6.4,0.4-11,4.9-10.5,10.6c0.4,4.6,2.3,8.7,5.4,12.1c0.9,1,2,1.4,3.2,0.4c1.1-1,0.8-2,0-3.2C-22.6,396.7-23.9,394.5-25.2,392.4z
			 M-25.6,428.3c-0.9,1.8-0.1,3.2,1.6,3.7c2.7,0.8,5.6,1.7,8.4,1.7c16.5,0.2,31.7-4.3,45.6-13.1c2.4-1.6,4.5-3.8,6.4-6
			c1.5-1.8,1.1-3.1-0.3-4.1c-1.8,2-3.5,4.1-5.5,5.8c-8,6.6-17.2,11.1-27.3,13.1C-6.3,431.4-16.1,432.3-25.6,428.3z M35.7,371.3
			c0,0.1,0,0.1,0,0.1c0.5-0.1,0.9-0.3,1.4-0.6c2-1.3,3.9-2.7,5.7-4.4c1.7-1.6,3.3-3.5,4.5-5.5c0.8-1.3,0.8-3.4,0.5-5
			c-0.5-2.5-3.3-4.2-5.7-3.7c-2.5,0.4-4.2,2.6-3.9,5.5c0.2,1.4,1,2.8,1.8,4.1c0.8,1.3,0.8,2.4-0.3,3.4c-0.7,0.6-1.8,1.1-2.7,0.7
			c-0.6-0.2-1.1-0.7-1.6-1.3c-0.5-0.7-1-1.4-1.3-2.2c0,0.5,0.1,1.1,0.2,1.6c0.2,1.5,0.5,2.9,0.7,4.4
			C35.2,368.6,35.6,370.8,35.7,371.3z M-18,416.8c-0.6-1.9-2.8-3.1-4.6-2.6c-2,0.6-3.3,2.8-2.7,4.8c0.6,2,2.8,3.1,4.8,2.5
			C-18.5,420.9-17.4,418.7-18,416.8z M-3.4,416.5c2-0.6,3.2-2.8,2.6-4.8c-0.6-1.9-2.8-3.1-4.7-2.5c-2,0.6-3.2,2.8-2.6,4.8
			C-7.4,416-5.3,417.1-3.4,416.5z M-0.5,419c-1.9,0.5-3.2,2.6-2.7,4.6c0.5,2,2.7,3.3,4.7,2.8c1.9-0.5,3.1-2.6,2.7-4.6
			C3.7,419.7,1.6,418.5-0.5,419z M25.1,399.5c-2,0.6-3.2,2.9-2.5,4.8c0.6,1.9,2.8,3,4.7,2.4c2-0.6,3.2-2.8,2.5-4.8
			C29.2,400,27.1,398.9,25.1,399.5z M26,413.1c-0.6-2.1-2.7-3.2-4.7-2.6c-2,0.6-3.1,2.6-2.6,4.6c0.5,2,2.6,3.2,4.7,2.6
			C25.4,417,26.6,415,26,413.1z M-8.8,422c-0.6-2-2.8-3.2-4.8-2.5c-1.9,0.6-3.1,2.7-2.5,4.6c0.6,2,2.8,3.2,4.8,2.6
			C-9.4,426-8.3,423.9-8.8,422z M12.3,417.4c2.1-0.6,3.2-2.6,2.6-4.7c-0.6-2-2.5-3.1-4.5-2.6c-2,0.6-3.2,2.4-2.7,4.5
			C8.2,416.7,10.3,418,12.3,417.4z M28.1,351.6c-0.4-0.4-1.6-0.4-2.1-0.4c-5.6-0.3-11.5,1-17,2.5c-9.3,2.5-18.6,5.2-27.9,8.1
			c-8.6,2.7-17.5,5.1-25.5,9.2c-1.1,0.6-6,2.6-6.3,3.6c-0.9,2.8,10,0,11.3-0.3c19.9-3.7,39.7-9.3,58.4-17.1
			C20,356.9,29.4,353.3,28.1,351.6C28.1,351.6,28.1,351.6,28.1,351.6z"/>
		<path class="st6" d="M611.6,502.1c1.8,1.6,3.5,3.3,5,5.1c2.3,2.8,2.3,3.8,0.4,6.8c-0.2,0.4-0.5,0.8-0.8,1.1
			c-0.2,0.4-0.5,0.7-0.7,1.1c0.2-0.2,0.4-0.4,0.6-0.6c0.2-0.2,0.4-0.3,0.7-0.4c0.7-0.4,1.4-0.7,2.1-0.8c0.8-0.2,1.5-0.1,2.3-0.2
			c1.6-0.1,3.3,0.4,4.8,1.1c2,1,3.6,2.7,4.5,4.7c1.7,3.7,0.8,8.7-2.3,11.8c-1.8,1.9-4,2.9-6.6,3.2c-5.6,0.7-11.1,0.6-16.6-1
			c-1.4-0.4-2.2-0.2-3,1c-5.2,6.6-10.7,13-17.3,18.3c-0.4,0.3-0.6,1.3-0.6,1.9c0.9,5.9-1.6,9.5-7.5,10.4c-5.5,0.9-10.7-0.3-15.9-1.9
			c-13.8-4.3-26.2-11.2-36.6-21.3c-2.7-2.6-5-5.7-6.8-8.9c-3-5.5-1.3-10.7,4.6-12.7c0.5-0.2,1-0.9,1.1-1.4
			c1.6-13.9,6.7-26.8,12-39.6c1.3-3.2,2.9-6.2,4.1-9.4c0.7-1.9,2-2.7,3.9-2.5c9.1,0.9,17.4,5.9,25.6,9.8c8.7,4.1,17.4,8.2,25.7,13
			C600.3,493.9,606.4,497.5,611.6,502.1z M574.8,532.5c-2.9,1.3-4.9,1-7.1-0.9c-1.1-1-2.2-1.5-3.3-0.3c-1.2,1.3-0.4,2.5,0.6,3.5
			c3,2.9,7.6,3.7,11.4,1.7c7.7-4.1,13.2-10,15.6-18.6c0.8-3,0.1-5.7-2.3-7.6c-2-1.6-4.3-3-6.6-4.1c-2.5-1.3-5.2-1.1-7.4,0.7
			c-1.1,0.9-2,2.2-2.8,3.4c-4.1,6.4-9.6,9.7-17.4,7.5c-1.2-0.4-2.4,0-2.7,1.3c-0.4,1.4,0.4,2.3,1.7,2.7c5.9,1.7,11.3,1,16.2-2.8
			c2.2-1.7,3.5-1.9,5.7-0.2c1.1,0.8,1.9,2,2.6,3.2c0.7,1.3,1.5,1.9,2.9,1.4c1.4-0.5,1.6-1.7,1-2.8c-0.8-1.6-1.8-3.2-3.1-4.4
			c-1.1-1-2.7-1.6-4.1-2.4c0.5-0.8,0.9-1.4,1.2-1.9c1.5-2.4,2.8-2.8,5.4-1.5c1.4,0.7,2.7,1.5,3.9,2.4c2.1,1.6,2.4,2.5,1.6,5
			c-1.2,3.8-3.3,7.1-6.1,9.9c-2.3,2.3-4,2.4-6.3,0.1c-0.9-0.9-1.5-2.1-1.8-3.3c-0.4-1.4-1.1-2.4-2.7-2c-1.5,0.4-1.6,1.6-1.4,2.9
			C569.9,528.6,571.7,530.9,574.8,532.5z M548.7,500.8c2.3-3.6,4.7-5.1,7.6-4.3c2.9,0.8,5.5,3.5,5.8,6.1c0.3,2.5-1.6,6-4.2,7.2
			c-0.9,0.4-2.4,0.3-3.1-0.2c-0.6-0.4-0.7-2-0.4-2.8c0.5-1.3,1.8-2.2,2.4-3.4c0.4-0.8,0.6-2.1,0.2-2.8c-0.7-1.1-2.1-1.1-2.9-0.1
			c-1.3,1.5-2.7,3-3.6,4.8c-1.2,2.4-0.9,5,1,7.1c1.8,2,4.3,2.8,6.8,1.9c4.3-1.5,6.9-4.8,7.8-9.3c0.8-3.9-0.7-7.1-3.6-9.7
			c-4.8-4.3-11.2-4.3-14.9,0.1c-2.9,3.5-4.5,7.7-4.7,12.4c-0.1,1.4,0.4,2.4,1.9,2.5c1.5,0.1,2-0.9,2.2-2.3
			C547.5,505.7,548.1,503.2,548.7,500.8z M522.9,525.9c-1.9,0.6-2.3,2.2-1.5,3.8c1.3,2.5,2.7,5.2,4.7,7.2
			c11.5,11.8,25.5,19.4,41.5,23c2.8,0.6,5.9,0.5,8.8,0.3c2.4-0.2,3-1.4,2.7-3.2c-2.7,0.1-5.4,0.5-8,0.2c-10.4-1-20-4.3-28.6-10.1
			C534.4,541.7,526.9,535.5,522.9,525.9z M606.6,529c0,0.1-0.1,0.1-0.1,0.1c0.5,0.3,0.9,0.4,1.4,0.5c2.3,0.5,4.7,0.9,7.1,0.9
			c2.4,0.1,4.8-0.2,7.1-0.7c1.5-0.4,3-1.8,3.9-3.2c1.4-2.2,0.6-5.3-1.4-6.7c-2.1-1.5-4.8-1.2-6.6,1.1c-0.9,1.1-1.3,2.7-1.6,4.2
			c-0.4,1.5-1.1,2.3-2.6,2.2c-0.9,0-2-0.5-2.4-1.4c-0.3-0.6-0.3-1.3-0.2-2c0.1-0.9,0.3-1.7,0.7-2.5c-0.3,0.4-0.6,0.8-1,1.3
			c-0.9,1.2-1.7,2.4-2.6,3.6C608.2,526.7,606.9,528.5,606.6,529z M536.5,523.2c0.9-1.7,0.2-4.1-1.5-5.1c-1.8-1-4.3-0.3-5.3,1.5
			c-1,1.8-0.2,4.2,1.7,5.2C533.3,525.7,535.5,525,536.5,523.2z M547,533.3c1.8,1,4.3,0.3,5.2-1.5c0.9-1.8,0.2-4.1-1.5-5.1
			c-1.9-1-4.2-0.3-5.2,1.5C544.5,530.1,545.2,532.3,547,533.3z M547.3,537.2c-1.7-1-4.1-0.4-5.1,1.3c-1.1,1.8-0.5,4.2,1.3,5.3
			c1.7,1,4.1,0.4,5.1-1.4C549.8,540.6,549.2,538.2,547.3,537.2z M579.2,541.4c-1.8-1-4.3-0.2-5.2,1.6c-0.9,1.8-0.1,4.1,1.7,5
			c1.8,1,4.2,0.2,5.2-1.6C581.8,544.7,581,542.4,579.2,541.4z M570.3,551.7c1.1-1.9,0.4-4.2-1.5-5.2c-1.8-1-4-0.4-5.1,1.4
			c-1.1,1.8-0.4,4.1,1.5,5.2C567,554,569.3,553.4,570.3,551.7z M539.3,533.3c1-1.8,0.3-4.2-1.6-5.2c-1.8-0.9-4-0.3-5,1.5
			c-1,1.8-0.3,4.2,1.6,5.2C536,535.7,538.4,535,539.3,533.3z M557.5,545c1.9,1.1,4.1,0.5,5.2-1.5c1-1.8,0.4-4-1.4-5
			c-1.8-1.1-4-0.5-5.1,1.3C555.1,541.6,555.7,544,557.5,545z M615.1,509.7c0-0.5-0.8-1.4-1.2-1.8c-3.7-4.2-8.9-7.5-13.8-10.3
			c-8.4-4.8-16.8-9.5-25.4-14c-8-4.2-16-8.8-24.5-11.5c-1.2-0.4-6.1-2.4-7-1.9c-2.6,1.4,7.1,7.1,8.2,7.8
			c16.7,11.4,34.6,21.5,53.3,29.2C605.7,507.6,614.9,511.8,615.1,509.7C615.1,509.7,615.1,509.7,615.1,509.7z"/>
		<path class="st6" d="M81.7,78.5c1.8,1.6,3.5,3.3,5,5.1c2.3,2.8,2.3,3.8,0.4,6.8c-0.2,0.4-0.5,0.8-0.7,1.1
			c-0.2,0.4-0.5,0.7-0.7,1.1c0.2-0.2,0.4-0.4,0.6-0.6c0.2-0.2,0.4-0.3,0.7-0.4c0.7-0.4,1.4-0.7,2.1-0.8c0.8-0.2,1.5-0.1,2.3-0.2
			c1.6-0.1,3.3,0.4,4.8,1.1c2,1,3.6,2.7,4.5,4.7c1.7,3.7,0.8,8.7-2.3,11.8c-1.8,1.9-4,2.9-6.6,3.2c-5.6,0.7-11.1,0.6-16.6-1
			c-1.4-0.4-2.2-0.2-3,1c-5.2,6.6-10.7,13-17.3,18.3c-0.4,0.3-0.6,1.3-0.6,1.9c0.9,5.9-1.6,9.5-7.5,10.4c-5.5,0.9-10.7-0.3-15.9-1.9
			c-13.8-4.3-26.2-11.2-36.6-21.3c-2.7-2.6-5-5.7-6.8-8.9c-3-5.5-1.3-10.7,4.6-12.7c0.5-0.2,1-0.9,1.1-1.4
			c1.6-13.9,6.7-26.8,12-39.6c1.3-3.2,2.9-6.2,4.1-9.4c0.7-1.9,2-2.7,3.9-2.5c9.1,0.9,17.4,5.9,25.6,9.8c8.7,4.1,17.4,8.2,25.7,13
			C70.4,70.3,76.5,74,81.7,78.5z M44.9,109c-2.9,1.3-4.9,1-7.1-0.9c-1.1-1-2.2-1.5-3.3-0.3c-1.2,1.3-0.4,2.5,0.6,3.5
			c3,2.9,7.6,3.7,11.4,1.7c7.7-4.1,13.2-10,15.6-18.6c0.8-3,0.1-5.7-2.3-7.6c-2-1.6-4.3-3-6.6-4.1c-2.5-1.3-5.2-1.1-7.4,0.7
			c-1.1,0.9-2,2.2-2.8,3.4c-4.1,6.4-9.6,9.7-17.4,7.5c-1.2-0.4-2.4,0-2.7,1.3c-0.4,1.4,0.4,2.3,1.7,2.7c5.9,1.7,11.3,1,16.2-2.8
			c2.2-1.7,3.5-1.9,5.7-0.2c1.1,0.8,1.9,2,2.6,3.2c0.7,1.3,1.5,1.9,2.9,1.4c1.4-0.5,1.6-1.7,1-2.8c-0.8-1.6-1.8-3.2-3.1-4.4
			c-1.1-1-2.7-1.6-4.1-2.4c0.5-0.8,0.9-1.4,1.2-1.9c1.5-2.4,2.8-2.8,5.4-1.5c1.4,0.7,2.7,1.5,3.9,2.4c2.1,1.6,2.4,2.5,1.6,5
			c-1.2,3.8-3.3,7.1-6.1,9.9c-2.3,2.3-4,2.4-6.3,0.1c-0.9-0.9-1.5-2.1-1.8-3.3c-0.4-1.4-1.1-2.4-2.7-2c-1.5,0.4-1.6,1.6-1.4,2.9
			C40,105,41.8,107.3,44.9,109z M18.8,77.2c2.3-3.6,4.7-5.1,7.6-4.3c2.9,0.8,5.5,3.5,5.8,6.1c0.3,2.5-1.6,6-4.2,7.2
			c-0.9,0.4-2.4,0.3-3.1-0.2c-0.6-0.4-0.7-2-0.4-2.8c0.5-1.3,1.8-2.2,2.4-3.4c0.4-0.8,0.6-2.1,0.2-2.8c-0.7-1.1-2.1-1.1-2.9-0.1
			c-1.3,1.5-2.7,3-3.6,4.8c-1.2,2.4-0.9,5,1,7.1c1.8,2,4.3,2.8,6.8,1.9c4.3-1.5,6.9-4.8,7.8-9.3c0.8-3.9-0.7-7.1-3.6-9.7
			c-4.8-4.3-11.2-4.3-14.9,0.1c-2.9,3.5-4.5,7.7-4.7,12.4c-0.1,1.4,0.4,2.4,1.9,2.5c1.5,0.1,2-0.9,2.2-2.3
			C17.6,82.1,18.2,79.7,18.8,77.2z M-7,102.4c-1.9,0.6-2.3,2.2-1.5,3.8c1.3,2.5,2.7,5.2,4.7,7.2c11.5,11.8,25.5,19.4,41.5,23
			c2.8,0.6,5.9,0.5,8.8,0.3c2.4-0.2,3-1.4,2.7-3.2c-2.7,0.1-5.4,0.5-8,0.2c-10.4-1-20-4.3-28.6-10.1C4.5,118.2-3,112-7,102.4z
			 M76.7,105.4c0,0.1-0.1,0.1-0.1,0.1c0.5,0.3,0.9,0.4,1.4,0.5c2.3,0.5,4.7,0.9,7.1,0.9c2.4,0.1,4.8-0.2,7.1-0.7
			c1.5-0.4,3-1.8,3.9-3.2c1.4-2.2,0.6-5.3-1.4-6.7c-2.1-1.5-4.8-1.2-6.6,1.1c-0.9,1.1-1.3,2.7-1.6,4.2c-0.4,1.5-1.1,2.3-2.6,2.2
			c-0.9,0-2-0.5-2.4-1.4c-0.3-0.6-0.3-1.3-0.2-2c0.1-0.9,0.3-1.7,0.7-2.5c-0.3,0.4-0.6,0.8-1,1.3c-0.9,1.2-1.7,2.4-2.6,3.6
			C78.3,103.1,77,105,76.7,105.4z M6.6,99.7c0.9-1.7,0.2-4.1-1.5-5.1c-1.8-1-4.3-0.3-5.3,1.5c-1,1.8-0.2,4.2,1.7,5.2
			C3.4,102.1,5.6,101.4,6.6,99.7z M17.1,109.8c1.8,1,4.3,0.3,5.2-1.5c0.9-1.8,0.2-4.1-1.5-5.1c-1.9-1-4.2-0.3-5.2,1.5
			C14.6,106.5,15.3,108.8,17.1,109.8z M17.4,113.6c-1.7-1-4.1-0.4-5.1,1.3c-1.1,1.8-0.5,4.2,1.3,5.3c1.7,1,4.1,0.4,5.1-1.4
			C19.9,117,19.3,114.7,17.4,113.6z M49.3,117.9c-1.8-1-4.3-0.2-5.2,1.6c-0.9,1.8-0.1,4.1,1.7,5c1.8,1,4.2,0.2,5.2-1.6
			C51.9,121.2,51.1,118.8,49.3,117.9z M40.4,128.1c1.1-1.9,0.4-4.2-1.5-5.2c-1.8-1-4-0.4-5.1,1.4c-1.1,1.8-0.4,4.1,1.5,5.2
			C37.1,130.5,39.4,129.9,40.4,128.1z M9.4,109.8c1-1.8,0.3-4.2-1.6-5.2c-1.8-0.9-4-0.3-5,1.5c-1,1.8-0.3,4.2,1.6,5.2
			C6.1,112.2,8.5,111.5,9.4,109.8z M27.6,121.5c1.9,1.1,4.1,0.5,5.2-1.5c1-1.8,0.4-4-1.4-5c-1.8-1.1-4-0.5-5.1,1.3
			C25.2,118.1,25.8,120.4,27.6,121.5z M85.2,86.1c0-0.5-0.8-1.4-1.2-1.8c-3.7-4.2-8.9-7.5-13.8-10.3c-8.4-4.8-16.8-9.5-25.4-14
			c-8-4.2-16-8.8-24.5-11.5c-1.2-0.4-6.1-2.4-7-1.9c-2.6,1.4,7.1,7.1,8.2,7.8c16.7,11.4,34.6,21.5,53.3,29.2
			C75.8,84.1,85,88.2,85.2,86.1C85.2,86.1,85.2,86.1,85.2,86.1z"/>
		<path class="st6" d="M544.8,210c2.4-0.1,4.7-0.1,7.1,0.1c3.6,0.3,4.3,1,5.1,4.5c0.1,0.4,0.2,0.9,0.3,1.3c0.1,0.4,0.2,0.9,0.3,1.3
			c0-0.3,0-0.6,0-0.9c0-0.2,0.1-0.5,0.2-0.7c0.2-0.7,0.5-1.4,0.9-2.1c0.4-0.7,0.9-1.2,1.5-1.7c1.1-1.2,2.6-2.1,4.1-2.6
			c2.1-0.8,4.4-0.6,6.5,0.1c3.8,1.3,6.7,5.6,6.7,9.9c0,2.6-0.8,4.9-2.4,6.9c-3.5,4.4-7.4,8.3-12.4,11c-1.2,0.7-1.6,1.4-1.5,2.8
			c1,8.4,1.6,16.7,0.7,25.1c-0.1,0.5,0.4,1.4,0.9,1.7c4.8,3.5,5.6,7.8,2.1,12.7c-3.2,4.5-7.8,7.4-12.6,9.9
			c-12.8,6.7-26.4,10.6-40.9,10.9c-3.7,0.1-7.5-0.5-11.1-1.5c-6-1.7-8.5-6.6-5.7-12.2c0.2-0.4,0.1-1.3-0.2-1.7
			c-8.7-11-14.2-23.7-19.6-36.5c-1.3-3.2-2.4-6.4-3.8-9.6c-0.8-1.9-0.5-3.3,1-4.5c7.1-5.8,16.5-8.1,25-11.2c9-3.2,18.1-6.5,27.4-9
			C531.1,212.1,537.9,210.4,544.8,210z M540.4,257.5c-1.1,3-2.7,4.2-5.7,4.4c-1.5,0.1-2.6,0.6-2.6,2.2c0,1.8,1.5,2,2.9,2
			c4.1-0.1,8-2.7,9.3-6.8c2.6-8.3,2.2-16.5-2.2-24.2c-1.5-2.7-4-4.1-7-3.7c-2.6,0.3-5.1,1-7.6,1.8c-2.7,0.9-4.4,2.9-4.8,5.7
			c-0.2,1.4,0.1,2.9,0.4,4.4c1.6,7.5,0.1,13.6-7,17.6c-1.1,0.6-1.7,1.6-1,2.9c0.7,1.3,1.9,1.4,3.1,0.7c5.4-2.9,8.7-7.3,9.5-13.4
			c0.4-2.7,1.1-3.8,3.9-4.2c1.3-0.2,2.8,0.1,4.1,0.4c1.4,0.4,2.4,0.3,3-1.1c0.6-1.3-0.1-2.4-1.3-2.7c-1.7-0.5-3.5-1-5.3-0.9
			c-1.5,0-3,0.8-4.6,1.3c-0.2-0.9-0.4-1.6-0.5-2.2c-0.6-2.8,0-4,2.7-4.9c1.5-0.5,3-0.8,4.5-1.1c2.6-0.4,3.4,0.1,4.7,2.5
			c1.8,3.5,2.7,7.3,2.7,11.3c0,3.2-1.2,4.5-4.4,4.5c-1.2,0-2.5-0.5-3.6-1c-1.3-0.7-2.4-0.9-3.3,0.5c-0.8,1.3-0.1,2.3,1.1,3
			C534.1,258.1,537,258.5,540.4,257.5z M499.4,253.5c-0.9-4.1-0.2-6.9,2.4-8.4c2.6-1.5,6.4-1.4,8.4,0.2c2,1.6,3.1,5.4,2.1,8.1
			c-0.3,0.9-1.4,1.9-2.3,2c-0.7,0.1-1.9-0.9-2.3-1.8c-0.5-1.3-0.3-2.8-0.7-4.1c-0.3-0.8-1.1-1.9-1.9-2.1c-1.3-0.3-2.2,0.7-2.2,2
			c0.1,2,0.2,4.1,0.9,5.9c0.9,2.6,2.9,4.2,5.7,4.3c2.7,0.1,5-1.1,6.1-3.5c2-4.1,1.5-8.3-1-12.1c-2.2-3.3-5.6-4.5-9.4-4.3
			c-6.4,0.4-11,4.9-10.5,10.6c0.4,4.6,2.3,8.7,5.4,12.1c0.9,1,2,1.4,3.2,0.4c1.1-1,0.8-2,0-3.2C502,257.8,500.8,255.7,499.4,253.5z
			 M499,289.5c-0.9,1.8-0.1,3.2,1.6,3.7c2.7,0.8,5.6,1.7,8.4,1.7c16.5,0.2,31.7-4.3,45.6-13.1c2.4-1.6,4.5-3.8,6.4-6
			c1.5-1.8,1.1-3.1-0.3-4.1c-1.8,2-3.5,4.1-5.5,5.8c-8,6.6-17.2,11.1-27.3,13.1C518.3,292.6,508.6,293.5,499,289.5z M560.3,232.5
			c0,0.1,0,0.1,0,0.1c0.5-0.1,0.9-0.3,1.4-0.6c2-1.3,3.9-2.7,5.7-4.4c1.7-1.6,3.3-3.5,4.5-5.5c0.8-1.3,0.8-3.4,0.5-5
			c-0.5-2.5-3.3-4.2-5.7-3.7c-2.5,0.4-4.2,2.6-3.9,5.5c0.2,1.4,1,2.8,1.8,4.1c0.8,1.3,0.8,2.4-0.3,3.4c-0.7,0.6-1.8,1.1-2.7,0.7
			c-0.6-0.2-1.1-0.7-1.6-1.3c-0.5-0.7-1-1.4-1.3-2.2c0,0.5,0.1,1.1,0.2,1.6c0.2,1.5,0.5,2.9,0.7,4.4
			C559.9,229.7,560.2,231.9,560.3,232.5z M506.7,278c-0.6-1.9-2.8-3.1-4.6-2.6c-2,0.6-3.3,2.8-2.7,4.8c0.6,2,2.8,3.1,4.8,2.5
			C506.1,282,507.3,279.9,506.7,278z M521.3,277.7c2-0.6,3.2-2.8,2.6-4.8c-0.6-1.9-2.8-3.1-4.7-2.5c-2,0.6-3.2,2.8-2.6,4.8
			C517.2,277.1,519.3,278.3,521.3,277.7z M524.2,280.2c-1.9,0.5-3.2,2.6-2.7,4.6c0.5,2,2.7,3.3,4.7,2.8c1.9-0.5,3.1-2.6,2.7-4.6
			C528.4,280.9,526.3,279.6,524.2,280.2z M549.8,260.7c-2,0.6-3.2,2.9-2.5,4.8c0.6,1.9,2.8,3,4.7,2.4c2-0.6,3.2-2.8,2.5-4.8
			C553.9,261.2,551.7,260.1,549.8,260.7z M550.7,274.2c-0.6-2.1-2.7-3.2-4.7-2.6c-2,0.6-3.1,2.6-2.6,4.6c0.5,2,2.6,3.2,4.7,2.6
			C550.1,278.2,551.2,276.2,550.7,274.2z M515.8,283.1c-0.6-2-2.8-3.2-4.8-2.5c-1.9,0.6-3.1,2.7-2.5,4.6c0.6,2,2.8,3.2,4.8,2.6
			C515.2,287.2,516.4,285,515.8,283.1z M537,278.6c2.1-0.6,3.2-2.6,2.6-4.7c-0.6-2-2.5-3.1-4.5-2.6c-2,0.6-3.2,2.4-2.7,4.5
			C532.9,277.9,534.9,279.1,537,278.6z M552.7,212.8c-0.4-0.4-1.6-0.4-2.1-0.4c-5.6-0.3-11.5,1-17,2.5c-9.3,2.5-18.6,5.2-27.9,8.1
			c-8.6,2.7-17.5,5.1-25.5,9.2c-1.1,0.6-6,2.6-6.3,3.6c-0.9,2.8,10,0,11.3-0.3c19.9-3.7,39.7-9.3,58.4-17.1
			C544.6,218,554,214.4,552.7,212.8C552.7,212.8,552.7,212.8,552.7,212.8z"/>
		<path class="st6" d="M537.5,8.4c1.8,1.6,3.5,3.3,5,5.1c2.3,2.8,2.3,3.8,0.4,6.8c-0.2,0.4-0.5,0.8-0.8,1.1
			c-0.2,0.4-0.5,0.7-0.7,1.1c0.2-0.2,0.4-0.4,0.6-0.6c0.2-0.2,0.4-0.3,0.7-0.4c0.7-0.4,1.4-0.7,2.1-0.8c0.8-0.2,1.5-0.1,2.3-0.2
			c1.6-0.1,3.3,0.4,4.8,1.1c2,1,3.6,2.7,4.5,4.7c1.7,3.7,0.8,8.7-2.3,11.8c-1.8,1.9-4,2.9-6.6,3.2c-5.6,0.7-11.1,0.6-16.6-1
			c-1.4-0.4-2.2-0.2-3,1c-5.2,6.6-10.7,13-17.3,18.3c-0.4,0.3-0.6,1.3-0.6,1.9c0.9,5.9-1.6,9.5-7.5,10.4c-5.5,0.9-10.7-0.3-15.9-1.9
			c-13.8-4.3-26.2-11.2-36.6-21.3c-2.7-2.6-5-5.7-6.8-8.9c-3-5.5-1.3-10.7,4.6-12.7c0.5-0.2,1-0.9,1.1-1.4
			c1.6-13.9,6.7-26.8,12-39.6c1.3-3.2,2.9-6.2,4.1-9.4c0.7-1.9,2-2.7,3.9-2.5c9.1,0.9,17.4,5.9,25.6,9.8c8.7,4.1,17.4,8.2,25.7,13
			C526.3,0.2,532.4,3.8,537.5,8.4z M500.8,38.8c-2.9,1.3-4.9,1-7.1-0.9c-1.1-1-2.2-1.5-3.3-0.3c-1.2,1.3-0.4,2.5,0.6,3.5
			c3,2.9,7.6,3.7,11.4,1.7c7.7-4.1,13.2-10,15.6-18.6c0.8-3,0.1-5.7-2.3-7.6c-2-1.6-4.3-3-6.6-4.1c-2.5-1.3-5.2-1.1-7.4,0.7
			c-1.1,0.9-2,2.2-2.8,3.4c-4.1,6.4-9.6,9.7-17.4,7.5c-1.2-0.4-2.4,0-2.7,1.3c-0.4,1.4,0.4,2.3,1.7,2.7c5.9,1.7,11.3,1,16.2-2.8
			c2.2-1.7,3.5-1.9,5.7-0.2c1.1,0.8,1.9,2,2.6,3.2c0.7,1.3,1.5,1.9,2.9,1.4c1.4-0.5,1.6-1.7,1-2.8c-0.8-1.6-1.8-3.2-3.1-4.4
			c-1.1-1-2.7-1.6-4.1-2.4c0.5-0.8,0.9-1.4,1.2-1.9c1.5-2.4,2.8-2.8,5.4-1.5c1.4,0.7,2.7,1.5,3.9,2.4c2.1,1.6,2.4,2.5,1.6,5
			c-1.2,3.8-3.3,7.1-6.1,9.9c-2.3,2.3-4,2.4-6.3,0.1c-0.9-0.9-1.5-2.1-1.8-3.3c-0.4-1.4-1.1-2.4-2.7-2c-1.5,0.4-1.6,1.6-1.4,2.9
			C495.9,34.9,497.7,37.2,500.8,38.8z M474.6,7.1c2.3-3.6,4.7-5.1,7.6-4.3c2.9,0.8,5.5,3.5,5.8,6.1c0.3,2.5-1.6,6-4.2,7.2
			c-0.9,0.4-2.4,0.3-3.1-0.2c-0.6-0.4-0.7-2-0.4-2.8c0.5-1.3,1.8-2.2,2.4-3.4c0.4-0.8,0.6-2.1,0.2-2.8c-0.7-1.1-2.1-1.1-2.9-0.1
			c-1.3,1.5-2.7,3-3.6,4.8c-1.2,2.4-0.9,5,1,7.1c1.8,2,4.3,2.8,6.8,1.9c4.3-1.5,6.9-4.8,7.8-9.3c0.8-3.9-0.7-7.1-3.6-9.7
			c-4.8-4.3-11.2-4.3-14.9,0.1c-2.9,3.5-4.5,7.7-4.7,12.4c-0.1,1.4,0.4,2.4,1.9,2.5c1.5,0.1,2-0.9,2.2-2.3
			C473.4,12,474.1,9.5,474.6,7.1z M448.9,32.2c-1.9,0.6-2.3,2.2-1.5,3.8c1.3,2.5,2.7,5.2,4.7,7.2c11.5,11.8,25.5,19.4,41.5,23
			c2.8,0.6,5.9,0.5,8.8,0.3c2.4-0.2,3-1.4,2.7-3.2c-2.7,0.1-5.4,0.5-8,0.2c-10.4-1-20-4.3-28.6-10.1C460.4,48,452.9,41.8,448.9,32.2
			z M532.6,35.3c0,0.1-0.1,0.1-0.1,0.1c0.5,0.3,0.9,0.4,1.4,0.5c2.3,0.5,4.7,0.9,7.1,0.9c2.4,0.1,4.8-0.2,7.1-0.7
			c1.5-0.4,3-1.8,3.9-3.2c1.4-2.2,0.6-5.3-1.4-6.7c-2.1-1.5-4.8-1.2-6.6,1.1c-0.9,1.1-1.3,2.7-1.6,4.2c-0.4,1.5-1.1,2.3-2.6,2.2
			c-0.9,0-2-0.5-2.4-1.4c-0.3-0.6-0.3-1.3-0.2-2c0.1-0.9,0.3-1.7,0.7-2.5c-0.3,0.4-0.6,0.8-1,1.3c-0.9,1.2-1.7,2.4-2.6,3.6
			C534.2,33,532.9,34.8,532.6,35.3z M462.5,29.5c0.9-1.7,0.2-4.1-1.5-5.1c-1.8-1-4.3-0.3-5.3,1.5c-1,1.8-0.2,4.2,1.7,5.2
			C459.3,32,461.5,31.3,462.5,29.5z M473,39.6c1.8,1,4.3,0.3,5.2-1.5c0.9-1.8,0.2-4.1-1.5-5.1c-1.9-1-4.2-0.3-5.2,1.5
			C470.5,36.3,471.2,38.6,473,39.6z M473.3,43.4c-1.7-1-4.1-0.4-5.1,1.3c-1.1,1.8-0.5,4.2,1.3,5.3c1.7,1,4.1,0.4,5.1-1.4
			C475.8,46.9,475.1,44.5,473.3,43.4z M505.2,47.7c-1.8-1-4.3-0.2-5.2,1.6c-0.9,1.8-0.1,4.1,1.7,5c1.8,1,4.2,0.2,5.2-1.6
			C507.7,51,507,48.7,505.2,47.7z M496.2,58c1.1-1.9,0.4-4.2-1.5-5.2c-1.8-1-4-0.4-5.1,1.4c-1.1,1.8-0.4,4.1,1.5,5.2
			C493,60.3,495.3,59.7,496.2,58z M465.3,39.6c1-1.8,0.3-4.2-1.6-5.2c-1.8-0.9-4-0.3-5,1.5c-1,1.8-0.3,4.2,1.6,5.2
			C462,42,464.4,41.3,465.3,39.6z M483.5,51.3c1.9,1.1,4.1,0.5,5.2-1.5c1-1.8,0.4-4-1.4-5c-1.8-1.1-4-0.5-5.1,1.3
			C481.1,47.9,481.6,50.3,483.5,51.3z M541.1,15.9c0-0.5-0.8-1.4-1.2-1.8c-3.7-4.2-8.9-7.5-13.8-10.3c-8.4-4.8-16.8-9.5-25.4-14
			c-8-4.2-16-8.8-24.5-11.5c-1.2-0.4-6.1-2.4-7-1.9c-2.6,1.4,7.1,7.1,8.2,7.8C494.1-4.3,512,5.8,530.7,13.5
			C531.7,13.9,540.9,18.1,541.1,15.9C541.1,16,541.1,16,541.1,15.9z"/>
		<path class="st6" d="M395.5,423.7c1.8,1.6,3.5,3.3,5,5.1c2.3,2.8,2.3,3.8,0.4,6.8c-0.2,0.4-0.5,0.8-0.7,1.1
			c-0.2,0.4-0.5,0.7-0.7,1.1c0.2-0.2,0.4-0.4,0.6-0.6c0.2-0.2,0.4-0.3,0.7-0.4c0.7-0.4,1.4-0.7,2.1-0.8c0.8-0.2,1.5-0.1,2.3-0.2
			c1.6-0.1,3.3,0.4,4.8,1.1c2,1,3.6,2.7,4.5,4.7c1.7,3.7,0.8,8.7-2.3,11.8c-1.8,1.9-4,2.9-6.6,3.2c-5.6,0.7-11.1,0.6-16.6-1
			c-1.4-0.4-2.2-0.2-3,1c-5.2,6.6-10.7,13-17.3,18.3c-0.4,0.3-0.6,1.3-0.6,1.9c0.9,5.9-1.6,9.5-7.5,10.4c-5.5,0.9-10.7-0.3-15.9-1.9
			c-13.8-4.3-26.2-11.2-36.6-21.3c-2.7-2.6-5-5.7-6.8-8.9c-3-5.5-1.3-10.7,4.6-12.7c0.5-0.2,1-0.9,1.1-1.4
			c1.6-13.9,6.7-26.8,12-39.6c1.3-3.2,2.9-6.2,4.1-9.4c0.7-1.9,2-2.7,3.9-2.5c9.1,0.9,17.4,5.9,25.6,9.8c8.7,4.1,17.4,8.2,25.7,13
			C384.3,415.5,390.4,419.1,395.5,423.7z M358.8,454.2c-2.9,1.3-4.9,1-7.1-0.9c-1.1-1-2.2-1.5-3.3-0.3c-1.2,1.3-0.4,2.5,0.6,3.5
			c3,2.9,7.6,3.7,11.4,1.7c7.7-4.1,13.2-10,15.6-18.6c0.8-3,0.1-5.7-2.3-7.6c-2-1.6-4.3-3-6.6-4.1c-2.5-1.3-5.2-1.1-7.4,0.7
			c-1.1,0.9-2,2.2-2.8,3.4c-4.1,6.4-9.6,9.7-17.4,7.5c-1.2-0.4-2.4,0-2.7,1.3c-0.4,1.4,0.4,2.3,1.7,2.7c5.9,1.7,11.3,1,16.2-2.8
			c2.2-1.7,3.5-1.9,5.7-0.2c1.1,0.8,1.9,2,2.6,3.2c0.7,1.3,1.5,1.9,2.9,1.4c1.4-0.5,1.6-1.7,1-2.8c-0.8-1.6-1.8-3.2-3.1-4.4
			c-1.1-1-2.7-1.6-4.1-2.4c0.5-0.8,0.9-1.4,1.2-1.9c1.5-2.4,2.8-2.8,5.4-1.5c1.4,0.7,2.7,1.5,3.9,2.4c2.1,1.6,2.4,2.5,1.6,5
			c-1.2,3.8-3.3,7.1-6.1,9.9c-2.3,2.3-4,2.4-6.3,0.1c-0.9-0.9-1.5-2.1-1.8-3.3c-0.4-1.4-1.1-2.4-2.7-2c-1.5,0.4-1.6,1.6-1.4,2.9
			C353.9,450.2,355.7,452.5,358.8,454.2z M332.6,422.4c2.3-3.6,4.7-5.1,7.6-4.3c2.9,0.8,5.5,3.5,5.8,6.1c0.3,2.5-1.6,6-4.2,7.2
			c-0.9,0.4-2.4,0.3-3.1-0.2c-0.6-0.4-0.7-2-0.4-2.8c0.5-1.3,1.8-2.2,2.4-3.4c0.4-0.8,0.6-2.1,0.2-2.8c-0.7-1.1-2.1-1.1-2.9-0.1
			c-1.3,1.5-2.7,3-3.6,4.8c-1.2,2.4-0.9,5,1,7.1c1.8,2,4.3,2.8,6.8,1.9c4.3-1.5,6.9-4.8,7.8-9.3c0.8-3.9-0.7-7.1-3.6-9.7
			c-4.8-4.3-11.2-4.3-14.9,0.1c-2.9,3.5-4.5,7.7-4.7,12.4c-0.1,1.4,0.4,2.4,1.9,2.5c1.5,0.1,2-0.9,2.2-2.3
			C331.4,427.3,332.1,424.9,332.6,422.4z M306.9,447.6c-1.9,0.6-2.3,2.2-1.5,3.8c1.3,2.5,2.7,5.2,4.7,7.2
			c11.5,11.8,25.5,19.4,41.5,23c2.8,0.6,5.9,0.5,8.8,0.3c2.4-0.2,3-1.4,2.7-3.2c-2.7,0.1-5.4,0.5-8,0.2c-10.4-1-20-4.3-28.6-10.1
			C318.4,463.4,310.9,457.1,306.9,447.6z M390.6,450.6c0,0.1-0.1,0.1-0.1,0.1c0.5,0.3,0.9,0.4,1.4,0.5c2.3,0.5,4.7,0.9,7.1,0.9
			c2.4,0.1,4.8-0.2,7.1-0.7c1.5-0.4,3-1.8,3.9-3.2c1.4-2.2,0.6-5.3-1.4-6.7c-2.1-1.5-4.8-1.2-6.6,1.1c-0.9,1.1-1.3,2.7-1.6,4.2
			c-0.4,1.5-1.1,2.3-2.6,2.2c-0.9,0-2-0.5-2.4-1.4c-0.3-0.6-0.3-1.3-0.2-2c0.1-0.9,0.3-1.7,0.7-2.5c-0.3,0.4-0.6,0.8-1,1.3
			c-0.9,1.2-1.7,2.4-2.6,3.6C392.2,448.3,390.9,450.1,390.6,450.6z M320.5,444.8c0.9-1.7,0.2-4.1-1.5-5.1c-1.8-1-4.3-0.3-5.3,1.5
			c-1,1.8-0.2,4.2,1.7,5.2C317.2,447.3,319.5,446.6,320.5,444.8z M331,454.9c1.8,1,4.3,0.3,5.2-1.5c0.9-1.8,0.2-4.1-1.5-5.1
			c-1.9-1-4.2-0.3-5.2,1.5C328.5,451.7,329.2,454,331,454.9z M331.3,458.8c-1.7-1-4.1-0.4-5.1,1.3c-1.1,1.8-0.5,4.2,1.3,5.3
			c1.7,1,4.1,0.4,5.1-1.4C333.7,462.2,333.1,459.9,331.3,458.8z M363.2,463.1c-1.8-1-4.3-0.2-5.2,1.6c-0.9,1.8-0.1,4.1,1.7,5
			c1.8,1,4.2,0.2,5.2-1.6C365.7,466.3,365,464,363.2,463.1z M354.2,473.3c1.1-1.9,0.4-4.2-1.5-5.2c-1.8-1-4-0.4-5.1,1.4
			c-1.1,1.8-0.4,4.1,1.5,5.2C351,475.7,353.2,475.1,354.2,473.3z M323.3,455c1-1.8,0.3-4.2-1.6-5.2c-1.8-0.9-4-0.3-5,1.5
			c-1,1.8-0.3,4.2,1.6,5.2C320,457.4,322.4,456.7,323.3,455z M341.5,466.7c1.9,1.1,4.1,0.5,5.2-1.5c1-1.8,0.4-4-1.4-5
			c-1.8-1.1-4-0.5-5.1,1.3C339.1,463.3,339.6,465.6,341.5,466.7z M399.1,431.3c0-0.5-0.8-1.4-1.2-1.8c-3.7-4.2-8.9-7.5-13.8-10.3
			c-8.4-4.8-16.8-9.5-25.4-14c-8-4.2-16-8.8-24.5-11.5c-1.2-0.4-6.1-2.4-7-1.9c-2.6,1.4,7.1,7.1,8.2,7.8
			c16.7,11.4,34.6,21.5,53.3,29.2C389.7,429.3,398.9,433.4,399.1,431.3C399.1,431.3,399.1,431.3,399.1,431.3z"/>
		<path class="st6" d="M238.3,143.7c0.1-17.4,11.8-29,26.4-27.3c6.5,0.8,10.2,4.4,9.9,9.7c-0.4,6.9-5.2,7.5-10.6,7.3
			C254.3,133,245.7,135.5,238.3,143.7z"/>
		<path class="st6" d="M53.5,37.3C66.8,26.1,68.3,9.7,57.7-0.4c-4.8-4.5-9.9-5.1-13.8-1.4C38.8,2.9,41.4,7,45,11
			C51.5,18.2,55.1,26.4,53.5,37.3z"/>
		<path class="st6" d="M227.5,656.8c-12.9-11.8-13.7-28.2-2.7-37.8c4.9-4.3,10.1-4.7,13.8-0.9c4.8,4.9,2.1,8.9-1.7,12.7
			C230.2,637.8,226.3,645.8,227.5,656.8z"/>
		<path class="st6" d="M393,387c9-15,24.9-19,36.6-10.1c5.2,4,6.6,8.9,3.6,13.4c-3.8,5.7-8.3,3.8-12.8,0.9
			C412.2,386,403.6,383.7,393,387z"/>
		<path class="st6" d="M587.8,455.9c5.3-23.5,24.5-35.7,43.7-29c8.6,3,12.5,8.9,10.5,16c-2.6,9.2-9.3,8.6-16.5,6.7
			C612.6,446.2,600.2,447,587.8,455.9z"/>
		<path class="st6" d="M520.4,655.4c-13-20.3-8.3-42.5,9.9-51.5c8.1-4,15.1-2.7,18.8,3.8c4.7,8.3-0.4,12.6-6.8,16.4
			C530.9,631,522.8,640.3,520.4,655.4z"/>
		<path class="st6" d="M197.1,661.4c13-20.3,8.3-42.5-9.9-51.5c-8.1-4-15.1-2.7-18.8,3.8c-4.7,8.3,0.4,12.6,6.8,16.4
			C186.7,636.9,194.7,646.3,197.1,661.4z"/>
		<path class="st6" d="M176.5,439c-15.5-18.5-13.6-41.1,3.3-52.3c7.6-5,14.7-4.6,19.1,1.3c5.7,7.6,1.2,12.6-4.7,17.2
			C183.7,413.4,176.9,423.7,176.5,439z"/>
		<path class="st6" d="M375.5,368.8c22.4-8.9,31.5-29.7,22-47.6c-4.3-8-10.7-11-17.5-7.9c-8.7,4-7.1,10.5-4.1,17.3
			C381.3,342.8,382.3,355.1,375.5,368.8z"/>
		<path class="st6" d="M516.2,191.9c21.4-11.1,28.4-32.7,17.1-49.6c-5-7.5-11.8-9.9-18.2-6.2c-8.2,4.8-6,11.1-2.3,17.6
			C519.4,165.4,521.7,177.6,516.2,191.9z"/>
		<path class="st6" d="M203.7,141c3.6-23.8-9.7-42.2-30.1-43c-9.1-0.3-14.9,3.7-15.7,11.1c-0.9,9.5,5.5,11.4,12.9,12.2
			C184.2,122.9,195.4,128.2,203.7,141z"/>
		<path class="st6" d="M-3.9,340.4c-10.7-13.8-8.7-30.1,3.9-37.7c5.6-3.4,10.7-2.9,13.8,1.5c3.9,5.7,0.5,9.1-3.8,12.3
			C2.1,322.1-3.2,329.4-3.9,340.4z"/>
		<path class="st6" d="M523.7,685.9c-1.1-17.4,9.7-29.8,24.4-29.1c6.5,0.3,10.5,3.6,10.6,9c0.1,6.9-4.7,7.9-10.1,8
			C538.9,674.1,530.5,677.2,523.7,685.9z"/>
		<path class="st6" d="M493.4,209.1c4.2-16.9-4.1-31.1-18.7-33c-6.5-0.9-11,1.6-12,6.9c-1.3,6.8,3.2,8.6,8.4,9.7
			C480.6,194.8,488.3,199.3,493.4,209.1z"/>
		<path class="st6" d="M564.7,453.6c11.2-13.3,9.9-29.7-2.3-37.9c-5.5-3.6-10.6-3.3-13.8,0.9c-4.2,5.5-0.9,9.1,3.3,12.4
			C559.5,435,564.4,442.5,564.7,453.6z"/>
		<path class="st6" d="M146.7,452.2c11.2-13.3,9.9-29.7-2.3-37.9c-5.5-3.6-10.6-3.3-13.8,0.9c-4.2,5.5-0.9,9.1,3.3,12.4
			C141.5,433.6,146.4,441.1,146.7,452.2z"/>
		<path class="st6" d="M369,11.2c-4,4.2-8.3,7.2-10.4,11.3c-2,3.9-1.6,9-2.5,15.2c-3.8-5.3-5.9-10.2-9.6-12.9c-3.5-2.6-8.7-3-15-4.9
			c11.2-5.2,13.8-14.2,15.3-24.6c2.8,3.9,5,8.7,8.7,11.4C359.1,9.4,364.2,9.7,369,11.2z"/>
		<path class="st6" d="M613.9,633c-4,4.2-8.3,7.2-10.4,11.3c-2,3.9-1.6,9-2.5,15.2c-3.8-5.3-5.9-10.2-9.6-12.9
			c-3.5-2.6-8.7-3-15-4.9c11.2-5.2,13.8-14.2,15.3-24.6c2.8,3.9,5,8.7,8.7,11.4C603.9,631.1,609,631.5,613.9,633z"/>
		<path class="st6" d="M409.9,602.7c-4,4.2-8.3,7.2-10.4,11.3c-2,3.9-1.6,9-2.5,15.2c-3.8-5.3-5.9-10.2-9.6-12.9
			c-3.5-2.6-8.7-3-15-4.9c11.2-5.2,13.8-14.2,15.3-24.6c2.8,3.9,5,8.7,8.7,11.4C399.9,600.9,405,601.3,409.9,602.7z"/>
		<path class="st6" d="M78.2,207.7c-4,4.2-8.3,7.2-10.4,11.3c-2,3.9-1.6,9-2.5,15.2c-3.8-5.3-5.9-10.2-9.6-12.9
			c-3.5-2.6-8.7-3-15-4.9c11.2-5.2,13.8-14.2,15.3-24.6c2.8,3.9,5,8.7,8.7,11.4C68.3,205.8,73.4,206.2,78.2,207.7z"/>
		<path class="st6" d="M628.2,306.8c-4,4.2-8.3,7.2-10.4,11.3c-2,3.9-1.6,9-2.5,15.2c-3.8-5.3-5.9-10.2-9.6-12.9
			c-3.5-2.6-8.7-3-15-4.9c11.2-5.2,13.8-14.2,15.3-24.6c2.8,3.9,5,8.7,8.7,11.4C618.3,304.9,623.4,305.3,628.2,306.8z"/>
		<path class="st6" d="M133.3,654.2c-4,4.2-8.3,7.2-10.4,11.3c-2,3.9-1.6,9-2.5,15.2c-3.8-5.3-5.9-10.2-9.6-12.9
			c-3.5-2.6-8.7-3-15-4.9c11.2-5.2,13.8-14.2,15.3-24.6c2.8,3.9,5,8.7,8.7,11.4C123.3,652.4,128.4,652.8,133.3,654.2z"/>
		<path class="st6" d="M343.4,67.3c-4,4.2-8.3,7.2-10.4,11.3c-2,3.9-1.6,9-2.5,15.2c-3.8-5.3-5.9-10.2-9.6-12.9
			c-3.5-2.6-8.7-3-15-4.9c11.2-5.2,13.8-14.2,15.3-24.6c2.8,3.9,5,8.7,8.7,11.4C333.4,65.4,338.6,65.8,343.4,67.3z"/>
		<path class="st6" d="M357.8,591.2c-6.8,7.1-14.2,12.3-17.8,19.4c-3.4,6.7-2.8,15.5-4.3,26.1c-6.5-9.1-10.2-17.4-16.5-22.2
			c-6-4.5-14.9-5.1-25.6-8.4c19.2-8.9,23.7-24.3,26.2-42.2c4.9,6.7,8.6,15,14.9,19.6C340.7,588,349.5,588.7,357.8,591.2z"/>
		<path class="st6" d="M362.1,231.7c-4,4.2-8.3,7.2-10.4,11.3c-2,3.9-1.6,9-2.5,15.2c-3.8-5.3-5.9-10.2-9.6-12.9
			c-3.5-2.6-8.7-3-15-4.9c11.2-5.2,13.8-14.2,15.3-24.6c2.8,3.9,5,8.7,8.7,11.4C352.1,229.8,357.3,230.2,362.1,231.7z"/>
		<path class="st6" d="M518.5,429.5c-4,4.2-8.3,7.2-10.4,11.3c-2,3.9-1.6,9-2.5,15.2c-3.8-5.3-5.9-10.2-9.6-12.9
			c-3.5-2.6-8.7-3-15-4.9c11.2-5.2,13.8-14.2,15.3-24.6c2.8,3.9,5,8.7,8.7,11.4C508.5,427.6,513.6,428,518.5,429.5z"/>
		<path class="st6" d="M492,470.7c-4,4.2-8.3,7.2-10.4,11.3c-2,3.9-1.6,9-2.5,15.2c-3.8-5.3-5.9-10.2-9.6-12.9
			c-3.5-2.6-8.7-3-15-4.9c11.2-5.2,13.8-14.2,15.3-24.6c2.8,3.9,5,8.7,8.7,11.4C482,468.8,487.1,469.2,492,470.7z"/>
		<path class="st6" d="M611,82.4c-4,4.2-8.3,7.2-10.4,11.3c-2,3.9-1.6,9-2.5,15.2c-3.8-5.3-5.9-10.2-9.6-12.9c-3.5-2.6-8.7-3-15-4.9
			c11.2-5.2,13.8-14.2,15.3-24.6c2.8,3.9,5,8.7,8.7,11.4C601,80.5,606.1,80.9,611,82.4z"/>
		<path class="st6" d="M123.5,249.2c-4,4.2-8.3,7.2-10.4,11.3c-2,3.9-1.6,9-2.5,15.2c-3.8-5.3-5.9-10.2-9.6-12.9
			c-3.5-2.6-8.7-3-15-4.9c11.2-5.2,13.8-14.2,15.3-24.6c2.8,3.9,5,8.7,8.7,11.4C113.5,247.3,118.6,247.7,123.5,249.2z"/>
		<path class="st6" d="M151.8,45.5c-4,4.2-8.3,7.2-10.4,11.3c-2,3.9-1.6,9-2.5,15.2c-3.8-5.3-5.9-10.2-9.6-12.9
			c-3.5-2.6-8.7-3-15-4.9c11.2-5.2,13.8-14.2,15.3-24.6c2.8,3.9,5,8.7,8.7,11.4C141.8,43.7,147,44.1,151.8,45.5z"/>
		<path class="st6" d="M19.3,623.2c-4,4.2-8.3,7.2-10.4,11.3c-2,3.9-1.6,9-2.5,15.2c-3.8-5.3-5.9-10.2-9.6-12.9
			c-3.5-2.6-8.7-3-15-4.9C-7,626.8-4.4,617.8-3,607.3c2.8,3.9,5,8.7,8.7,11.4C9.3,621.4,14.4,621.7,19.3,623.2z"/>
		<path class="st6" d="M422.7,154c-6.8,7.1-14.2,12.3-17.8,19.4c-3.4,6.7-2.8,15.5-4.3,26.1c-6.5-9.1-10.2-17.4-16.5-22.2
			c-6-4.5-14.9-5.1-25.6-8.4c19.2-8.9,23.7-24.3,26.2-42.2c4.9,6.7,8.6,15,14.9,19.6C405.5,150.8,414.3,151.5,422.7,154z"/>
		<path class="st6" d="M670,9.2c-6.8,7.1-14.2,12.3-17.8,19.4c-3.4,6.7-2.8,15.5-4.3,26.1c-6.5-9.1-10.2-17.4-16.5-22.2
			c-6-4.5-14.9-5.1-25.6-8.4c19.2-8.9,23.7-24.3,26.2-42.2c4.9,6.7,8.6,15,14.9,19.6C652.9,6,661.7,6.6,670,9.2z"/>
		<path class="st6" d="M250,657.1c2.4-0.1,4.7-0.1,7.1,0.1c3.6,0.3,4.3,1,5.1,4.5c0.1,0.4,0.2,0.9,0.3,1.3c0.1,0.4,0.2,0.9,0.3,1.3
			c0-0.3,0-0.6,0-0.9c0-0.2,0.1-0.5,0.2-0.7c0.2-0.7,0.5-1.4,0.9-2.1c0.4-0.7,0.9-1.2,1.5-1.7c1.1-1.2,2.6-2.1,4.1-2.6
			c2.1-0.8,4.4-0.6,6.5,0.1c3.8,1.3,6.7,5.6,6.7,9.9c0,2.6-0.8,4.9-2.4,6.9c-3.5,4.4-7.4,8.3-12.4,11c-1.2,0.7-1.6,1.4-1.5,2.8
			c1,8.4,1.6,16.7,0.7,25.1c-0.1,0.5,0.4,1.4,0.9,1.7c4.8,3.5,5.6,7.8,2.1,12.7c-3.2,4.5-7.8,7.4-12.6,9.9
			c-12.8,6.7-26.4,10.6-40.9,10.9c-3.7,0.1-7.5-0.5-11.1-1.5c-6-1.7-8.5-6.6-5.7-12.2c0.2-0.4,0.1-1.3-0.2-1.7
			c-8.7-11-14.2-23.7-19.6-36.5c-1.3-3.2-2.4-6.4-3.8-9.6c-0.8-1.9-0.5-3.3,1-4.5c7.1-5.8,16.5-8.1,25-11.2c9-3.2,18.1-6.5,27.4-9
			C236.2,659.3,243.1,657.5,250,657.1z M245.5,704.7c-1.1,3-2.7,4.2-5.7,4.4c-1.5,0.1-2.6,0.6-2.6,2.2c0,1.8,1.5,2,2.9,2
			c4.1-0.1,8-2.7,9.3-6.8c2.6-8.3,2.2-16.5-2.2-24.2c-1.5-2.7-4-4.1-7-3.7c-2.6,0.3-5.1,1-7.6,1.8c-2.7,0.9-4.4,2.9-4.8,5.7
			c-0.2,1.4,0.1,2.9,0.4,4.4c1.6,7.5,0.1,13.6-7,17.6c-1.1,0.6-1.7,1.6-1,2.9c0.7,1.3,1.9,1.4,3.1,0.7c5.4-2.9,8.7-7.3,9.5-13.4
			c0.4-2.7,1.1-3.8,3.9-4.2c1.3-0.2,2.8,0.1,4.1,0.4c1.4,0.4,2.4,0.3,3-1.1c0.6-1.3-0.1-2.4-1.3-2.7c-1.7-0.5-3.5-1-5.3-0.9
			c-1.5,0-3,0.8-4.6,1.3c-0.2-0.9-0.4-1.6-0.5-2.2c-0.6-2.8,0-4,2.7-4.9c1.5-0.5,3-0.8,4.5-1.1c2.6-0.4,3.4,0.1,4.7,2.5
			c1.8,3.5,2.7,7.3,2.7,11.3c0,3.2-1.2,4.5-4.4,4.5c-1.2,0-2.5-0.5-3.6-1c-1.3-0.7-2.4-0.9-3.3,0.5c-0.8,1.3-0.1,2.3,1.1,3
			C239.3,705.3,242.2,705.6,245.5,704.7z M204.6,700.7c-0.9-4.1-0.2-6.9,2.4-8.4c2.6-1.5,6.4-1.4,8.4,0.2c2,1.6,3.1,5.4,2.1,8.1
			c-0.3,0.9-1.4,1.9-2.3,2c-0.7,0.1-1.9-0.9-2.3-1.8c-0.5-1.3-0.3-2.8-0.7-4.1c-0.3-0.8-1.1-1.9-1.9-2.1c-1.3-0.3-2.2,0.7-2.2,2
			c0.1,2,0.2,4.1,0.9,5.9c0.9,2.6,2.9,4.2,5.7,4.3c2.7,0.1,5-1.1,6.1-3.5c2-4.1,1.5-8.3-1-12.1c-2.2-3.3-5.6-4.5-9.4-4.3
			c-6.4,0.4-11,4.9-10.5,10.6c0.4,4.6,2.3,8.7,5.4,12.1c0.9,1,2,1.4,3.2,0.4c1.1-1,0.8-2,0-3.2C207.2,705,205.9,702.8,204.6,700.7z
			 M204.2,736.7c-0.9,1.8-0.1,3.2,1.6,3.7c2.7,0.8,5.6,1.7,8.4,1.7c16.5,0.2,31.7-4.3,45.6-13.1c2.4-1.6,4.5-3.8,6.4-6
			c1.5-1.8,1.1-3.1-0.3-4.1c-1.8,2-3.5,4.1-5.5,5.8c-8,6.6-17.2,11.1-27.3,13.1C223.4,739.7,213.7,740.6,204.2,736.7z M265.5,679.7
			c0,0.1,0,0.1,0,0.1c0.5-0.1,0.9-0.3,1.4-0.6c2-1.3,3.9-2.7,5.7-4.4c1.7-1.6,3.3-3.5,4.5-5.5c0.8-1.3,0.8-3.4,0.5-5
			c-0.5-2.5-3.3-4.2-5.7-3.7c-2.5,0.4-4.2,2.6-3.9,5.5c0.2,1.4,1,2.8,1.8,4.1c0.8,1.3,0.8,2.4-0.3,3.4c-0.7,0.6-1.8,1.1-2.7,0.7
			c-0.6-0.2-1.1-0.7-1.6-1.3c-0.5-0.7-1-1.4-1.3-2.2c0,0.5,0.1,1.1,0.2,1.6c0.2,1.5,0.5,2.9,0.7,4.4
			C265,676.9,265.4,679.1,265.5,679.7z M211.8,725.1c-0.6-1.9-2.8-3.1-4.6-2.6c-2,0.6-3.3,2.8-2.7,4.8c0.6,2,2.8,3.1,4.8,2.5
			C211.3,729.2,212.4,727.1,211.8,725.1z M226.4,724.8c2-0.6,3.2-2.8,2.6-4.8c-0.6-1.9-2.8-3.1-4.7-2.5c-2,0.6-3.2,2.8-2.6,4.8
			C222.4,724.3,224.5,725.4,226.4,724.8z M229.3,727.4c-1.9,0.5-3.2,2.6-2.7,4.6c0.5,2,2.7,3.3,4.7,2.8c1.9-0.5,3.1-2.6,2.7-4.6
			C233.5,728,231.4,726.8,229.3,727.4z M254.9,707.8c-2,0.6-3.2,2.9-2.5,4.8c0.6,1.9,2.8,3,4.7,2.4c2-0.6,3.2-2.8,2.5-4.8
			C259,708.3,256.9,707.2,254.9,707.8z M255.8,721.4c-0.6-2.1-2.7-3.2-4.7-2.6c-2,0.6-3.1,2.6-2.6,4.6c0.5,2,2.6,3.2,4.7,2.6
			C255.2,725.4,256.4,723.3,255.8,721.4z M221,730.3c-0.6-2-2.8-3.2-4.8-2.5c-1.9,0.6-3.1,2.7-2.5,4.6c0.6,2,2.8,3.2,4.8,2.6
			C220.4,734.3,221.5,732.2,221,730.3z M242.1,725.7c2.1-0.6,3.2-2.6,2.6-4.7c-0.6-2-2.5-3.1-4.5-2.6c-2,0.6-3.2,2.4-2.7,4.5
			C238,725,240.1,726.3,242.1,725.7z M257.9,659.9c-0.4-0.4-1.6-0.4-2.1-0.4c-5.6-0.3-11.5,1-17,2.5c-9.3,2.5-18.6,5.2-27.9,8.1
			c-8.6,2.7-17.5,5.1-25.5,9.2c-1.1,0.6-6,2.6-6.3,3.6c-0.9,2.8,10,0,11.3-0.3c19.9-3.7,39.7-9.3,58.4-17.1
			C249.8,665.2,259.2,661.6,257.9,659.9C257.9,660,257.9,659.9,257.9,659.9z"/>
		<path class="st6" d="M537.5,728c1.8,1.6,3.5,3.3,5,5.1c2.3,2.8,2.3,3.8,0.4,6.8c-0.2,0.4-0.5,0.8-0.8,1.1
			c-0.2,0.4-0.5,0.7-0.7,1.1c0.2-0.2,0.4-0.4,0.6-0.6c0.2-0.2,0.4-0.3,0.7-0.4c0.7-0.4,1.4-0.7,2.1-0.8c0.8-0.2,1.5-0.1,2.3-0.2
			c1.6-0.1,3.3,0.4,4.8,1.1c2,1,3.6,2.7,4.5,4.7c1.7,3.7,0.8,8.7-2.3,11.8c-1.8,1.9-4,2.9-6.6,3.2c-5.6,0.7-11.1,0.6-16.6-1
			c-1.4-0.4-2.2-0.2-3,1c-5.2,6.6-10.7,13-17.3,18.3c-0.4,0.3-0.6,1.3-0.6,1.9c0.9,5.9-1.6,9.5-7.5,10.4c-5.5,0.9-10.7-0.3-15.9-1.9
			c-13.8-4.3-26.2-11.2-36.6-21.3c-2.7-2.6-5-5.7-6.8-8.9c-3-5.5-1.3-10.7,4.6-12.7c0.5-0.2,1-0.9,1.1-1.4
			c1.6-13.9,6.7-26.8,12-39.6c1.3-3.2,2.9-6.2,4.1-9.4c0.7-1.9,2-2.7,3.9-2.5c9.1,0.9,17.4,5.9,25.6,9.8c8.7,4.1,17.4,8.2,25.7,13
			C526.3,719.8,532.4,723.4,537.5,728z M500.8,758.4c-2.9,1.3-4.9,1-7.1-0.9c-1.1-1-2.2-1.5-3.3-0.3c-1.2,1.3-0.4,2.5,0.6,3.5
			c3,2.9,7.6,3.7,11.4,1.7c7.7-4.1,13.2-10,15.6-18.6c0.8-3,0.1-5.7-2.3-7.6c-2-1.6-4.3-3-6.6-4.1c-2.5-1.3-5.2-1.1-7.4,0.7
			c-1.1,0.9-2,2.2-2.8,3.4c-4.1,6.4-9.6,9.7-17.4,7.5c-1.2-0.4-2.4,0-2.7,1.3c-0.4,1.4,0.4,2.3,1.7,2.7c5.9,1.7,11.3,1,16.2-2.8
			c2.2-1.7,3.5-1.9,5.7-0.2c1.1,0.8,1.9,2,2.6,3.2c0.7,1.3,1.5,1.9,2.9,1.4c1.4-0.5,1.6-1.7,1-2.8c-0.8-1.6-1.8-3.2-3.1-4.4
			c-1.1-1-2.7-1.6-4.1-2.4c0.5-0.8,0.9-1.4,1.2-1.9c1.5-2.4,2.8-2.8,5.4-1.5c1.4,0.7,2.7,1.5,3.9,2.4c2.1,1.6,2.4,2.5,1.6,5
			c-1.2,3.8-3.3,7.1-6.1,9.9c-2.3,2.3-4,2.4-6.3,0.1c-0.9-0.9-1.5-2.1-1.8-3.3c-0.4-1.4-1.1-2.4-2.7-2c-1.5,0.4-1.6,1.6-1.4,2.9
			C495.9,754.5,497.7,756.8,500.8,758.4z M474.6,726.7c2.3-3.6,4.7-5.1,7.6-4.3c2.9,0.8,5.5,3.5,5.8,6.1c0.3,2.5-1.6,6-4.2,7.2
			c-0.9,0.4-2.4,0.3-3.1-0.2c-0.6-0.4-0.7-2-0.4-2.8c0.5-1.3,1.8-2.2,2.4-3.4c0.4-0.8,0.6-2.1,0.2-2.8c-0.7-1.1-2.1-1.1-2.9-0.1
			c-1.3,1.5-2.7,3-3.6,4.8c-1.2,2.4-0.9,5,1,7.1c1.8,2,4.3,2.8,6.8,1.9c4.3-1.5,6.9-4.8,7.8-9.3c0.8-3.9-0.7-7.1-3.6-9.7
			c-4.8-4.3-11.2-4.3-14.9,0.1c-2.9,3.5-4.5,7.7-4.7,12.4c-0.1,1.4,0.4,2.4,1.9,2.5c1.5,0.1,2-0.9,2.2-2.3
			C473.4,731.6,474.1,729.1,474.6,726.7z M448.9,751.8c-1.9,0.6-2.3,2.2-1.5,3.8c1.3,2.5,2.7,5.2,4.7,7.2
			c11.5,11.8,25.5,19.4,41.5,23c2.8,0.6,5.9,0.5,8.8,0.3c2.4-0.2,3-1.4,2.7-3.2c-2.7,0.1-5.4,0.5-8,0.2c-10.4-1-20-4.3-28.6-10.1
			C460.4,767.6,452.9,761.4,448.9,751.8z M532.6,754.9c0,0.1-0.1,0.1-0.1,0.1c0.5,0.3,0.9,0.4,1.4,0.5c2.3,0.5,4.7,0.9,7.1,0.9
			c2.4,0.1,4.8-0.2,7.1-0.7c1.5-0.4,3-1.8,3.9-3.2c1.4-2.2,0.6-5.3-1.4-6.7c-2.1-1.5-4.8-1.2-6.6,1.1c-0.9,1.1-1.3,2.7-1.6,4.2
			c-0.4,1.5-1.1,2.3-2.6,2.2c-0.9,0-2-0.5-2.4-1.4c-0.3-0.6-0.3-1.3-0.2-2c0.1-0.9,0.3-1.7,0.7-2.5c-0.3,0.4-0.6,0.8-1,1.3
			c-0.9,1.2-1.7,2.4-2.6,3.6C534.2,752.6,532.9,754.4,532.6,754.9z M462.5,749.1c0.9-1.7,0.2-4.1-1.5-5.1c-1.8-1-4.3-0.3-5.3,1.5
			c-1,1.8-0.2,4.2,1.7,5.2C459.3,751.6,461.5,750.9,462.5,749.1z M473,759.2c1.8,1,4.3,0.3,5.2-1.5c0.9-1.8,0.2-4.1-1.5-5.1
			c-1.9-1-4.2-0.3-5.2,1.5C470.5,756,471.2,758.2,473,759.2z M473.3,763.1c-1.7-1-4.1-0.4-5.1,1.3c-1.1,1.8-0.5,4.2,1.3,5.3
			c1.7,1,4.1,0.4,5.1-1.4C475.8,766.5,475.1,764.1,473.3,763.1z M505.2,767.4c-1.8-1-4.3-0.2-5.2,1.6c-0.9,1.8-0.1,4.1,1.7,5
			c1.8,1,4.2,0.2,5.2-1.6C507.7,770.6,507,768.3,505.2,767.4z M496.2,777.6c1.1-1.9,0.4-4.2-1.5-5.2c-1.8-1-4-0.4-5.1,1.4
			c-1.1,1.8-0.4,4.1,1.5,5.2C493,779.9,495.3,779.3,496.2,777.6z M465.3,759.2c1-1.8,0.3-4.2-1.6-5.2c-1.8-0.9-4-0.3-5,1.5
			c-1,1.8-0.3,4.2,1.6,5.2C462,761.7,464.4,761,465.3,759.2z M483.5,771c1.9,1.1,4.1,0.5,5.2-1.5c1-1.8,0.4-4-1.4-5
			c-1.8-1.1-4-0.5-5.1,1.3C481.1,767.6,481.6,769.9,483.5,771z M541.1,735.6c0-0.5-0.8-1.4-1.2-1.8c-3.7-4.2-8.9-7.5-13.8-10.3
			c-8.4-4.8-16.8-9.5-25.4-14c-8-4.2-16-8.8-24.5-11.5c-1.2-0.4-6.1-2.4-7-1.9c-2.6,1.4,7.1,7.1,8.2,7.8
			c16.7,11.4,34.6,21.5,53.3,29.2C531.7,733.5,540.9,737.7,541.1,735.6C541.1,735.6,541.1,735.6,541.1,735.6z"/>
		<path class="st6" d="M53.5,756.9c13.3-11.2,14.8-27.6,4.2-37.7c-4.8-4.5-9.9-5.1-13.8-1.4c-5,4.7-2.4,8.8,1.2,12.8
			C51.5,737.8,55.1,746,53.5,756.9z"/>
		<path class="st6" d="M369,730.8c-4,4.2-8.3,7.2-10.4,11.3c-2,3.9-1.6,9-2.5,15.2c-3.8-5.3-5.9-10.2-9.6-12.9
			c-3.5-2.6-8.7-3-15-4.9c11.2-5.2,13.8-14.2,15.3-24.6c2.8,3.9,5,8.7,8.7,11.4C359.1,729,364.2,729.4,369,730.8z"/>
		<path class="st6" d="M670,728.8c-6.8,7.1-14.2,12.3-17.8,19.4c-3.4,6.7-2.8,15.5-4.3,26.1c-6.5-9.1-10.2-17.4-16.5-22.2
			c-6-4.5-14.9-5.1-25.6-8.4c19.2-8.9,23.7-24.3,26.2-42.2c4.9,6.7,8.6,15,14.9,19.6C652.9,725.6,661.7,726.3,670,728.8z"/>
		<path class="st6" d="M685.1,239.1c-6.8,7.1-14.2,12.3-17.8,19.4c-3.4,6.7-2.8,15.5-4.3,26.1c-6.5-9.1-10.2-17.4-16.5-22.2
			c-6-4.5-14.9-5.1-25.6-8.4c19.2-8.9,23.7-24.3,26.2-42.2c4.9,6.7,8.6,15,14.9,19.6C668,235.9,676.8,236.6,685.1,239.1z"/>
		<path class="st6" d="M25.5,537.4c-6.8,7.1-14.2,12.3-17.8,19.4c-3.4,6.7-2.8,15.5-4.3,26.1c-6.5-9.1-10.2-17.4-16.5-22.2
			c-6-4.5-14.9-5.1-25.6-8.4c19.2-8.9,23.7-24.3,26.2-42.2c4.9,6.7,8.6,15,14.9,19.6C8.4,534.2,17.2,534.8,25.5,537.4z"/>
		<path class="st6" d="M740.1,348.8c2.4-0.1,4.7-0.1,7.1,0.1c3.6,0.3,4.3,1,5.1,4.5c0.1,0.4,0.2,0.9,0.3,1.3
			c0.1,0.4,0.2,0.9,0.3,1.3c0-0.3,0-0.6,0-0.9c0-0.2,0.1-0.5,0.2-0.7c0.2-0.7,0.5-1.4,0.9-2.1c0.4-0.7,0.9-1.2,1.5-1.7
			c1.1-1.2,2.6-2.1,4.1-2.6c2.1-0.8,4.4-0.6,6.5,0.1c3.8,1.3,6.7,5.6,6.7,9.9c0,2.6-0.8,4.9-2.4,6.9c-3.5,4.4-7.4,8.3-12.4,11
			c-1.2,0.7-1.6,1.4-1.5,2.8c1,8.4,1.6,16.7,0.7,25.1c-0.1,0.5,0.4,1.4,0.9,1.7c4.8,3.5,5.6,7.8,2.1,12.7c-3.2,4.5-7.8,7.4-12.6,9.9
			c-12.8,6.7-26.4,10.6-40.9,10.9c-3.7,0.1-7.5-0.5-11.1-1.5c-6-1.7-8.5-6.6-5.7-12.2c0.2-0.4,0.1-1.3-0.2-1.7
			c-8.7-11-14.2-23.7-19.6-36.5c-1.3-3.2-2.4-6.4-3.8-9.6c-0.8-1.9-0.5-3.3,1-4.5c7.1-5.8,16.5-8.1,25-11.2c9-3.2,18.1-6.5,27.4-9
			C726.4,350.9,733.2,349.2,740.1,348.8z M735.7,396.3c-1.1,3-2.7,4.2-5.7,4.4c-1.5,0.1-2.6,0.6-2.6,2.2c0,1.8,1.5,2,2.9,2
			c4.1-0.1,8-2.7,9.3-6.8c2.6-8.3,2.2-16.5-2.2-24.2c-1.5-2.7-4-4.1-7-3.7c-2.6,0.3-5.1,1-7.6,1.8c-2.7,0.9-4.4,2.9-4.8,5.7
			c-0.2,1.4,0.1,2.9,0.4,4.4c1.6,7.5,0.1,13.6-7,17.6c-1.1,0.6-1.7,1.6-1,2.9c0.7,1.3,1.9,1.4,3.1,0.7c5.4-2.9,8.7-7.3,9.5-13.4
			c0.4-2.7,1.1-3.8,3.9-4.2c1.3-0.2,2.8,0.1,4.1,0.4c1.4,0.4,2.4,0.3,3-1.1c0.6-1.3-0.1-2.4-1.3-2.7c-1.7-0.5-3.5-1-5.3-0.9
			c-1.5,0-3,0.8-4.6,1.3c-0.2-0.9-0.4-1.6-0.5-2.2c-0.6-2.8,0-4,2.7-4.9c1.5-0.5,3-0.8,4.5-1.1c2.6-0.4,3.4,0.1,4.7,2.5
			c1.8,3.5,2.7,7.3,2.7,11.3c0,3.2-1.2,4.5-4.4,4.5c-1.2,0-2.5-0.5-3.6-1c-1.3-0.7-2.4-0.9-3.3,0.5c-0.8,1.3-0.1,2.3,1.1,3
			C729.4,397,732.3,397.3,735.7,396.3z M694.7,392.4c-0.9-4.1-0.2-6.9,2.4-8.4c2.6-1.5,6.4-1.4,8.4,0.2c2,1.6,3.1,5.4,2.1,8.1
			c-0.3,0.9-1.4,1.9-2.3,2c-0.7,0.1-1.9-0.9-2.3-1.8c-0.5-1.3-0.3-2.8-0.7-4.1c-0.3-0.8-1.1-1.9-1.9-2.1c-1.3-0.3-2.2,0.7-2.2,2
			c0.1,2,0.2,4.1,0.9,5.9c0.9,2.6,2.9,4.2,5.7,4.3c2.7,0.1,5-1.1,6.1-3.5c2-4.1,1.5-8.3-1-12.1c-2.2-3.3-5.6-4.5-9.4-4.3
			c-6.4,0.4-11,4.9-10.5,10.6c0.4,4.6,2.3,8.7,5.4,12.1c0.9,1,2,1.4,3.2,0.4c1.1-1,0.8-2,0-3.2C697.4,396.7,696.1,394.5,694.7,392.4
			z M694.3,428.3c-0.9,1.8-0.1,3.2,1.6,3.7c2.7,0.8,5.6,1.7,8.4,1.7c16.5,0.2,31.7-4.3,45.6-13.1c2.4-1.6,4.5-3.8,6.4-6
			c1.5-1.8,1.1-3.1-0.3-4.1c-1.8,2-3.5,4.1-5.5,5.8c-8,6.6-17.2,11.1-27.3,13.1C713.6,431.4,703.9,432.3,694.3,428.3z M755.7,371.3
			c0,0.1,0,0.1,0,0.1c0.5-0.1,0.9-0.3,1.4-0.6c2-1.3,3.9-2.7,5.7-4.4c1.7-1.6,3.3-3.5,4.5-5.5c0.8-1.3,0.8-3.4,0.5-5
			c-0.5-2.5-3.3-4.2-5.7-3.7c-2.5,0.4-4.2,2.6-3.9,5.5c0.2,1.4,1,2.8,1.8,4.1c0.8,1.3,0.8,2.4-0.3,3.4c-0.7,0.6-1.8,1.1-2.7,0.7
			c-0.6-0.2-1.1-0.7-1.6-1.3c-0.5-0.7-1-1.4-1.3-2.2c0,0.5,0.1,1.1,0.2,1.6c0.2,1.5,0.5,2.9,0.7,4.4
			C755.2,368.6,755.5,370.8,755.7,371.3z M702,416.8c-0.6-1.9-2.8-3.1-4.6-2.6c-2,0.6-3.3,2.8-2.7,4.8c0.6,2,2.8,3.1,4.8,2.5
			C701.5,420.9,702.6,418.7,702,416.8z M716.6,416.5c2-0.6,3.2-2.8,2.6-4.8c-0.6-1.9-2.8-3.1-4.7-2.5c-2,0.6-3.2,2.8-2.6,4.8
			C712.5,416,714.6,417.1,716.6,416.5z M719.5,419c-1.9,0.5-3.2,2.6-2.7,4.6c0.5,2,2.7,3.3,4.7,2.8c1.9-0.5,3.1-2.6,2.7-4.6
			C723.7,419.7,721.6,418.5,719.5,419z M745.1,399.5c-2,0.6-3.2,2.9-2.5,4.8c0.6,1.9,2.8,3,4.7,2.4c2-0.6,3.2-2.8,2.5-4.8
			C749.2,400,747,398.9,745.1,399.5z M746,413.1c-0.6-2.1-2.7-3.2-4.7-2.6c-2,0.6-3.1,2.6-2.6,4.6c0.5,2,2.6,3.2,4.7,2.6
			C745.4,417,746.5,415,746,413.1z M711.1,422c-0.6-2-2.8-3.2-4.8-2.5c-1.9,0.6-3.1,2.7-2.5,4.6c0.6,2,2.8,3.2,4.8,2.6
			C710.5,426,711.7,423.9,711.1,422z M732.3,417.4c2.1-0.6,3.2-2.6,2.6-4.7c-0.6-2-2.5-3.1-4.5-2.6c-2,0.6-3.2,2.4-2.7,4.5
			C728.2,416.7,730.2,418,732.3,417.4z M748,351.6c-0.4-0.4-1.6-0.4-2.1-0.4c-5.6-0.3-11.5,1-17,2.5c-9.3,2.5-18.6,5.2-27.9,8.1
			c-8.6,2.7-17.5,5.1-25.5,9.2c-1.1,0.6-6,2.6-6.3,3.6c-0.9,2.8,10,0,11.3-0.3c19.9-3.7,39.7-9.3,58.4-17.1
			C739.9,356.9,749.4,353.3,748,351.6C748,351.6,748,351.6,748,351.6z"/>
		<path class="st6" d="M801.6,79.5c1.8,1.6,3.5,3.3,5,5.1c2.3,2.8,2.3,3.8,0.4,6.8c-0.2,0.4-0.5,0.8-0.8,1.1
			c-0.2,0.4-0.5,0.7-0.7,1.1c0.2-0.2,0.4-0.4,0.6-0.6c0.2-0.2,0.4-0.3,0.7-0.4c0.7-0.4,1.4-0.7,2.1-0.8c0.8-0.2,1.5-0.1,2.3-0.2
			c1.6-0.1,3.3,0.4,4.8,1.1c2,1,3.6,2.7,4.5,4.7c1.7,3.7,0.8,8.7-2.3,11.8c-1.8,1.9-4,2.9-6.6,3.2c-5.6,0.7-11.1,0.6-16.6-1
			c-1.4-0.4-2.2-0.2-3,1c-5.2,6.6-10.7,13-17.3,18.3c-0.4,0.3-0.6,1.3-0.6,1.9c0.9,5.9-1.6,9.5-7.5,10.4c-5.5,0.9-10.7-0.3-15.9-1.9
			c-13.8-4.3-26.2-11.2-36.6-21.3c-2.7-2.6-5-5.7-6.8-8.9c-3-5.5-1.3-10.7,4.6-12.7c0.5-0.2,1-0.9,1.1-1.4
			c1.6-13.9,6.7-26.8,12-39.6c1.3-3.2,2.9-6.2,4.1-9.4c0.7-1.9,2-2.7,3.9-2.5c9.1,0.9,17.4,5.9,25.6,9.8c8.7,4.1,17.4,8.2,25.7,13
			C790.4,71.3,796.5,75,801.6,79.5z M764.8,110c-2.9,1.3-4.9,1-7.1-0.9c-1.1-1-2.2-1.5-3.3-0.3c-1.2,1.3-0.4,2.5,0.6,3.5
			c3,2.9,7.6,3.7,11.4,1.7c7.7-4.1,13.2-10,15.6-18.6c0.8-3,0.1-5.7-2.3-7.6c-2-1.6-4.3-3-6.6-4.1c-2.5-1.3-5.2-1.1-7.4,0.7
			c-1.1,0.9-2,2.2-2.8,3.4c-4.1,6.4-9.6,9.7-17.4,7.5c-1.2-0.4-2.4,0-2.7,1.3c-0.4,1.4,0.4,2.3,1.7,2.7c5.9,1.7,11.3,1,16.2-2.8
			c2.2-1.7,3.5-1.9,5.7-0.2c1.1,0.8,1.9,2,2.6,3.2c0.7,1.3,1.5,1.9,2.9,1.4c1.4-0.5,1.6-1.7,1-2.8c-0.8-1.6-1.8-3.2-3.1-4.4
			c-1.1-1-2.7-1.6-4.1-2.4c0.5-0.8,0.9-1.4,1.2-1.9c1.5-2.4,2.8-2.8,5.4-1.5c1.4,0.7,2.7,1.5,3.9,2.4c2.1,1.6,2.4,2.5,1.6,5
			c-1.2,3.8-3.3,7.1-6.1,9.9c-2.3,2.3-4,2.4-6.3,0.1c-0.9-0.9-1.5-2.1-1.8-3.3c-0.4-1.4-1.1-2.4-2.7-2c-1.5,0.4-1.6,1.6-1.4,2.9
			C760,106,761.8,108.3,764.8,110z M738.7,78.2c2.3-3.6,4.7-5.1,7.6-4.3c2.9,0.8,5.5,3.5,5.8,6.1c0.3,2.5-1.6,6-4.2,7.2
			c-0.9,0.4-2.4,0.3-3.1-0.2c-0.6-0.4-0.7-2-0.4-2.8c0.5-1.3,1.8-2.2,2.4-3.4c0.4-0.8,0.6-2.1,0.2-2.8c-0.7-1.1-2.1-1.1-2.9-0.1
			c-1.3,1.5-2.7,3-3.6,4.8c-1.2,2.4-0.9,5,1,7.1c1.8,2,4.3,2.8,6.8,1.9c4.3-1.5,6.9-4.8,7.8-9.3c0.8-3.9-0.7-7.1-3.6-9.7
			c-4.8-4.3-11.2-4.3-14.9,0.1c-2.9,3.5-4.5,7.7-4.7,12.4c-0.1,1.4,0.4,2.4,1.9,2.5c1.5,0.1,2-0.9,2.2-2.3
			C737.5,83.1,738.2,80.7,738.7,78.2z M713,103.4c-1.9,0.6-2.3,2.2-1.5,3.8c1.3,2.5,2.7,5.2,4.7,7.2c11.5,11.8,25.5,19.4,41.5,23
			c2.8,0.6,5.9,0.5,8.8,0.3c2.4-0.2,3-1.4,2.7-3.2c-2.7,0.1-5.4,0.5-8,0.2c-10.4-1-20-4.3-28.6-10.1C724.5,119.2,717,113,713,103.4z
			 M796.7,106.4c0,0.1-0.1,0.1-0.1,0.1c0.5,0.3,0.9,0.4,1.4,0.5c2.3,0.5,4.7,0.9,7.1,0.9c2.4,0.1,4.8-0.2,7.1-0.7
			c1.5-0.4,3-1.8,3.9-3.2c1.4-2.2,0.6-5.3-1.4-6.7c-2.1-1.5-4.8-1.2-6.6,1.1c-0.9,1.1-1.3,2.7-1.6,4.2c-0.4,1.5-1.1,2.3-2.6,2.2
			c-0.9,0-2-0.5-2.4-1.4c-0.3-0.6-0.3-1.3-0.2-2c0.1-0.9,0.3-1.7,0.7-2.5c-0.3,0.4-0.6,0.8-1,1.3c-0.9,1.2-1.7,2.4-2.6,3.6
			C798.3,104.1,797,106,796.7,106.4z M726.6,100.7c0.9-1.7,0.2-4.1-1.5-5.1c-1.8-1-4.3-0.3-5.3,1.5c-1,1.8-0.2,4.2,1.7,5.2
			C723.3,103.1,725.6,102.4,726.6,100.7z M737.1,110.8c1.8,1,4.3,0.3,5.2-1.5c0.9-1.8,0.2-4.1-1.5-5.1c-1.9-1-4.2-0.3-5.2,1.5
			C734.6,107.5,735.3,109.8,737.1,110.8z M737.4,114.6c-1.7-1-4.1-0.4-5.1,1.3c-1.1,1.8-0.5,4.2,1.3,5.3c1.7,1,4.1,0.4,5.1-1.4
			C739.8,118,739.2,115.7,737.4,114.6z M769.3,118.9c-1.8-1-4.3-0.2-5.2,1.6c-0.9,1.8-0.1,4.1,1.7,5c1.8,1,4.2,0.2,5.2-1.6
			C771.8,122.2,771.1,119.8,769.3,118.9z M760.3,129.1c1.1-1.9,0.4-4.2-1.5-5.2c-1.8-1-4-0.4-5.1,1.4c-1.1,1.8-0.4,4.1,1.5,5.2
			C757.1,131.5,759.3,130.9,760.3,129.1z M729.4,110.8c1-1.8,0.3-4.2-1.6-5.2c-1.8-0.9-4-0.3-5,1.5c-1,1.8-0.3,4.2,1.6,5.2
			C726.1,113.2,728.4,112.5,729.4,110.8z M747.6,122.5c1.9,1.1,4.1,0.5,5.2-1.5c1-1.8,0.4-4-1.4-5c-1.8-1.1-4-0.5-5.1,1.3
			C745.1,119.1,745.7,121.4,747.6,122.5z M805.2,87.1c0-0.5-0.8-1.4-1.2-1.8c-3.7-4.2-8.9-7.5-13.8-10.3c-8.4-4.8-16.8-9.5-25.4-14
			c-8-4.2-16-8.8-24.5-11.5c-1.2-0.4-6.1-2.4-7-1.9c-2.6,1.4,7.1,7.1,8.2,7.8c16.7,11.4,34.6,21.5,53.3,29.2
			C795.8,85.1,805,89.2,805.2,87.1C805.2,87.1,805.2,87.1,805.2,87.1z"/>
		<path class="st6" d="M716.1,340.4c-10.7-13.8-8.7-30.1,3.9-37.7c5.6-3.4,10.7-2.9,13.8,1.5c3.9,5.7,0.5,9.1-3.8,12.3
			C722,322.1,716.8,329.4,716.1,340.4z"/>
		<path class="st6" d="M739.2,623.2c-4,4.2-8.3,7.2-10.4,11.3c-2,3.9-1.6,9-2.5,15.2c-3.8-5.3-5.9-10.2-9.6-12.9
			c-3.5-2.6-8.7-3-15-4.9c11.2-5.2,13.8-14.2,15.3-24.6c2.8,3.9,5,8.7,8.7,11.4C729.3,621.4,734.4,621.7,739.2,623.2z"/>
		<path class="st6" d="M745.5,537.4c-6.8,7.1-14.2,12.3-17.8,19.4c-3.4,6.7-2.8,15.5-4.3,26.1c-6.5-9.1-10.2-17.4-16.5-22.2
			c-6-4.5-14.9-5.1-25.6-8.4c19.2-8.9,23.7-24.3,26.2-42.2c4.9,6.7,8.6,15,14.9,19.6C728.3,534.2,737.2,534.8,745.5,537.4z"/>
		<path class="st6" d="M297.8,328c-6.8,7.1-14.2,12.3-17.8,19.4c-3.4,6.7-2.8,15.5-4.3,26.1c-6.5-9.1-10.2-17.4-16.5-22.2
			c-6-4.5-14.9-5.1-25.6-8.4c19.2-8.9,23.7-24.3,26.2-42.2c4.9,6.7,8.6,15,14.9,19.6C280.6,324.8,289.4,325.5,297.8,328z"/>
	</g>
</g>
</svg>
