<?xml version="1.0" encoding="utf-8"?>
<!-- Generator: Adobe Illustrator 22.1.0, SVG Export Plug-In . SVG Version: 6.00 Build 0)  -->
<svg version="1.1" id="Layer_1" xmlns="http://www.w3.org/2000/svg" xmlns:xlink="http://www.w3.org/1999/xlink" x="0px" y="0px"
	 viewBox="0 0 720 720" style="enable-background:new 0 0 720 720;" xml:space="preserve">
<style type="text/css">
	.st0{clip-path:url(#SVGID_2_);fill:#A7C3FF;}
	.st1{clip-path:url(#SVGID_2_);}
	.st2{fill:#5E7FDD;}
	.st3{fill:#A7C3FF;}
	.st4{clip-path:url(#SVGID_4_);fill:#5E7FDD;}
	.st5{clip-path:url(#SVGID_4_);}
	.st6{fill:#061D87;}
	.st7{clip-path:url(#SVGID_6_);fill:#F7A4B8;}
	.st8{clip-path:url(#SVGID_6_);}
	.st9{fill:#F57689;}
	.st10{fill:#F7A4B8;}
	.st11{clip-path:url(#SVGID_8_);fill:#CED369;}
	.st12{clip-path:url(#SVGID_8_);}
	.st13{fill:#BCBC61;}
	.st14{fill:#CED369;}
</style>
<g>
	<defs>
		<rect id="SVGID_7_" x="0.5" y="0.5" width="719" height="719"/>
	</defs>
	<clipPath id="SVGID_2_">
		<use xlink:href="#SVGID_7_"  style="overflow:visible;"/>
	</clipPath>
	<rect x="0" style="clip-path:url(#SVGID_2_);fill:#CED369;" width="720" height="720"/>
	<g class="st1">
		<path class="st13" d="M249.2-62.9c2.4-0.1,4.7-0.1,7.1,0.1c3.6,0.3,4.3,1,5.1,4.5c0.1,0.4,0.2,0.9,0.3,1.3
			c0.1,0.4,0.2,0.9,0.3,1.3c0-0.3,0-0.6,0-0.9c0-0.2,0.1-0.5,0.2-0.7c0.2-0.7,0.5-1.4,0.9-2.1c0.4-0.7,0.9-1.2,1.5-1.7
			c1.1-1.2,2.6-2.1,4.1-2.6c2.1-0.8,4.4-0.6,6.5,0.1c3.8,1.3,6.7,5.6,6.7,9.9c0,2.6-0.8,4.9-2.4,6.9c-3.5,4.4-7.4,8.3-12.4,11
			c-1.2,0.7-1.6,1.4-1.5,2.8c1,8.4,1.6,16.7,0.7,25.1c-0.1,0.5,0.4,1.4,0.9,1.7c4.8,3.5,5.6,7.8,2.1,12.7c-3.2,4.5-7.8,7.4-12.6,9.9
			c-12.8,6.7-26.4,10.6-40.9,10.9c-3.7,0.1-7.5-0.5-11.1-1.5c-6-1.7-8.5-6.6-5.7-12.2c0.2-0.4,0.1-1.3-0.2-1.7
			c-8.7-11-14.2-23.7-19.6-36.5c-1.3-3.2-2.4-6.4-3.8-9.6c-0.8-1.9-0.5-3.3,1-4.5c7.1-5.8,16.5-8.1,25-11.2c9-3.2,18.1-6.5,27.4-9
			C235.5-60.7,242.3-62.4,249.2-62.9z M244.7-15.3c-1.1,3-2.7,4.2-5.7,4.4c-1.5,0.1-2.6,0.6-2.6,2.2c0,1.8,1.5,2,2.9,2
			c4.1-0.1,8-2.7,9.3-6.8c2.6-8.3,2.2-16.5-2.2-24.2c-1.5-2.7-4-4.1-7-3.7c-2.6,0.3-5.1,1-7.6,1.8c-2.7,0.9-4.4,2.9-4.8,5.7
			c-0.2,1.4,0.1,2.9,0.4,4.4c1.6,7.5,0.1,13.6-7,17.6c-1.1,0.6-1.7,1.6-1,2.9c0.7,1.3,1.9,1.4,3.1,0.7c5.4-2.9,8.7-7.3,9.5-13.4
			c0.4-2.7,1.1-3.8,3.9-4.2c1.3-0.2,2.8,0.1,4.1,0.4c1.4,0.4,2.4,0.3,3-1.1c0.6-1.3-0.1-2.4-1.3-2.7c-1.7-0.5-3.5-1-5.3-0.9
			c-1.5,0-3,0.8-4.6,1.3c-0.2-0.9-0.4-1.6-0.5-2.2c-0.6-2.8,0-4,2.7-4.9c1.5-0.5,3-0.8,4.5-1.1c2.6-0.4,3.4,0.1,4.7,2.5
			c1.8,3.5,2.7,7.3,2.7,11.3c0,3.2-1.2,4.5-4.4,4.5c-1.2,0-2.5-0.5-3.6-1c-1.3-0.7-2.4-0.9-3.3,0.5c-0.8,1.3-0.1,2.3,1.1,3
			C238.5-14.7,241.4-14.3,244.7-15.3z M203.8-19.3c-0.9-4.1-0.2-6.9,2.4-8.4c2.6-1.5,6.4-1.4,8.4,0.2c2,1.6,3.1,5.4,2.1,8.1
			c-0.3,0.9-1.4,1.9-2.3,2c-0.7,0.1-1.9-0.9-2.3-1.8c-0.5-1.3-0.3-2.8-0.7-4.1c-0.3-0.8-1.1-1.9-1.9-2.1c-1.3-0.3-2.2,0.7-2.2,2
			c0.1,2,0.2,4.1,0.9,5.9c0.9,2.6,2.9,4.2,5.7,4.3c2.7,0.1,5-1.1,6.1-3.5c2-4.1,1.5-8.3-1-12.1c-2.2-3.3-5.6-4.5-9.4-4.3
			c-6.4,0.4-11,4.9-10.5,10.6c0.4,4.6,2.3,8.7,5.4,12.1c0.9,1,2,1.4,3.2,0.4c1.1-1,0.8-2,0-3.2C206.4-15,205.2-17.2,203.8-19.3z
			 M203.4,16.7c-0.9,1.8-0.1,3.2,1.6,3.7c2.7,0.8,5.6,1.7,8.4,1.7c16.5,0.2,31.7-4.3,45.6-13.1c2.4-1.6,4.5-3.8,6.4-6
			c1.5-1.8,1.1-3.1-0.3-4.1c-1.8,2-3.5,4.1-5.5,5.8c-8,6.6-17.2,11.1-27.3,13.1C222.7,19.7,213,20.6,203.4,16.7z M264.7-40.3
			c0,0.1,0,0.1,0,0.1c0.5-0.1,0.9-0.3,1.4-0.6c2-1.3,3.9-2.7,5.7-4.4c1.7-1.6,3.3-3.5,4.5-5.5c0.8-1.3,0.8-3.4,0.5-5
			c-0.5-2.5-3.3-4.2-5.7-3.7c-2.5,0.4-4.2,2.6-3.9,5.5c0.2,1.4,1,2.8,1.8,4.1c0.8,1.3,0.8,2.4-0.3,3.4c-0.7,0.6-1.8,1.1-2.7,0.7
			c-0.6-0.2-1.1-0.7-1.6-1.3c-0.5-0.7-1-1.4-1.3-2.2c0,0.5,0.1,1.1,0.2,1.6c0.2,1.5,0.5,2.9,0.7,4.4
			C264.3-43.1,264.6-40.9,264.7-40.3z M211.1,5.1c-0.6-1.9-2.8-3.1-4.6-2.6c-2,0.6-3.3,2.8-2.7,4.8c0.6,2,2.8,3.1,4.8,2.5
			C210.5,9.2,211.7,7.1,211.1,5.1z M225.7,4.9c2-0.6,3.2-2.8,2.6-4.8c-0.6-1.9-2.8-3.1-4.7-2.5c-2,0.6-3.2,2.8-2.6,4.8
			C221.6,4.3,223.7,5.4,225.7,4.9z M228.6,7.4c-1.9,0.5-3.2,2.6-2.7,4.6c0.5,2,2.7,3.3,4.7,2.8c1.9-0.5,3.1-2.6,2.7-4.6
			C232.8,8.1,230.6,6.8,228.6,7.4z M254.2-12.2c-2,0.6-3.2,2.9-2.5,4.8c0.6,1.9,2.8,3,4.7,2.4c2-0.6,3.2-2.8,2.5-4.8
			C258.3-11.6,256.1-12.8,254.2-12.2z M255.1,1.4c-0.6-2.1-2.7-3.2-4.7-2.6c-2,0.6-3.1,2.6-2.6,4.6c0.5,2,2.6,3.2,4.7,2.6
			C254.4,5.4,255.6,3.3,255.1,1.4z M220.2,10.3c-0.6-2-2.8-3.2-4.8-2.5c-1.9,0.6-3.1,2.7-2.5,4.6c0.6,2,2.8,3.2,4.8,2.6
			C219.6,14.4,220.8,12.2,220.2,10.3z M241.4,5.8c2.1-0.6,3.2-2.6,2.6-4.7c-0.6-2-2.5-3.1-4.5-2.6c-2,0.6-3.2,2.4-2.7,4.5
			C237.3,5.1,239.3,6.3,241.4,5.8z M257.1-60c-0.4-0.4-1.6-0.4-2.1-0.4c-5.6-0.3-11.5,1-17,2.5c-9.3,2.5-18.6,5.2-27.9,8.1
			c-8.6,2.7-17.5,5.1-25.5,9.2c-1.1,0.6-6,2.6-6.3,3.6c-0.9,2.8,10,0,11.3-0.3c19.9-3.7,39.7-9.3,58.4-17.1
			C249-54.8,258.4-58.4,257.1-60C257.1-60,257.1-60,257.1-60z"/>
		<path class="st13" d="M226.6,164.2c2.4-0.1,4.7-0.1,7.1,0.1c3.6,0.3,4.3,1,5.1,4.5c0.1,0.4,0.2,0.9,0.3,1.3
			c0.1,0.4,0.2,0.9,0.3,1.3c0-0.3,0-0.6,0-0.9c0-0.2,0.1-0.5,0.2-0.7c0.2-0.7,0.5-1.4,0.9-2.1c0.4-0.7,0.9-1.2,1.5-1.7
			c1.1-1.2,2.6-2.1,4.1-2.6c2.1-0.8,4.4-0.6,6.5,0.1c3.8,1.3,6.7,5.6,6.7,9.9c0,2.6-0.8,4.9-2.4,6.9c-3.5,4.4-7.4,8.3-12.4,11
			c-1.2,0.7-1.6,1.4-1.5,2.8c1,8.4,1.6,16.7,0.7,25.1c-0.1,0.5,0.4,1.4,0.9,1.7c4.8,3.5,5.6,7.8,2.1,12.7c-3.2,4.5-7.8,7.4-12.6,9.9
			c-12.8,6.7-26.4,10.6-40.9,10.9c-3.7,0.1-7.5-0.5-11.1-1.5c-6-1.7-8.5-6.6-5.7-12.2c0.2-0.4,0.1-1.3-0.2-1.7
			c-8.7-11-14.2-23.7-19.6-36.5c-1.3-3.2-2.4-6.4-3.8-9.6c-0.8-1.9-0.5-3.3,1-4.5c7.1-5.8,16.5-8.1,25-11.2c9-3.2,18.1-6.5,27.4-9
			C212.8,166.3,219.7,164.6,226.6,164.2z M222.1,211.7c-1.1,3-2.7,4.2-5.7,4.4c-1.5,0.1-2.6,0.6-2.6,2.2c0,1.8,1.5,2,2.9,2
			c4.1-0.1,8-2.7,9.3-6.8c2.6-8.3,2.2-16.5-2.2-24.2c-1.5-2.7-4-4.1-7-3.7c-2.6,0.3-5.1,1-7.6,1.8c-2.7,0.9-4.4,2.9-4.8,5.7
			c-0.2,1.4,0.1,2.9,0.4,4.4c1.6,7.5,0.1,13.6-7,17.6c-1.1,0.6-1.7,1.6-1,2.9c0.7,1.3,1.9,1.4,3.1,0.7c5.4-2.9,8.7-7.3,9.5-13.4
			c0.4-2.7,1.1-3.8,3.9-4.2c1.3-0.2,2.8,0.1,4.1,0.4c1.4,0.4,2.4,0.3,3-1.1c0.6-1.3-0.1-2.4-1.3-2.7c-1.7-0.5-3.5-1-5.3-0.9
			c-1.5,0-3,0.8-4.6,1.3c-0.2-0.9-0.4-1.6-0.5-2.2c-0.6-2.8,0-4,2.7-4.9c1.5-0.5,3-0.8,4.5-1.1c2.6-0.4,3.4,0.1,4.7,2.5
			c1.8,3.5,2.7,7.3,2.7,11.3c0,3.2-1.2,4.5-4.4,4.5c-1.2,0-2.5-0.5-3.6-1c-1.3-0.7-2.4-0.9-3.3,0.5c-0.8,1.3-0.1,2.3,1.1,3
			C215.9,212.3,218.7,212.7,222.1,211.7z M181.2,207.7c-0.9-4.1-0.2-6.9,2.4-8.4c2.6-1.5,6.4-1.4,8.4,0.2c2,1.6,3.1,5.4,2.1,8.1
			c-0.3,0.9-1.4,1.9-2.3,2c-0.7,0.1-1.9-0.9-2.3-1.8c-0.5-1.3-0.3-2.8-0.7-4.1c-0.3-0.8-1.1-1.9-1.9-2.1c-1.3-0.3-2.2,0.7-2.2,2
			c0.1,2,0.2,4.1,0.9,5.9c0.9,2.6,2.9,4.2,5.7,4.3c2.7,0.1,5-1.1,6.1-3.5c2-4.1,1.5-8.3-1-12.1c-2.2-3.3-5.6-4.5-9.4-4.3
			c-6.4,0.4-11,4.9-10.5,10.6c0.4,4.6,2.3,8.7,5.4,12.1c0.9,1,2,1.4,3.2,0.4c1.1-1,0.8-2,0-3.2C183.8,212,182.5,209.9,181.2,207.7z
			 M180.8,243.7c-0.9,1.8-0.1,3.2,1.6,3.7c2.7,0.8,5.6,1.7,8.4,1.7c16.5,0.2,31.7-4.3,45.6-13.1c2.4-1.6,4.5-3.8,6.4-6
			c1.5-1.8,1.1-3.1-0.3-4.1c-1.8,2-3.5,4.1-5.5,5.8c-8,6.6-17.2,11.1-27.3,13.1C200,246.8,190.3,247.7,180.8,243.7z M242.1,186.7
			c0,0.1,0,0.1,0,0.1c0.5-0.1,0.9-0.3,1.4-0.6c2-1.3,3.9-2.7,5.7-4.4c1.7-1.6,3.3-3.5,4.5-5.5c0.8-1.3,0.8-3.4,0.5-5
			c-0.5-2.5-3.3-4.2-5.7-3.7c-2.5,0.4-4.2,2.6-3.9,5.5c0.2,1.4,1,2.8,1.8,4.1c0.8,1.3,0.8,2.4-0.3,3.4c-0.7,0.6-1.8,1.1-2.7,0.7
			c-0.6-0.2-1.1-0.7-1.6-1.3c-0.5-0.7-1-1.4-1.3-2.2c0,0.5,0.1,1.1,0.2,1.6c0.2,1.5,0.5,2.9,0.7,4.4
			C241.6,183.9,242,186.1,242.1,186.7z M188.4,232.2c-0.6-1.9-2.8-3.1-4.6-2.6c-2,0.6-3.3,2.8-2.7,4.8c0.6,2,2.8,3.1,4.8,2.5
			C187.9,236.2,189,234.1,188.4,232.2z M203,231.9c2-0.6,3.2-2.8,2.6-4.8c-0.6-1.9-2.8-3.1-4.7-2.5c-2,0.6-3.2,2.8-2.6,4.8
			C199,231.3,201,232.5,203,231.9z M205.9,234.4c-1.9,0.5-3.2,2.6-2.7,4.6c0.5,2,2.7,3.3,4.7,2.8c1.9-0.5,3.1-2.6,2.7-4.6
			C210.1,235.1,208,233.8,205.9,234.4z M231.5,214.9c-2,0.6-3.2,2.9-2.5,4.8c0.6,1.9,2.8,3,4.7,2.4c2-0.6,3.2-2.8,2.5-4.8
			C235.6,215.4,233.4,214.3,231.5,214.9z M232.4,228.4c-0.6-2.1-2.7-3.2-4.7-2.6c-2,0.6-3.1,2.6-2.6,4.6c0.5,2,2.6,3.2,4.7,2.6
			C231.8,232.4,233,230.4,232.4,228.4z M197.6,237.3c-0.6-2-2.8-3.2-4.8-2.5c-1.9,0.6-3.1,2.7-2.5,4.6c0.6,2,2.8,3.2,4.8,2.6
			C197,241.4,198.1,239.2,197.6,237.3z M218.7,232.8c2.1-0.6,3.2-2.6,2.6-4.7c-0.6-2-2.5-3.1-4.5-2.6c-2,0.6-3.2,2.4-2.7,4.5
			C214.6,232.1,216.7,233.3,218.7,232.8z M234.4,167c-0.4-0.4-1.6-0.4-2.1-0.4c-5.6-0.3-11.5,1-17,2.5c-9.3,2.5-18.6,5.2-27.9,8.1
			c-8.6,2.7-17.5,5.1-25.5,9.2c-1.1,0.6-6,2.6-6.3,3.6c-0.9,2.8,10,0,11.3-0.3c19.9-3.7,39.7-9.3,58.4-17.1
			C226.4,172.2,235.8,168.6,234.4,167C234.5,167,234.5,167,234.4,167z"/>
		<path class="st13" d="M194.6,490.4c1.8,1.6,3.5,3.3,5,5.1c2.3,2.8,2.3,3.8,0.4,6.8c-0.2,0.4-0.5,0.8-0.7,1.1
			c-0.2,0.4-0.5,0.7-0.7,1.1c0.2-0.2,0.4-0.4,0.6-0.6c0.2-0.2,0.4-0.3,0.7-0.4c0.7-0.4,1.4-0.7,2.1-0.8c0.8-0.2,1.5-0.1,2.3-0.2
			c1.6-0.1,3.3,0.4,4.8,1.1c2,1,3.6,2.7,4.5,4.7c1.7,3.7,0.8,8.7-2.3,11.8c-1.8,1.9-4,2.9-6.6,3.2c-5.6,0.7-11.1,0.6-16.6-1
			c-1.4-0.4-2.2-0.2-3,1c-5.2,6.6-10.7,13-17.3,18.3c-0.4,0.3-0.6,1.3-0.6,1.9c0.9,5.9-1.6,9.5-7.5,10.4c-5.5,0.9-10.7-0.3-15.9-1.9
			c-13.8-4.3-26.2-11.2-36.6-21.3c-2.7-2.6-5-5.7-6.8-8.9c-3-5.5-1.3-10.7,4.6-12.7c0.5-0.2,1-0.9,1.1-1.4
			c1.6-13.9,6.7-26.8,12-39.6c1.3-3.2,2.9-6.2,4.1-9.4c0.7-1.9,2-2.7,3.9-2.5c9.1,0.9,17.4,5.9,25.6,9.8c8.7,4.1,17.4,8.2,25.7,13
			C183.3,482.2,189.4,485.8,194.6,490.4z M157.8,520.9c-2.9,1.3-4.9,1-7.1-0.9c-1.1-1-2.2-1.5-3.3-0.3c-1.2,1.3-0.4,2.5,0.6,3.5
			c3,2.9,7.6,3.7,11.4,1.7c7.7-4.1,13.2-10,15.6-18.6c0.8-3,0.1-5.7-2.3-7.6c-2-1.6-4.3-3-6.6-4.1c-2.5-1.3-5.2-1.1-7.4,0.7
			c-1.1,0.9-2,2.2-2.8,3.4c-4.1,6.4-9.6,9.7-17.4,7.5c-1.2-0.4-2.4,0-2.7,1.3c-0.4,1.4,0.4,2.3,1.7,2.7c5.9,1.7,11.3,1,16.2-2.8
			c2.2-1.7,3.5-1.9,5.7-0.2c1.1,0.8,1.9,2,2.6,3.2c0.7,1.3,1.5,1.9,2.9,1.4c1.4-0.5,1.6-1.7,1-2.8c-0.8-1.6-1.8-3.2-3.1-4.4
			c-1.1-1-2.7-1.6-4.1-2.4c0.5-0.8,0.9-1.4,1.2-1.9c1.5-2.4,2.8-2.8,5.4-1.5c1.4,0.7,2.7,1.5,3.9,2.4c2.1,1.6,2.4,2.5,1.6,5
			c-1.2,3.8-3.3,7.1-6.1,9.9c-2.3,2.3-4,2.4-6.3,0.1c-0.9-0.9-1.5-2.1-1.8-3.3c-0.4-1.4-1.1-2.4-2.7-2c-1.5,0.4-1.6,1.6-1.4,2.9
			C152.9,516.9,154.7,519.2,157.8,520.9z M131.7,489.1c2.3-3.6,4.7-5.1,7.6-4.3c2.9,0.8,5.5,3.5,5.8,6.1c0.3,2.5-1.6,6-4.2,7.2
			c-0.9,0.4-2.4,0.3-3.1-0.2c-0.6-0.4-0.7-2-0.4-2.8c0.5-1.3,1.8-2.2,2.4-3.4c0.4-0.8,0.6-2.1,0.2-2.8c-0.7-1.1-2.1-1.1-2.9-0.1
			c-1.3,1.5-2.7,3-3.6,4.8c-1.2,2.4-0.9,5,1,7.1c1.8,2,4.3,2.8,6.8,1.9c4.3-1.5,6.9-4.8,7.8-9.3c0.8-3.9-0.7-7.1-3.6-9.7
			c-4.8-4.3-11.2-4.3-14.9,0.1c-2.9,3.5-4.5,7.7-4.7,12.4c-0.1,1.4,0.4,2.4,1.9,2.5c1.5,0.1,2-0.9,2.2-2.3
			C130.5,494,131.1,491.6,131.7,489.1z M105.9,514.3c-1.9,0.6-2.3,2.2-1.5,3.8c1.3,2.5,2.7,5.2,4.7,7.2c11.5,11.8,25.5,19.4,41.5,23
			c2.8,0.6,5.9,0.5,8.8,0.3c2.4-0.2,3-1.4,2.7-3.2c-2.7,0.1-5.4,0.5-8,0.2c-10.4-1-20-4.3-28.6-10.1
			C117.4,530.1,109.9,523.8,105.9,514.3z M189.6,517.3c0,0.1-0.1,0.1-0.1,0.1c0.5,0.3,0.9,0.4,1.4,0.5c2.3,0.5,4.7,0.9,7.1,0.9
			c2.4,0.1,4.8-0.2,7.1-0.7c1.5-0.4,3-1.8,3.9-3.2c1.4-2.2,0.6-5.3-1.4-6.7c-2.1-1.5-4.8-1.2-6.6,1.1c-0.9,1.1-1.3,2.7-1.6,4.2
			c-0.4,1.5-1.1,2.3-2.6,2.2c-0.9,0-2-0.5-2.4-1.4c-0.3-0.6-0.3-1.3-0.2-2c0.1-0.9,0.3-1.7,0.7-2.5c-0.3,0.4-0.6,0.8-1,1.3
			c-0.9,1.2-1.7,2.4-2.6,3.6C191.2,515,189.9,516.8,189.6,517.3z M119.5,511.5c0.9-1.7,0.2-4.1-1.5-5.1c-1.8-1-4.3-0.3-5.3,1.5
			c-1,1.8-0.2,4.2,1.7,5.2C116.3,514,118.5,513.3,119.5,511.5z M130,521.6c1.8,1,4.3,0.3,5.2-1.5c0.9-1.8,0.2-4.1-1.5-5.1
			c-1.9-1-4.2-0.3-5.2,1.5C127.6,518.4,128.2,520.7,130,521.6z M130.3,525.5c-1.7-1-4.1-0.4-5.1,1.3c-1.1,1.8-0.5,4.2,1.3,5.3
			c1.7,1,4.1,0.4,5.1-1.4C132.8,528.9,132.2,526.6,130.3,525.5z M162.2,529.8c-1.8-1-4.3-0.2-5.2,1.6c-0.9,1.8-0.1,4.1,1.7,5
			c1.8,1,4.2,0.2,5.2-1.6C164.8,533,164,530.7,162.2,529.8z M153.3,540c1.1-1.9,0.4-4.2-1.5-5.2c-1.8-1-4-0.4-5.1,1.4
			c-1.1,1.8-0.4,4.1,1.5,5.2C150,542.4,152.3,541.7,153.3,540z M122.3,521.6c1-1.8,0.3-4.2-1.6-5.2c-1.8-0.9-4-0.3-5,1.5
			c-1,1.8-0.3,4.2,1.6,5.2C119,524.1,121.4,523.4,122.3,521.6z M140.5,533.4c1.9,1.1,4.1,0.5,5.2-1.5c1-1.8,0.4-4-1.4-5
			c-1.8-1.1-4-0.5-5.1,1.3C138.1,530,138.7,532.3,140.5,533.4z M198.1,498c0-0.5-0.8-1.4-1.2-1.8c-3.7-4.2-8.9-7.5-13.8-10.3
			c-8.4-4.8-16.8-9.5-25.4-14c-8-4.2-16-8.8-24.5-11.5c-1.2-0.4-6.1-2.4-7-1.9c-2.6,1.4,7.1,7.1,8.2,7.8
			c16.7,11.4,34.6,21.5,53.3,29.2C188.7,496,197.9,500.1,198.1,498C198.1,498,198.1,498,198.1,498z"/>
		<path class="st13" d="M19.4,348.4c2.4-0.1,4.7-0.1,7.1,0.1c3.6,0.3,4.3,1,5.1,4.5c0.1,0.4,0.2,0.9,0.3,1.3
			c0.1,0.4,0.2,0.9,0.3,1.3c0-0.3,0-0.6,0-0.9c0-0.2,0.1-0.5,0.2-0.7c0.2-0.7,0.5-1.4,0.9-2.1c0.4-0.7,0.9-1.2,1.5-1.7
			c1.1-1.2,2.6-2.1,4.1-2.6c2.1-0.8,4.4-0.6,6.5,0.1c3.8,1.3,6.7,5.6,6.7,9.9c0,2.6-0.8,4.9-2.4,6.9c-3.5,4.4-7.4,8.3-12.4,11
			c-1.2,0.7-1.6,1.4-1.5,2.8c1,8.4,1.6,16.7,0.7,25.1c-0.1,0.5,0.4,1.4,0.9,1.7c4.8,3.5,5.6,7.8,2.1,12.7c-3.2,4.5-7.8,7.4-12.6,9.9
			c-12.8,6.7-26.4,10.6-40.9,10.9c-3.7,0.1-7.5-0.5-11.1-1.5c-6-1.7-8.5-6.6-5.7-12.2c0.2-0.4,0.1-1.3-0.2-1.7
			c-8.7-11-14.2-23.7-19.6-36.5c-1.3-3.2-2.4-6.4-3.8-9.6c-0.8-1.9-0.5-3.3,1-4.5c7.1-5.8,16.5-8.1,25-11.2c9-3.2,18.1-6.5,27.4-9
			C5.7,350.6,12.5,348.9,19.4,348.4z M15,396c-1.1,3-2.7,4.2-5.7,4.4c-1.5,0.1-2.6,0.6-2.6,2.2c0,1.8,1.5,2,2.9,2
			c4.1-0.1,8-2.7,9.3-6.8c2.6-8.3,2.2-16.5-2.2-24.2c-1.5-2.7-4-4.1-7-3.7c-2.6,0.3-5.1,1-7.6,1.8c-2.7,0.9-4.4,2.9-4.8,5.7
			c-0.2,1.4,0.1,2.9,0.4,4.4c1.6,7.5,0.1,13.6-7,17.6c-1.1,0.6-1.7,1.6-1,2.9c0.7,1.3,1.9,1.4,3.1,0.7c5.4-2.9,8.7-7.3,9.5-13.4
			c0.4-2.7,1.1-3.8,3.9-4.2c1.3-0.2,2.8,0.1,4.1,0.4c1.4,0.4,2.4,0.3,3-1.1c0.6-1.3-0.1-2.4-1.3-2.7c-1.7-0.5-3.5-1-5.3-0.9
			c-1.5,0-3,0.8-4.6,1.3c-0.2-0.9-0.4-1.6-0.5-2.2c-0.6-2.8,0-4,2.7-4.9c1.5-0.5,3-0.8,4.5-1.1c2.6-0.4,3.4,0.1,4.7,2.5
			c1.8,3.5,2.7,7.3,2.7,11.3c0,3.2-1.2,4.5-4.4,4.5c-1.2,0-2.5-0.5-3.6-1c-1.3-0.7-2.4-0.9-3.3,0.5c-0.8,1.3-0.1,2.3,1.1,3
			C8.7,396.6,11.6,397,15,396z M-26,392c-0.9-4.1-0.2-6.9,2.4-8.4c2.6-1.5,6.4-1.4,8.4,0.2c2,1.6,3.1,5.4,2.1,8.1
			c-0.3,0.9-1.4,1.9-2.3,2c-0.7,0.1-1.9-0.9-2.3-1.8c-0.5-1.3-0.3-2.8-0.7-4.1c-0.3-0.8-1.1-1.9-1.9-2.1c-1.3-0.3-2.2,0.7-2.2,2
			c0.1,2,0.2,4.1,0.9,5.9c0.9,2.6,2.9,4.2,5.7,4.3c2.7,0.1,5-1.1,6.1-3.5c2-4.1,1.5-8.3-1-12.1c-2.2-3.3-5.6-4.5-9.4-4.3
			c-6.4,0.4-11,4.9-10.5,10.6c0.4,4.6,2.3,8.7,5.4,12.1c0.9,1,2,1.4,3.2,0.4c1.1-1,0.8-2,0-3.2C-23.4,396.3-24.6,394.1-26,392z
			 M-26.4,428c-0.9,1.8-0.1,3.2,1.6,3.7c2.7,0.8,5.6,1.7,8.4,1.7c16.5,0.2,31.7-4.3,45.6-13.1c2.4-1.6,4.5-3.8,6.4-6
			c1.5-1.8,1.1-3.1-0.3-4.1c-1.8,2-3.5,4.1-5.5,5.8c-8,6.6-17.2,11.1-27.3,13.1C-7.1,431-16.8,431.9-26.4,428z M34.9,371
			c0,0.1,0,0.1,0,0.1c0.5-0.1,0.9-0.3,1.4-0.6c2-1.3,3.9-2.7,5.7-4.4c1.7-1.6,3.3-3.5,4.5-5.5c0.8-1.3,0.8-3.4,0.5-5
			c-0.5-2.5-3.3-4.2-5.7-3.7c-2.5,0.4-4.2,2.6-3.9,5.5c0.2,1.4,1,2.8,1.8,4.1c0.8,1.3,0.8,2.4-0.3,3.4c-0.7,0.6-1.8,1.1-2.7,0.7
			c-0.6-0.2-1.1-0.7-1.6-1.3c-0.5-0.7-1-1.4-1.3-2.2c0,0.5,0.1,1.1,0.2,1.6c0.2,1.5,0.5,2.9,0.7,4.4C34.5,368.2,34.8,370.4,34.9,371
			z M-18.7,416.4c-0.6-1.9-2.8-3.1-4.6-2.6c-2,0.6-3.3,2.8-2.7,4.8c0.6,2,2.8,3.1,4.8,2.5C-19.3,420.5-18.1,418.4-18.7,416.4z
			 M-4.1,416.2c2-0.6,3.2-2.8,2.6-4.8c-0.6-1.9-2.8-3.1-4.7-2.5c-2,0.6-3.2,2.8-2.6,4.8C-8.2,415.6-6.1,416.7-4.1,416.2z
			 M-1.2,418.7c-1.9,0.5-3.2,2.6-2.7,4.6c0.5,2,2.7,3.3,4.7,2.8c1.9-0.5,3.1-2.6,2.7-4.6C3,419.4,0.9,418.1-1.2,418.7z M24.4,399.1
			c-2,0.6-3.2,2.9-2.5,4.8c0.6,1.9,2.8,3,4.7,2.4c2-0.6,3.2-2.8,2.5-4.8C28.5,399.6,26.3,398.5,24.4,399.1z M25.3,412.7
			c-0.6-2.1-2.7-3.2-4.7-2.6c-2,0.6-3.1,2.6-2.6,4.6c0.5,2,2.6,3.2,4.7,2.6C24.7,416.7,25.8,414.6,25.3,412.7z M-9.6,421.6
			c-0.6-2-2.8-3.2-4.8-2.5c-1.9,0.6-3.1,2.7-2.5,4.6c0.6,2,2.8,3.2,4.8,2.6C-10.2,425.7-9,423.5-9.6,421.6z M11.6,417
			c2.1-0.6,3.2-2.6,2.6-4.7c-0.6-2-2.5-3.1-4.5-2.6c-2,0.6-3.2,2.4-2.7,4.5C7.5,416.4,9.5,417.6,11.6,417z M27.3,351.3
			c-0.4-0.4-1.6-0.4-2.1-0.4c-5.6-0.3-11.5,1-17,2.5c-9.3,2.5-18.6,5.2-27.9,8.1c-8.6,2.7-17.5,5.1-25.5,9.2c-1.1,0.6-6,2.6-6.3,3.6
			c-0.9,2.8,10,0,11.3-0.3c19.9-3.7,39.7-9.3,58.4-17.1C19.2,356.5,28.6,352.9,27.3,351.3C27.3,351.3,27.3,351.3,27.3,351.3z"/>
		<path class="st13" d="M610.8,501.7c1.8,1.6,3.5,3.3,5,5.1c2.3,2.8,2.3,3.8,0.4,6.8c-0.2,0.4-0.5,0.8-0.8,1.1
			c-0.2,0.4-0.5,0.7-0.7,1.1c0.2-0.2,0.4-0.4,0.6-0.6c0.2-0.2,0.4-0.3,0.7-0.4c0.7-0.4,1.4-0.7,2.1-0.8c0.8-0.2,1.5-0.1,2.3-0.2
			c1.6-0.1,3.3,0.4,4.8,1.1c2,1,3.6,2.7,4.5,4.7c1.7,3.7,0.8,8.7-2.3,11.8c-1.8,1.9-4,2.9-6.6,3.2c-5.6,0.7-11.1,0.6-16.6-1
			c-1.4-0.4-2.2-0.2-3,1c-5.2,6.6-10.7,13-17.3,18.3c-0.4,0.3-0.6,1.3-0.6,1.9c0.9,5.9-1.6,9.5-7.5,10.4c-5.5,0.9-10.7-0.3-15.9-1.9
			c-13.8-4.3-26.2-11.2-36.6-21.3c-2.7-2.6-5-5.7-6.8-8.9c-3-5.5-1.3-10.7,4.6-12.7c0.5-0.2,1-0.9,1.1-1.4
			c1.6-13.9,6.7-26.8,12-39.6c1.3-3.2,2.9-6.2,4.1-9.4c0.7-1.9,2-2.7,3.9-2.5c9.1,0.9,17.4,5.9,25.6,9.8c8.7,4.1,17.4,8.2,25.7,13
			C599.6,493.5,605.6,497.1,610.8,501.7z M574,532.2c-2.9,1.3-4.9,1-7.1-0.9c-1.1-1-2.2-1.5-3.3-0.3c-1.2,1.3-0.4,2.5,0.6,3.5
			c3,2.9,7.6,3.7,11.4,1.7c7.7-4.1,13.2-10,15.6-18.6c0.8-3,0.1-5.7-2.3-7.6c-2-1.6-4.3-3-6.6-4.1c-2.5-1.3-5.2-1.1-7.4,0.7
			c-1.1,0.9-2,2.2-2.8,3.4c-4.1,6.4-9.6,9.7-17.4,7.5c-1.2-0.4-2.4,0-2.7,1.3c-0.4,1.4,0.4,2.3,1.7,2.7c5.9,1.7,11.3,1,16.2-2.8
			c2.2-1.7,3.5-1.9,5.7-0.2c1.1,0.8,1.9,2,2.6,3.2c0.7,1.3,1.5,1.9,2.9,1.4c1.4-0.5,1.6-1.7,1-2.8c-0.8-1.6-1.8-3.2-3.1-4.4
			c-1.1-1-2.7-1.6-4.1-2.4c0.5-0.8,0.9-1.4,1.2-1.9c1.5-2.4,2.8-2.8,5.4-1.5c1.4,0.7,2.7,1.5,3.9,2.4c2.1,1.6,2.4,2.5,1.6,5
			c-1.2,3.8-3.3,7.1-6.1,9.9c-2.3,2.3-4,2.4-6.3,0.1c-0.9-0.9-1.5-2.1-1.8-3.3c-0.4-1.4-1.1-2.4-2.7-2c-1.5,0.4-1.6,1.6-1.4,2.9
			C569.2,528.2,571,530.5,574,532.2z M547.9,500.4c2.3-3.6,4.7-5.1,7.6-4.3c2.9,0.8,5.5,3.5,5.8,6.1c0.3,2.5-1.6,6-4.2,7.2
			c-0.9,0.4-2.4,0.3-3.1-0.2c-0.6-0.4-0.7-2-0.4-2.8c0.5-1.3,1.8-2.2,2.4-3.4c0.4-0.8,0.6-2.1,0.2-2.8c-0.7-1.1-2.1-1.1-2.9-0.1
			c-1.3,1.5-2.7,3-3.6,4.8c-1.2,2.4-0.9,5,1,7.1c1.8,2,4.3,2.8,6.8,1.9c4.3-1.5,6.9-4.8,7.8-9.3c0.8-3.9-0.7-7.1-3.6-9.7
			c-4.8-4.3-11.2-4.3-14.9,0.1c-2.9,3.5-4.5,7.7-4.7,12.4c-0.1,1.4,0.4,2.4,1.9,2.5c1.5,0.1,2-0.9,2.2-2.3
			C546.7,505.3,547.4,502.9,547.9,500.4z M522.2,525.6c-1.9,0.6-2.3,2.2-1.5,3.8c1.3,2.5,2.7,5.2,4.7,7.2
			c11.5,11.8,25.5,19.4,41.5,23c2.8,0.6,5.9,0.5,8.8,0.3c2.4-0.2,3-1.4,2.7-3.2c-2.7,0.1-5.4,0.5-8,0.2c-10.4-1-20-4.3-28.6-10.1
			C533.7,541.4,526.1,535.1,522.2,525.6z M605.9,528.6c0,0.1-0.1,0.1-0.1,0.1c0.5,0.3,0.9,0.4,1.4,0.5c2.3,0.5,4.7,0.9,7.1,0.9
			c2.4,0.1,4.8-0.2,7.1-0.7c1.5-0.4,3-1.8,3.9-3.2c1.4-2.2,0.6-5.3-1.4-6.7c-2.1-1.5-4.8-1.2-6.6,1.1c-0.9,1.1-1.3,2.7-1.6,4.2
			c-0.4,1.5-1.1,2.3-2.6,2.2c-0.9,0-2-0.5-2.4-1.4c-0.3-0.6-0.3-1.3-0.2-2c0.1-0.9,0.3-1.7,0.7-2.5c-0.3,0.4-0.6,0.8-1,1.3
			c-0.9,1.2-1.7,2.4-2.6,3.6C607.5,526.3,606.2,528.1,605.9,528.6z M535.8,522.8c0.9-1.7,0.2-4.1-1.5-5.1c-1.8-1-4.3-0.3-5.3,1.5
			c-1,1.8-0.2,4.2,1.7,5.2C532.5,525.3,534.8,524.6,535.8,522.8z M546.3,532.9c1.8,1,4.3,0.3,5.2-1.5c0.9-1.8,0.2-4.1-1.5-5.1
			c-1.9-1-4.2-0.3-5.2,1.5C543.8,529.7,544.5,532,546.3,532.9z M546.6,536.8c-1.7-1-4.1-0.4-5.1,1.3c-1.1,1.8-0.5,4.2,1.3,5.3
			c1.7,1,4.1,0.4,5.1-1.4C549,540.2,548.4,537.8,546.6,536.8z M578.5,541.1c-1.8-1-4.3-0.2-5.2,1.6c-0.9,1.8-0.1,4.1,1.7,5
			c1.8,1,4.2,0.2,5.2-1.6C581,544.3,580.3,542,578.5,541.1z M569.5,551.3c1.1-1.9,0.4-4.2-1.5-5.2c-1.8-1-4-0.4-5.1,1.4
			c-1.1,1.8-0.4,4.1,1.5,5.2C566.3,553.7,568.5,553,569.5,551.3z M538.6,532.9c1-1.8,0.3-4.2-1.6-5.2c-1.8-0.9-4-0.3-5,1.5
			c-1,1.8-0.3,4.2,1.6,5.2C535.3,535.4,537.6,534.7,538.6,532.9z M556.7,544.7c1.9,1.1,4.1,0.5,5.2-1.5c1-1.8,0.4-4-1.4-5
			c-1.8-1.1-4-0.5-5.1,1.3C554.3,541.3,554.9,543.6,556.7,544.7z M614.4,509.3c0-0.5-0.8-1.4-1.2-1.8c-3.7-4.2-8.9-7.5-13.8-10.3
			c-8.4-4.8-16.8-9.5-25.4-14c-8-4.2-16-8.8-24.5-11.5c-1.2-0.4-6.1-2.4-7-1.9c-2.6,1.4,7.1,7.1,8.2,7.8
			c16.7,11.4,34.6,21.5,53.3,29.2C605,507.3,614.2,511.4,614.4,509.3C614.4,509.3,614.4,509.3,614.4,509.3z"/>
		<path class="st13" d="M80.9,78.2c1.8,1.6,3.5,3.3,5,5.1c2.3,2.8,2.3,3.8,0.4,6.8c-0.2,0.4-0.5,0.8-0.7,1.1
			c-0.2,0.4-0.5,0.7-0.7,1.1c0.2-0.2,0.4-0.4,0.6-0.6c0.2-0.2,0.4-0.3,0.7-0.4c0.7-0.4,1.4-0.7,2.1-0.8c0.8-0.2,1.5-0.1,2.3-0.2
			c1.6-0.1,3.3,0.4,4.8,1.1c2,1,3.6,2.7,4.5,4.7c1.7,3.7,0.8,8.7-2.3,11.8c-1.8,1.9-4,2.9-6.6,3.2c-5.6,0.7-11.1,0.6-16.6-1
			c-1.4-0.4-2.2-0.2-3,1c-5.2,6.6-10.7,13-17.3,18.3c-0.4,0.3-0.6,1.3-0.6,1.9c0.9,5.9-1.6,9.5-7.5,10.4c-5.5,0.9-10.7-0.3-15.9-1.9
			C16.4,135.3,4,128.4-6.5,118.3c-2.7-2.6-5-5.7-6.8-8.9c-3-5.5-1.3-10.7,4.6-12.7c0.5-0.2,1-0.9,1.1-1.4c1.6-13.9,6.7-26.8,12-39.6
			c1.3-3.2,2.9-6.2,4.1-9.4c0.7-1.9,2-2.7,3.9-2.5c9.1,0.9,17.4,5.9,25.6,9.8c8.7,4.1,17.4,8.2,25.7,13C69.7,70,75.7,73.6,80.9,78.2
			z M44.1,108.6c-2.9,1.3-4.9,1-7.1-0.9c-1.1-1-2.2-1.5-3.3-0.3c-1.2,1.3-0.4,2.5,0.6,3.5c3,2.9,7.6,3.7,11.4,1.7
			c7.7-4.1,13.2-10,15.6-18.6c0.8-3,0.1-5.7-2.3-7.6c-2-1.6-4.3-3-6.6-4.1c-2.5-1.3-5.2-1.1-7.4,0.7c-1.1,0.9-2,2.2-2.8,3.4
			c-4.1,6.4-9.6,9.7-17.4,7.5c-1.2-0.4-2.4,0-2.7,1.3c-0.4,1.4,0.4,2.3,1.7,2.7c5.9,1.7,11.3,1,16.2-2.8c2.2-1.7,3.5-1.9,5.7-0.2
			c1.1,0.8,1.9,2,2.6,3.2c0.7,1.3,1.5,1.9,2.9,1.4c1.4-0.5,1.6-1.7,1-2.8c-0.8-1.6-1.8-3.2-3.1-4.4c-1.1-1-2.7-1.6-4.1-2.4
			c0.5-0.8,0.9-1.4,1.2-1.9c1.5-2.4,2.8-2.8,5.4-1.5c1.4,0.7,2.7,1.5,3.9,2.4c2.1,1.6,2.4,2.5,1.6,5c-1.2,3.8-3.3,7.1-6.1,9.9
			c-2.3,2.3-4,2.4-6.3,0.1c-0.9-0.9-1.5-2.1-1.8-3.3c-0.4-1.4-1.1-2.4-2.7-2c-1.5,0.4-1.6,1.6-1.4,2.9
			C39.3,104.7,41.1,107,44.1,108.6z M18,76.9c2.3-3.6,4.7-5.1,7.6-4.3c2.9,0.8,5.5,3.5,5.8,6.1c0.3,2.5-1.6,6-4.2,7.2
			c-0.9,0.4-2.4,0.3-3.1-0.2c-0.6-0.4-0.7-2-0.4-2.8c0.5-1.3,1.8-2.2,2.4-3.4c0.4-0.8,0.6-2.1,0.2-2.8c-0.7-1.1-2.1-1.1-2.9-0.1
			c-1.3,1.5-2.7,3-3.6,4.8c-1.2,2.4-0.9,5,1,7.1c1.8,2,4.3,2.8,6.8,1.9c4.3-1.5,6.9-4.8,7.8-9.3c0.8-3.9-0.7-7.1-3.6-9.7
			c-4.8-4.3-11.2-4.3-14.9,0.1c-2.9,3.5-4.5,7.7-4.7,12.4c-0.1,1.4,0.4,2.4,1.9,2.5c1.5,0.1,2-0.9,2.2-2.3
			C16.8,81.8,17.5,79.3,18,76.9z M-7.7,102c-1.9,0.6-2.3,2.2-1.5,3.8c1.3,2.5,2.7,5.2,4.7,7.2C7.1,124.7,21,132.4,37,136
			c2.8,0.6,5.9,0.5,8.8,0.3c2.4-0.2,3-1.4,2.7-3.2c-2.7,0.1-5.4,0.5-8,0.2c-10.4-1-20-4.3-28.6-10.1C3.8,117.8-3.8,111.6-7.7,102z
			 M76,105.1c0,0.1-0.1,0.1-0.1,0.1c0.5,0.3,0.9,0.4,1.4,0.5c2.3,0.5,4.7,0.9,7.1,0.9c2.4,0.1,4.8-0.2,7.1-0.7
			c1.5-0.4,3-1.8,3.9-3.2c1.4-2.2,0.6-5.3-1.4-6.7c-2.1-1.5-4.8-1.2-6.6,1.1c-0.9,1.1-1.3,2.7-1.6,4.2c-0.4,1.5-1.1,2.3-2.6,2.2
			c-0.9,0-2-0.5-2.4-1.4c-0.3-0.6-0.3-1.3-0.2-2c0.1-0.9,0.3-1.7,0.7-2.5c-0.3,0.4-0.6,0.8-1,1.3c-0.9,1.2-1.7,2.4-2.6,3.6
			C77.6,102.8,76.3,104.6,76,105.1z M5.9,99.3c0.9-1.7,0.2-4.1-1.5-5.1c-1.8-1-4.3-0.3-5.3,1.5c-1,1.8-0.2,4.2,1.7,5.2
			C2.6,101.8,4.9,101.1,5.9,99.3z M16.4,109.4c1.8,1,4.3,0.3,5.2-1.5c0.9-1.8,0.2-4.1-1.5-5.1c-1.9-1-4.2-0.3-5.2,1.5
			C13.9,106.1,14.6,108.4,16.4,109.4z M16.7,113.2c-1.7-1-4.1-0.4-5.1,1.3c-1.1,1.8-0.5,4.2,1.3,5.3c1.7,1,4.1,0.4,5.1-1.4
			C19.1,116.7,18.5,114.3,16.7,113.2z M48.6,117.5c-1.8-1-4.3-0.2-5.2,1.6c-0.9,1.8-0.1,4.1,1.7,5c1.8,1,4.2,0.2,5.2-1.6
			C51.1,120.8,50.4,118.5,48.6,117.5z M39.6,127.8c1.1-1.9,0.4-4.2-1.5-5.2c-1.8-1-4-0.4-5.1,1.4c-1.1,1.8-0.4,4.1,1.5,5.2
			C36.4,130.1,38.6,129.5,39.6,127.8z M8.7,109.4c1-1.8,0.3-4.2-1.6-5.2c-1.8-0.9-4-0.3-5,1.5c-1,1.8-0.3,4.2,1.6,5.2
			C5.4,111.8,7.7,111.1,8.7,109.4z M26.8,121.1c1.9,1.1,4.1,0.5,5.2-1.5c1-1.8,0.4-4-1.4-5c-1.8-1.1-4-0.5-5.1,1.3
			C24.4,117.7,25,120.1,26.8,121.1z M84.5,85.7c0-0.5-0.8-1.4-1.2-1.8c-3.7-4.2-8.9-7.5-13.8-10.3c-8.4-4.8-16.8-9.5-25.4-14
			c-8-4.2-16-8.8-24.5-11.5c-1.2-0.4-6.1-2.4-7-1.9c-2.6,1.4,7.1,7.1,8.2,7.8c16.7,11.4,34.6,21.5,53.3,29.2
			C75.1,83.7,84.3,87.9,84.5,85.7C84.5,85.8,84.5,85.8,84.5,85.7z"/>
		<path class="st13" d="M544.1,209.6c2.4-0.1,4.7-0.1,7.1,0.1c3.6,0.3,4.3,1,5.1,4.5c0.1,0.4,0.2,0.9,0.3,1.3
			c0.1,0.4,0.2,0.9,0.3,1.3c0-0.3,0-0.6,0-0.9c0-0.2,0.1-0.5,0.2-0.7c0.2-0.7,0.5-1.4,0.9-2.1c0.4-0.7,0.9-1.2,1.5-1.7
			c1.1-1.2,2.6-2.1,4.1-2.6c2.1-0.8,4.4-0.6,6.5,0.1c3.8,1.3,6.7,5.6,6.7,9.9c0,2.6-0.8,4.9-2.4,6.9c-3.5,4.4-7.4,8.3-12.4,11
			c-1.2,0.7-1.6,1.4-1.5,2.8c1,8.4,1.6,16.7,0.7,25.1c-0.1,0.5,0.4,1.4,0.9,1.7c4.8,3.5,5.6,7.8,2.1,12.7c-3.2,4.5-7.8,7.4-12.6,9.9
			c-12.8,6.7-26.4,10.6-40.9,10.9c-3.7,0.1-7.5-0.5-11.1-1.5c-6-1.7-8.5-6.6-5.7-12.2c0.2-0.4,0.1-1.3-0.2-1.7
			c-8.7-11-14.2-23.7-19.6-36.5c-1.3-3.2-2.4-6.4-3.8-9.6c-0.8-1.9-0.5-3.3,1-4.5c7.1-5.8,16.5-8.1,25-11.2c9-3.2,18.1-6.5,27.4-9
			C530.3,211.7,537.2,210,544.1,209.6z M539.6,257.1c-1.1,3-2.7,4.2-5.7,4.4c-1.5,0.1-2.6,0.6-2.6,2.2c0,1.8,1.5,2,2.9,2
			c4.1-0.1,8-2.7,9.3-6.8c2.6-8.3,2.2-16.5-2.2-24.2c-1.5-2.7-4-4.1-7-3.7c-2.6,0.3-5.1,1-7.6,1.8c-2.7,0.9-4.4,2.9-4.8,5.7
			c-0.2,1.4,0.1,2.9,0.4,4.4c1.6,7.5,0.1,13.6-7,17.6c-1.1,0.6-1.7,1.6-1,2.9c0.7,1.3,1.9,1.4,3.1,0.7c5.4-2.9,8.7-7.3,9.5-13.4
			c0.4-2.7,1.1-3.8,3.9-4.2c1.3-0.2,2.8,0.1,4.1,0.4c1.4,0.4,2.4,0.3,3-1.1c0.6-1.3-0.1-2.4-1.3-2.7c-1.7-0.5-3.5-1-5.3-0.9
			c-1.5,0-3,0.8-4.6,1.3c-0.2-0.9-0.4-1.6-0.5-2.2c-0.6-2.8,0-4,2.7-4.9c1.5-0.5,3-0.8,4.5-1.1c2.6-0.4,3.4,0.1,4.7,2.5
			c1.8,3.5,2.7,7.3,2.7,11.3c0,3.2-1.2,4.5-4.4,4.5c-1.2,0-2.5-0.5-3.6-1c-1.3-0.7-2.4-0.9-3.3,0.5c-0.8,1.3-0.1,2.3,1.1,3
			C533.4,257.8,536.3,258.1,539.6,257.1z M498.7,253.2c-0.9-4.1-0.2-6.9,2.4-8.4c2.6-1.5,6.4-1.4,8.4,0.2c2,1.6,3.1,5.4,2.1,8.1
			c-0.3,0.9-1.4,1.9-2.3,2c-0.7,0.1-1.9-0.9-2.3-1.8c-0.5-1.3-0.3-2.8-0.7-4.1c-0.3-0.8-1.1-1.9-1.9-2.1c-1.3-0.3-2.2,0.7-2.2,2
			c0.1,2,0.2,4.1,0.9,5.9c0.9,2.6,2.9,4.2,5.7,4.3c2.7,0.1,5-1.1,6.1-3.5c2-4.1,1.5-8.3-1-12.1c-2.2-3.3-5.6-4.5-9.4-4.3
			c-6.4,0.4-11,4.9-10.5,10.6c0.4,4.6,2.3,8.7,5.4,12.1c0.9,1,2,1.4,3.2,0.4c1.1-1,0.8-2,0-3.2C501.3,257.5,500,255.3,498.7,253.2z
			 M498.3,289.1c-0.9,1.8-0.1,3.2,1.6,3.7c2.7,0.8,5.6,1.7,8.4,1.7c16.5,0.2,31.7-4.3,45.6-13.1c2.4-1.6,4.5-3.8,6.4-6
			c1.5-1.8,1.1-3.1-0.3-4.1c-1.8,2-3.5,4.1-5.5,5.8c-8,6.6-17.2,11.1-27.3,13.1C517.6,292.2,507.8,293.1,498.3,289.1z M559.6,232.1
			c0,0.1,0,0.1,0,0.1c0.5-0.1,0.9-0.3,1.4-0.6c2-1.3,3.9-2.7,5.7-4.4c1.7-1.6,3.3-3.5,4.5-5.5c0.8-1.3,0.8-3.4,0.5-5
			c-0.5-2.5-3.3-4.2-5.7-3.7c-2.5,0.4-4.2,2.6-3.9,5.5c0.2,1.4,1,2.8,1.8,4.1c0.8,1.3,0.8,2.4-0.3,3.4c-0.7,0.6-1.8,1.1-2.7,0.7
			c-0.6-0.2-1.1-0.7-1.6-1.3c-0.5-0.7-1-1.4-1.3-2.2c0,0.5,0.1,1.1,0.2,1.6c0.2,1.5,0.5,2.9,0.7,4.4
			C559.1,229.4,559.5,231.6,559.6,232.1z M505.9,277.6c-0.6-1.9-2.8-3.1-4.6-2.6c-2,0.6-3.3,2.8-2.7,4.8c0.6,2,2.8,3.1,4.8,2.5
			C505.4,281.7,506.5,279.5,505.9,277.6z M520.5,277.3c2-0.6,3.2-2.8,2.6-4.8c-0.6-1.9-2.8-3.1-4.7-2.5c-2,0.6-3.2,2.8-2.6,4.8
			C516.5,276.8,518.6,277.9,520.5,277.3z M523.5,279.8c-1.9,0.5-3.2,2.6-2.7,4.6c0.5,2,2.7,3.3,4.7,2.8c1.9-0.5,3.1-2.6,2.7-4.6
			C527.6,280.5,525.5,279.3,523.5,279.8z M549.1,260.3c-2,0.6-3.2,2.9-2.5,4.8c0.6,1.9,2.8,3,4.7,2.4c2-0.6,3.2-2.8,2.5-4.8
			C553.1,260.8,551,259.7,549.1,260.3z M549.9,273.9c-0.6-2.1-2.7-3.2-4.7-2.6c-2,0.6-3.1,2.6-2.6,4.6c0.5,2,2.6,3.2,4.7,2.6
			C549.3,277.8,550.5,275.8,549.9,273.9z M515.1,282.8c-0.6-2-2.8-3.2-4.8-2.5c-1.9,0.6-3.1,2.7-2.5,4.6c0.6,2,2.8,3.2,4.8,2.6
			C514.5,286.8,515.6,284.7,515.1,282.8z M536.2,278.2c2.1-0.6,3.2-2.6,2.6-4.7c-0.6-2-2.5-3.1-4.5-2.6c-2,0.6-3.2,2.4-2.7,4.5
			C532.1,277.5,534.2,278.8,536.2,278.2z M552,212.4c-0.4-0.4-1.6-0.4-2.1-0.4c-5.6-0.3-11.5,1-17,2.5c-9.3,2.5-18.6,5.2-27.9,8.1
			c-8.6,2.7-17.5,5.1-25.5,9.2c-1.1,0.6-6,2.6-6.3,3.6c-0.9,2.8,10,0,11.3-0.3c19.9-3.7,39.7-9.3,58.4-17.1
			C543.9,217.7,553.3,214.1,552,212.4C552,212.4,552,212.4,552,212.4z"/>
		<path class="st13" d="M536.8,8c1.8,1.6,3.5,3.3,5,5.1c2.3,2.8,2.3,3.8,0.4,6.8c-0.2,0.4-0.5,0.8-0.8,1.1c-0.2,0.4-0.5,0.7-0.7,1.1
			c0.2-0.2,0.4-0.4,0.6-0.6c0.2-0.2,0.4-0.3,0.7-0.4c0.7-0.4,1.4-0.7,2.1-0.8c0.8-0.2,1.5-0.1,2.3-0.2c1.6-0.1,3.3,0.4,4.8,1.1
			c2,1,3.6,2.7,4.5,4.7c1.7,3.7,0.8,8.7-2.3,11.8c-1.8,1.9-4,2.9-6.6,3.2c-5.6,0.7-11.1,0.6-16.6-1c-1.4-0.4-2.2-0.2-3,1
			c-5.2,6.6-10.7,13-17.3,18.3c-0.4,0.3-0.6,1.3-0.6,1.9c0.9,5.9-1.6,9.5-7.5,10.4c-5.5,0.9-10.7-0.3-15.9-1.9
			c-13.8-4.3-26.2-11.2-36.6-21.3c-2.7-2.6-5-5.7-6.8-8.9c-3-5.5-1.3-10.7,4.6-12.7c0.5-0.2,1-0.9,1.1-1.4
			c1.6-13.9,6.7-26.8,12-39.6c1.3-3.2,2.9-6.2,4.1-9.4c0.7-1.9,2-2.7,3.9-2.5c9.1,0.9,17.4,5.9,25.6,9.8c8.7,4.1,17.4,8.2,25.7,13
			C525.6-0.2,531.6,3.4,536.8,8z M500,38.5c-2.9,1.3-4.9,1-7.1-0.9c-1.1-1-2.2-1.5-3.3-0.3c-1.2,1.3-0.4,2.5,0.6,3.5
			c3,2.9,7.6,3.7,11.4,1.7c7.7-4.1,13.2-10,15.6-18.6c0.8-3,0.1-5.7-2.3-7.6c-2-1.6-4.3-3-6.6-4.1c-2.5-1.3-5.2-1.1-7.4,0.7
			c-1.1,0.9-2,2.2-2.8,3.4c-4.1,6.4-9.6,9.7-17.4,7.5c-1.2-0.4-2.4,0-2.7,1.3c-0.4,1.4,0.4,2.3,1.7,2.7c5.9,1.7,11.3,1,16.2-2.8
			c2.2-1.7,3.5-1.9,5.7-0.2c1.1,0.8,1.9,2,2.6,3.2c0.7,1.3,1.5,1.9,2.9,1.4c1.4-0.5,1.6-1.7,1-2.8c-0.8-1.6-1.8-3.2-3.1-4.4
			c-1.1-1-2.7-1.6-4.1-2.4c0.5-0.8,0.9-1.4,1.2-1.9c1.5-2.4,2.8-2.8,5.4-1.5c1.4,0.7,2.7,1.5,3.9,2.4c2.1,1.6,2.4,2.5,1.6,5
			c-1.2,3.8-3.3,7.1-6.1,9.9c-2.3,2.3-4,2.4-6.3,0.1c-0.9-0.9-1.5-2.1-1.8-3.3c-0.4-1.4-1.1-2.4-2.7-2c-1.5,0.4-1.6,1.6-1.4,2.9
			C495.2,34.5,497,36.8,500,38.5z M473.9,6.7c2.3-3.6,4.7-5.1,7.6-4.3c2.9,0.8,5.5,3.5,5.8,6.1c0.3,2.5-1.6,6-4.2,7.2
			c-0.9,0.4-2.4,0.3-3.1-0.2c-0.6-0.4-0.7-2-0.4-2.8c0.5-1.3,1.8-2.2,2.4-3.4c0.4-0.8,0.6-2.1,0.2-2.8c-0.7-1.1-2.1-1.1-2.9-0.1
			c-1.3,1.5-2.7,3-3.6,4.8c-1.2,2.4-0.9,5,1,7.1c1.8,2,4.3,2.8,6.8,1.9c4.3-1.5,6.9-4.8,7.8-9.3c0.8-3.9-0.7-7.1-3.6-9.7
			C482.9-3,476.5-3,472.8,1.4c-2.9,3.5-4.5,7.7-4.7,12.4c-0.1,1.4,0.4,2.4,1.9,2.5c1.5,0.1,2-0.9,2.2-2.3
			C472.7,11.6,473.3,9.2,473.9,6.7z M448.2,31.9c-1.9,0.6-2.3,2.2-1.5,3.8c1.3,2.5,2.7,5.2,4.7,7.2c11.5,11.8,25.5,19.4,41.5,23
			c2.8,0.6,5.9,0.5,8.8,0.3c2.4-0.2,3-1.4,2.7-3.2c-2.7,0.1-5.4,0.5-8,0.2c-10.4-1-20-4.3-28.6-10.1
			C459.6,47.7,452.1,41.4,448.2,31.9z M531.8,34.9c0,0.1-0.1,0.1-0.1,0.1c0.5,0.3,0.9,0.4,1.4,0.5c2.3,0.5,4.7,0.9,7.1,0.9
			c2.4,0.1,4.8-0.2,7.1-0.7c1.5-0.4,3-1.8,3.9-3.2c1.4-2.2,0.6-5.3-1.4-6.7c-2.1-1.5-4.8-1.2-6.6,1.1c-0.9,1.1-1.3,2.7-1.6,4.2
			c-0.4,1.5-1.1,2.3-2.6,2.2c-0.9,0-2-0.5-2.4-1.4c-0.3-0.6-0.3-1.3-0.2-2c0.1-0.9,0.3-1.7,0.7-2.5c-0.3,0.4-0.6,0.8-1,1.3
			c-0.9,1.2-1.7,2.4-2.6,3.6C533.5,32.6,532.2,34.4,531.8,34.9z M461.7,29.1c0.9-1.7,0.2-4.1-1.5-5.1c-1.8-1-4.3-0.3-5.3,1.5
			c-1,1.8-0.2,4.2,1.7,5.2C458.5,31.6,460.8,30.9,461.7,29.1z M472.2,39.2c1.8,1,4.3,0.3,5.2-1.5c0.9-1.8,0.2-4.1-1.5-5.1
			c-1.9-1-4.2-0.3-5.2,1.5C469.8,36,470.5,38.3,472.2,39.2z M472.6,43.1c-1.7-1-4.1-0.4-5.1,1.3c-1.1,1.8-0.5,4.2,1.3,5.3
			c1.7,1,4.1,0.4,5.1-1.4C475,46.5,474.4,44.1,472.6,43.1z M504.5,47.4c-1.8-1-4.3-0.2-5.2,1.6c-0.9,1.8-0.1,4.1,1.7,5
			c1.8,1,4.2,0.2,5.2-1.6C507,50.6,506.2,48.3,504.5,47.4z M495.5,57.6c1.1-1.9,0.4-4.2-1.5-5.2c-1.8-1-4-0.4-5.1,1.4
			c-1.1,1.8-0.4,4.1,1.5,5.2C492.2,60,494.5,59.3,495.5,57.6z M464.6,39.2c1-1.8,0.3-4.2-1.6-5.2c-1.8-0.9-4-0.3-5,1.5
			c-1,1.8-0.3,4.2,1.6,5.2C461.3,41.7,463.6,41,464.6,39.2z M482.7,51c1.9,1.1,4.1,0.5,5.2-1.5c1-1.8,0.4-4-1.4-5
			c-1.8-1.1-4-0.5-5.1,1.3C480.3,47.6,480.9,49.9,482.7,51z M540.4,15.6c0-0.5-0.8-1.4-1.2-1.8c-3.7-4.2-8.9-7.5-13.8-10.3
			C517-1.4,508.6-6,500-10.5c-8-4.2-16-8.8-24.5-11.5c-1.2-0.4-6.1-2.4-7-1.9c-2.6,1.4,7.1,7.1,8.2,7.8
			C493.3-4.6,511.3,5.4,530,13.2C531,13.6,540.2,17.7,540.4,15.6C540.4,15.6,540.4,15.6,540.4,15.6z"/>
		<path class="st13" d="M394.8,423.4c1.8,1.6,3.5,3.3,5,5.1c2.3,2.8,2.3,3.8,0.4,6.8c-0.2,0.4-0.5,0.8-0.8,1.1
			c-0.2,0.4-0.5,0.7-0.7,1.1c0.2-0.2,0.4-0.4,0.6-0.6c0.2-0.2,0.4-0.3,0.7-0.4c0.7-0.4,1.4-0.7,2.1-0.8c0.8-0.2,1.5-0.1,2.3-0.2
			c1.6-0.1,3.3,0.4,4.8,1.1c2,1,3.6,2.7,4.5,4.7c1.7,3.7,0.8,8.7-2.3,11.8c-1.8,1.9-4,2.9-6.6,3.2c-5.6,0.7-11.1,0.6-16.6-1
			c-1.4-0.4-2.2-0.2-3,1c-5.2,6.6-10.7,13-17.3,18.3c-0.4,0.3-0.6,1.3-0.6,1.9c0.9,5.9-1.6,9.5-7.5,10.4c-5.5,0.9-10.7-0.3-15.9-1.9
			c-13.8-4.3-26.2-11.2-36.6-21.3c-2.7-2.6-5-5.7-6.8-8.9c-3-5.5-1.3-10.7,4.6-12.7c0.5-0.2,1-0.9,1.1-1.4
			c1.6-13.9,6.7-26.8,12-39.6c1.3-3.2,2.9-6.2,4.1-9.4c0.7-1.9,2-2.7,3.9-2.5c9.1,0.9,17.4,5.9,25.6,9.8c8.7,4.1,17.4,8.2,25.7,13
			C383.6,415.2,389.6,418.8,394.8,423.4z M358,453.8c-2.9,1.3-4.9,1-7.1-0.9c-1.1-1-2.2-1.5-3.3-0.3c-1.2,1.3-0.4,2.5,0.6,3.5
			c3,2.9,7.6,3.7,11.4,1.7c7.7-4.1,13.2-10,15.6-18.6c0.8-3,0.1-5.7-2.3-7.6c-2-1.6-4.3-3-6.6-4.1c-2.5-1.3-5.2-1.1-7.4,0.7
			c-1.1,0.9-2,2.2-2.8,3.4c-4.1,6.4-9.6,9.7-17.4,7.5c-1.2-0.4-2.4,0-2.7,1.3c-0.4,1.4,0.4,2.3,1.7,2.7c5.9,1.7,11.3,1,16.2-2.8
			c2.2-1.7,3.5-1.9,5.7-0.2c1.1,0.8,1.9,2,2.6,3.2c0.7,1.3,1.5,1.9,2.9,1.4c1.4-0.5,1.6-1.7,1-2.8c-0.8-1.6-1.8-3.2-3.1-4.4
			c-1.1-1-2.7-1.6-4.1-2.4c0.5-0.8,0.9-1.4,1.2-1.9c1.5-2.4,2.8-2.8,5.4-1.5c1.4,0.7,2.7,1.5,3.9,2.4c2.1,1.6,2.4,2.5,1.6,5
			c-1.2,3.8-3.3,7.1-6.1,9.9c-2.3,2.3-4,2.4-6.3,0.1c-0.9-0.9-1.5-2.1-1.8-3.3c-0.4-1.4-1.1-2.4-2.7-2c-1.5,0.4-1.6,1.6-1.4,2.9
			C353.2,449.8,355,452.1,358,453.8z M331.9,422.1c2.3-3.6,4.7-5.1,7.6-4.3c2.9,0.8,5.5,3.5,5.8,6.1c0.3,2.5-1.6,6-4.2,7.2
			c-0.9,0.4-2.4,0.3-3.1-0.2c-0.6-0.4-0.7-2-0.4-2.8c0.5-1.3,1.8-2.2,2.4-3.4c0.4-0.8,0.6-2.1,0.2-2.8c-0.7-1.1-2.1-1.1-2.9-0.1
			c-1.3,1.5-2.7,3-3.6,4.8c-1.2,2.4-0.9,5,1,7.1c1.8,2,4.3,2.8,6.8,1.9c4.3-1.5,6.9-4.8,7.8-9.3c0.8-3.9-0.7-7.1-3.6-9.7
			c-4.8-4.3-11.2-4.3-14.9,0.1c-2.9,3.5-4.5,7.7-4.7,12.4c-0.1,1.4,0.4,2.4,1.9,2.5c1.5,0.1,2-0.9,2.2-2.3
			C330.7,427,331.3,424.5,331.9,422.1z M306.2,447.2c-1.9,0.6-2.3,2.2-1.5,3.8c1.3,2.5,2.7,5.2,4.7,7.2c11.5,11.8,25.5,19.4,41.5,23
			c2.8,0.6,5.9,0.5,8.8,0.3c2.4-0.2,3-1.4,2.7-3.2c-2.7,0.1-5.4,0.5-8,0.2c-10.4-1-20-4.3-28.6-10.1
			C317.6,463,310.1,456.8,306.2,447.2z M389.8,450.3c0,0.1-0.1,0.1-0.1,0.1c0.5,0.3,0.9,0.4,1.4,0.5c2.3,0.5,4.7,0.9,7.1,0.9
			c2.4,0.1,4.8-0.2,7.1-0.7c1.5-0.4,3-1.8,3.9-3.2c1.4-2.2,0.6-5.3-1.4-6.7c-2.1-1.5-4.8-1.2-6.6,1.1c-0.9,1.1-1.3,2.7-1.6,4.2
			c-0.4,1.5-1.1,2.3-2.6,2.2c-0.9,0-2-0.5-2.4-1.4c-0.3-0.6-0.3-1.3-0.2-2c0.1-0.9,0.3-1.7,0.7-2.5c-0.3,0.4-0.6,0.8-1,1.3
			c-0.9,1.2-1.7,2.4-2.6,3.6C391.5,448,390.1,449.8,389.8,450.3z M319.7,444.5c0.9-1.7,0.2-4.1-1.5-5.1c-1.8-1-4.3-0.3-5.3,1.5
			c-1,1.8-0.2,4.2,1.7,5.2C316.5,447,318.8,446.3,319.7,444.5z M330.2,454.6c1.8,1,4.3,0.3,5.2-1.5c0.9-1.8,0.2-4.1-1.5-5.1
			c-1.9-1-4.2-0.3-5.2,1.5C327.8,451.3,328.5,453.6,330.2,454.6z M330.5,458.4c-1.7-1-4.1-0.4-5.1,1.3c-1.1,1.8-0.5,4.2,1.3,5.3
			c1.7,1,4.1,0.4,5.1-1.4C333,461.9,332.4,459.5,330.5,458.4z M362.5,462.7c-1.8-1-4.3-0.2-5.2,1.6c-0.9,1.8-0.1,4.1,1.7,5
			c1.8,1,4.2,0.2,5.2-1.6C365,466,364.2,463.7,362.5,462.7z M353.5,472.9c1.1-1.9,0.4-4.2-1.5-5.2c-1.8-1-4-0.4-5.1,1.4
			c-1.1,1.8-0.4,4.1,1.5,5.2C350.2,475.3,352.5,474.7,353.5,472.9z M322.6,454.6c1-1.8,0.3-4.2-1.6-5.2c-1.8-0.9-4-0.3-5,1.5
			c-1,1.8-0.3,4.2,1.6,5.2C319.3,457,321.6,456.3,322.6,454.6z M340.7,466.3c1.9,1.1,4.1,0.5,5.2-1.5c1-1.8,0.4-4-1.4-5
			c-1.8-1.1-4-0.5-5.1,1.3C338.3,462.9,338.9,465.3,340.7,466.3z M398.4,430.9c0-0.5-0.8-1.4-1.2-1.8c-3.7-4.2-8.9-7.5-13.8-10.3
			c-8.4-4.8-16.8-9.5-25.4-14c-8-4.2-16-8.8-24.5-11.5c-1.2-0.4-6.1-2.4-7-1.9c-2.6,1.4,7.1,7.1,8.2,7.8
			c16.7,11.4,34.6,21.5,53.3,29.2C388.9,428.9,398.2,433,398.4,430.9C398.4,430.9,398.4,430.9,398.4,430.9z"/>
		<path class="st13" d="M237.5,143.4c0.1-17.4,11.8-29,26.4-27.3c6.5,0.8,10.2,4.4,9.9,9.7c-0.4,6.9-5.2,7.5-10.6,7.3
			C253.6,132.7,245,135.2,237.5,143.4z"/>
		<path class="st13" d="M52.8,37C66.1,25.7,67.6,9.4,56.9-0.7C52.2-5.2,47-5.8,43.1-2.2c-5,4.7-2.4,8.8,1.2,12.8
			C50.8,17.8,54.4,26,52.8,37z"/>
		<path class="st13" d="M226.7,656.4c-12.9-11.8-13.7-28.2-2.7-37.8c4.9-4.3,10.1-4.7,13.8-0.9c4.8,4.9,2.1,8.9-1.7,12.7
			C229.5,637.4,225.6,645.4,226.7,656.4z"/>
		<path class="st13" d="M392.3,386.7c9-15,24.9-19,36.6-10.1c5.2,4,6.6,8.9,3.6,13.4c-3.8,5.7-8.3,3.8-12.8,0.9
			C411.5,385.6,402.8,383.4,392.3,386.7z"/>
		<path class="st13" d="M587,455.5c5.3-23.5,24.5-35.7,43.7-29c8.6,3,12.5,8.9,10.5,16c-2.6,9.2-9.3,8.6-16.5,6.7
			C611.8,445.8,599.5,446.6,587,455.5z"/>
		<path class="st13" d="M519.7,655.1c-13-20.3-8.3-42.5,9.9-51.5c8.1-4,15.1-2.7,18.8,3.8c4.7,8.3-0.4,12.6-6.8,16.4
			C530.1,630.6,522,640,519.7,655.1z"/>
		<path class="st13" d="M196.4,661c13-20.3,8.3-42.5-9.9-51.5c-8.1-4-15.1-2.7-18.8,3.8c-4.7,8.3,0.4,12.6,6.8,16.4
			C185.9,636.5,194,645.9,196.4,661z"/>
		<path class="st13" d="M175.7,438.6c-15.5-18.5-13.6-41.1,3.3-52.3c7.6-5,14.7-4.6,19.1,1.3c5.7,7.6,1.2,12.6-4.7,17.2
			C183,413,176.2,423.3,175.7,438.6z"/>
		<path class="st13" d="M374.7,368.4c22.4-8.9,31.5-29.7,22-47.6c-4.3-8-10.7-11-17.5-7.9c-8.7,4-7.1,10.5-4.1,17.3
			C380.5,342.4,381.6,354.7,374.7,368.4z"/>
		<path class="st13" d="M515.5,191.5c21.4-11.1,28.4-32.7,17.1-49.6c-5-7.5-11.8-9.9-18.2-6.2c-8.2,4.8-6,11.1-2.3,17.6
			C518.6,165.1,520.9,177.2,515.5,191.5z"/>
		<path class="st13" d="M203,140.6c3.6-23.8-9.7-42.2-30.1-43c-9.1-0.3-14.9,3.7-15.7,11.1c-0.9,9.5,5.5,11.4,12.9,12.2
			C183.5,122.5,194.7,127.8,203,140.6z"/>
		<path class="st13" d="M-4.6,340c-10.7-13.8-8.7-30.1,3.9-37.7c5.6-3.4,10.7-2.9,13.8,1.5c3.9,5.7,0.5,9.1-3.8,12.3
			C1.3,321.7-3.9,329-4.6,340z"/>
		<path class="st13" d="M523,685.5c-1.1-17.4,9.7-29.8,24.4-29.1c6.5,0.3,10.5,3.6,10.6,9c0.1,6.9-4.7,7.9-10.1,8
			C538.2,673.7,529.8,676.8,523,685.5z"/>
		<path class="st13" d="M492.7,208.8c4.2-16.9-4.1-31.1-18.7-33c-6.5-0.9-11,1.6-12,6.9c-1.3,6.8,3.2,8.6,8.4,9.7
			C479.8,194.4,487.5,199,492.7,208.8z"/>
		<path class="st13" d="M564,453.2c11.2-13.3,9.9-29.7-2.3-37.9c-5.5-3.6-10.6-3.3-13.8,0.9c-4.2,5.5-0.9,9.1,3.3,12.4
			C558.8,434.7,563.7,442.1,564,453.2z"/>
		<path class="st13" d="M146,451.8c11.2-13.3,9.9-29.7-2.3-37.9c-5.5-3.6-10.6-3.3-13.8,0.9c-4.2,5.5-0.9,9.1,3.3,12.4
			C140.8,433.3,145.7,440.7,146,451.8z"/>
		<path class="st13" d="M368.3,10.9c-4,4.2-8.3,7.2-10.4,11.3c-2,3.9-1.6,9-2.5,15.2c-3.8-5.3-5.9-10.2-9.6-12.9
			c-3.5-2.6-8.7-3-15-4.9C342,14.4,344.6,5.4,346.1-5c2.8,3.9,5,8.7,8.7,11.4C358.3,9,363.5,9.4,368.3,10.9z"/>
		<path class="st13" d="M613.2,632.6c-4,4.2-8.3,7.2-10.4,11.3c-2,3.9-1.6,9-2.5,15.2c-3.8-5.3-5.9-10.2-9.6-12.9
			c-3.5-2.6-8.7-3-15-4.9c11.2-5.2,13.8-14.2,15.3-24.6c2.8,3.9,5,8.7,8.7,11.4C603.2,630.8,608.3,631.2,613.2,632.6z"/>
		<path class="st13" d="M409.1,602.4c-4,4.2-8.3,7.2-10.4,11.3c-2,3.9-1.6,9-2.5,15.2c-3.8-5.3-5.9-10.2-9.6-12.9
			c-3.5-2.6-8.7-3-15-4.9c11.2-5.2,13.8-14.2,15.3-24.6c2.8,3.9,5,8.7,8.7,11.4C399.1,600.5,404.3,600.9,409.1,602.4z"/>
		<path class="st13" d="M77.5,207.3c-4,4.2-8.3,7.2-10.4,11.3c-2,3.9-1.6,9-2.5,15.2c-3.8-5.3-5.9-10.2-9.6-12.9
			c-3.5-2.6-8.7-3-15-4.9c11.2-5.2,13.8-14.2,15.3-24.6c2.8,3.9,5,8.7,8.7,11.4C67.5,205.4,72.6,205.8,77.5,207.3z"/>
		<path class="st13" d="M627.5,306.4c-4,4.2-8.3,7.2-10.4,11.3c-2,3.9-1.6,9-2.5,15.2c-3.8-5.3-5.9-10.2-9.6-12.9
			c-3.5-2.6-8.7-3-15-4.9c11.2-5.2,13.8-14.2,15.3-24.6c2.8,3.9,5,8.7,8.7,11.4C617.5,304.6,622.7,304.9,627.5,306.4z"/>
		<path class="st13" d="M132.5,653.9c-4,4.2-8.3,7.2-10.4,11.3c-2,3.9-1.6,9-2.5,15.2c-3.8-5.3-5.9-10.2-9.6-12.9
			c-3.5-2.6-8.7-3-15-4.9c11.2-5.2,13.8-14.2,15.3-24.6c2.8,3.9,5,8.7,8.7,11.4C122.5,652,127.7,652.4,132.5,653.9z"/>
		<path class="st13" d="M342.7,66.9c-4,4.2-8.3,7.2-10.4,11.3c-2,3.9-1.6,9-2.5,15.2c-3.8-5.3-5.9-10.2-9.6-12.9
			c-3.5-2.6-8.7-3-15-4.9c11.2-5.2,13.8-14.2,15.3-24.6c2.8,3.9,5,8.7,8.7,11.4C332.7,65,337.8,65.4,342.7,66.9z"/>
		<path class="st13" d="M357.1,590.9c-6.8,7.1-14.2,12.3-17.8,19.4c-3.4,6.7-2.8,15.5-4.3,26.1c-6.5-9.1-10.2-17.4-16.5-22.2
			c-6-4.5-14.9-5.1-25.6-8.4c19.2-8.9,23.7-24.3,26.2-42.2c4.9,6.7,8.6,15,14.9,19.6C339.9,587.7,348.7,588.3,357.1,590.9z"/>
		<path class="st13" d="M361.4,231.3c-4,4.2-8.3,7.2-10.4,11.3c-2,3.9-1.6,9-2.5,15.2c-3.8-5.3-5.9-10.2-9.6-12.9
			c-3.5-2.6-8.7-3-15-4.9c11.2-5.2,13.8-14.2,15.3-24.6c2.8,3.9,5,8.7,8.7,11.4C351.4,229.4,356.5,229.8,361.4,231.3z"/>
		<path class="st13" d="M517.7,429.1c-4,4.2-8.3,7.2-10.4,11.3c-2,3.9-1.6,9-2.5,15.2c-3.8-5.3-5.9-10.2-9.6-12.9
			c-3.5-2.6-8.7-3-15-4.9c11.2-5.2,13.8-14.2,15.3-24.6c2.8,3.9,5,8.7,8.7,11.4C507.7,427.2,512.9,427.6,517.7,429.1z"/>
		<path class="st13" d="M491.3,470.3c-4,4.2-8.3,7.2-10.4,11.3c-2,3.9-1.6,9-2.5,15.2c-3.8-5.3-5.9-10.2-9.6-12.9
			c-3.5-2.6-8.7-3-15-4.9c11.2-5.2,13.8-14.2,15.3-24.6c2.8,3.9,5,8.7,8.7,11.4C481.3,468.4,486.4,468.8,491.3,470.3z"/>
		<path class="st13" d="M610.2,82c-4,4.2-8.3,7.2-10.4,11.3c-2,3.9-1.6,9-2.5,15.2c-3.8-5.3-5.9-10.2-9.6-12.9
			c-3.5-2.6-8.7-3-15-4.9c11.2-5.2,13.8-14.2,15.3-24.6c2.8,3.9,5,8.7,8.7,11.4C600.2,80.2,605.4,80.5,610.2,82z"/>
		<path class="st13" d="M122.8,248.8c-4,4.2-8.3,7.2-10.4,11.3c-2,3.9-1.6,9-2.5,15.2c-3.8-5.3-5.9-10.2-9.6-12.9
			c-3.5-2.6-8.7-3-15-4.9c11.2-5.2,13.8-14.2,15.3-24.6c2.8,3.9,5,8.7,8.7,11.4C112.8,247,117.9,247.4,122.8,248.8z"/>
		<path class="st13" d="M151.1,45.2c-4,4.2-8.3,7.2-10.4,11.3c-2,3.9-1.6,9-2.5,15.2c-3.8-5.3-5.9-10.2-9.6-12.9
			c-3.5-2.6-8.7-3-15-4.9c11.2-5.2,13.8-14.2,15.3-24.6c2.8,3.9,5,8.7,8.7,11.4C141.1,43.3,146.2,43.7,151.1,45.2z"/>
		<path class="st13" d="M18.5,622.9c-4,4.2-8.3,7.2-10.4,11.3c-2,3.9-1.6,9-2.5,15.2c-3.8-5.3-5.9-10.2-9.6-12.9
			c-3.5-2.6-8.7-3-15-4.9c11.2-5.2,13.8-14.2,15.3-24.6c2.8,3.9,5,8.7,8.7,11.4C8.6,621,13.7,621.4,18.5,622.9z"/>
		<path class="st13" d="M421.9,153.6c-6.8,7.1-14.2,12.3-17.8,19.4c-3.4,6.7-2.8,15.5-4.3,26.1c-6.5-9.1-10.2-17.4-16.5-22.2
			c-6-4.5-14.9-5.1-25.6-8.4c19.2-8.9,23.7-24.3,26.2-42.2c4.9,6.7,8.6,15,14.9,19.6C404.8,150.4,413.6,151.1,421.9,153.6z"/>
		<path class="st13" d="M669.3,8.8c-6.8,7.1-14.2,12.3-17.8,19.4c-3.4,6.7-2.8,15.5-4.3,26.1c-6.5-9.1-10.2-17.4-16.5-22.2
			c-6-4.5-14.9-5.1-25.6-8.4c19.2-8.9,23.7-24.3,26.2-42.2c4.9,6.7,8.6,15,14.9,19.6C652.1,5.6,660.9,6.3,669.3,8.8z"/>
		<path class="st13" d="M249.2,656.8c2.4-0.1,4.7-0.1,7.1,0.1c3.6,0.3,4.3,1,5.1,4.5c0.1,0.4,0.2,0.9,0.3,1.3
			c0.1,0.4,0.2,0.9,0.3,1.3c0-0.3,0-0.6,0-0.9c0-0.2,0.1-0.5,0.2-0.7c0.2-0.7,0.5-1.4,0.9-2.1c0.4-0.7,0.9-1.2,1.5-1.7
			c1.1-1.2,2.6-2.1,4.1-2.6c2.1-0.8,4.4-0.6,6.5,0.1c3.8,1.3,6.7,5.6,6.7,9.9c0,2.6-0.8,4.9-2.4,6.9c-3.5,4.4-7.4,8.3-12.4,11
			c-1.2,0.7-1.6,1.4-1.5,2.8c1,8.4,1.6,16.7,0.7,25.1c-0.1,0.5,0.4,1.4,0.9,1.7c4.8,3.5,5.6,7.8,2.1,12.7c-3.2,4.5-7.8,7.4-12.6,9.9
			c-12.8,6.7-26.4,10.6-40.9,10.9c-3.7,0.1-7.5-0.5-11.1-1.5c-6-1.7-8.5-6.6-5.7-12.2c0.2-0.4,0.1-1.3-0.2-1.7
			c-8.7-11-14.2-23.7-19.6-36.5c-1.3-3.2-2.4-6.4-3.8-9.6c-0.8-1.9-0.5-3.3,1-4.5c7.1-5.8,16.5-8.1,25-11.2c9-3.2,18.1-6.5,27.4-9
			C235.5,658.9,242.3,657.2,249.2,656.8z M244.7,704.3c-1.1,3-2.7,4.2-5.7,4.4c-1.5,0.1-2.6,0.6-2.6,2.2c0,1.8,1.5,2,2.9,2
			c4.1-0.1,8-2.7,9.3-6.8c2.6-8.3,2.2-16.5-2.2-24.2c-1.5-2.7-4-4.1-7-3.7c-2.6,0.3-5.1,1-7.6,1.8c-2.7,0.9-4.4,2.9-4.8,5.7
			c-0.2,1.4,0.1,2.9,0.4,4.4c1.6,7.5,0.1,13.6-7,17.6c-1.1,0.6-1.7,1.6-1,2.9c0.7,1.3,1.9,1.4,3.1,0.7c5.4-2.9,8.7-7.3,9.5-13.4
			c0.4-2.7,1.1-3.8,3.9-4.2c1.3-0.2,2.8,0.1,4.1,0.4c1.4,0.4,2.4,0.3,3-1.1c0.6-1.3-0.1-2.4-1.3-2.7c-1.7-0.5-3.5-1-5.3-0.9
			c-1.5,0-3,0.8-4.6,1.3c-0.2-0.9-0.4-1.6-0.5-2.2c-0.6-2.8,0-4,2.7-4.9c1.5-0.5,3-0.8,4.5-1.1c2.6-0.4,3.4,0.1,4.7,2.5
			c1.8,3.5,2.7,7.3,2.7,11.3c0,3.2-1.2,4.5-4.4,4.5c-1.2,0-2.5-0.5-3.6-1c-1.3-0.7-2.4-0.9-3.3,0.5c-0.8,1.3-0.1,2.3,1.1,3
			C238.5,704.9,241.4,705.3,244.7,704.3z M203.8,700.3c-0.9-4.1-0.2-6.9,2.4-8.4c2.6-1.5,6.4-1.4,8.4,0.2c2,1.6,3.1,5.4,2.1,8.1
			c-0.3,0.9-1.4,1.9-2.3,2c-0.7,0.1-1.9-0.9-2.3-1.8c-0.5-1.3-0.3-2.8-0.7-4.1c-0.3-0.8-1.1-1.9-1.9-2.1c-1.3-0.3-2.2,0.7-2.2,2
			c0.1,2,0.2,4.1,0.9,5.9c0.9,2.6,2.9,4.2,5.7,4.3c2.7,0.1,5-1.1,6.1-3.5c2-4.1,1.5-8.3-1-12.1c-2.2-3.3-5.6-4.5-9.4-4.3
			c-6.4,0.4-11,4.9-10.5,10.6c0.4,4.6,2.3,8.7,5.4,12.1c0.9,1,2,1.4,3.2,0.4c1.1-1,0.8-2,0-3.2C206.4,704.6,205.2,702.4,203.8,700.3
			z M203.4,736.3c-0.9,1.8-0.1,3.2,1.6,3.7c2.7,0.8,5.6,1.7,8.4,1.7c16.5,0.2,31.7-4.3,45.6-13.1c2.4-1.6,4.5-3.8,6.4-6
			c1.5-1.8,1.1-3.1-0.3-4.1c-1.8,2-3.5,4.1-5.5,5.8c-8,6.6-17.2,11.1-27.3,13.1C222.7,739.4,213,740.3,203.4,736.3z M264.7,679.3
			c0,0.1,0,0.1,0,0.1c0.5-0.1,0.9-0.3,1.4-0.6c2-1.3,3.9-2.7,5.7-4.4c1.7-1.6,3.3-3.5,4.5-5.5c0.8-1.3,0.8-3.4,0.5-5
			c-0.5-2.5-3.3-4.2-5.7-3.7c-2.5,0.4-4.2,2.6-3.9,5.5c0.2,1.4,1,2.8,1.8,4.1c0.8,1.3,0.8,2.4-0.3,3.4c-0.7,0.6-1.8,1.1-2.7,0.7
			c-0.6-0.2-1.1-0.7-1.6-1.3c-0.5-0.7-1-1.4-1.3-2.2c0,0.5,0.1,1.1,0.2,1.6c0.2,1.5,0.5,2.9,0.7,4.4
			C264.3,676.5,264.6,678.7,264.7,679.3z M211.1,724.8c-0.6-1.9-2.8-3.1-4.6-2.6c-2,0.6-3.3,2.8-2.7,4.8c0.6,2,2.8,3.1,4.8,2.5
			C210.5,728.8,211.7,726.7,211.1,724.8z M225.7,724.5c2-0.6,3.2-2.8,2.6-4.8c-0.6-1.9-2.8-3.1-4.7-2.5c-2,0.6-3.2,2.8-2.6,4.8
			C221.6,723.9,223.7,725,225.7,724.5z M228.6,727c-1.9,0.5-3.2,2.6-2.7,4.6c0.5,2,2.7,3.3,4.7,2.8c1.9-0.5,3.1-2.6,2.7-4.6
			C232.8,727.7,230.6,726.4,228.6,727z M254.2,707.5c-2,0.6-3.2,2.9-2.5,4.8c0.6,1.9,2.8,3,4.7,2.4c2-0.6,3.2-2.8,2.5-4.8
			C258.3,708,256.1,706.9,254.2,707.5z M255.1,721c-0.6-2.1-2.7-3.2-4.7-2.6c-2,0.6-3.1,2.6-2.6,4.6c0.5,2,2.6,3.2,4.7,2.6
			C254.4,725,255.6,723,255.1,721z M220.2,729.9c-0.6-2-2.8-3.2-4.8-2.5c-1.9,0.6-3.1,2.7-2.5,4.6c0.6,2,2.8,3.2,4.8,2.6
			C219.6,734,220.8,731.8,220.2,729.9z M241.4,725.4c2.1-0.6,3.2-2.6,2.6-4.7c-0.6-2-2.5-3.1-4.5-2.6c-2,0.6-3.2,2.4-2.7,4.5
			C237.3,724.7,239.3,725.9,241.4,725.4z M257.1,659.6c-0.4-0.4-1.6-0.4-2.1-0.4c-5.6-0.3-11.5,1-17,2.5c-9.3,2.5-18.6,5.2-27.9,8.1
			c-8.6,2.7-17.5,5.1-25.5,9.2c-1.1,0.6-6,2.6-6.3,3.6c-0.9,2.8,10,0,11.3-0.3c19.9-3.7,39.7-9.3,58.4-17.1
			C249,664.8,258.4,661.2,257.1,659.6C257.1,659.6,257.1,659.6,257.1,659.6z"/>
		<path class="st13" d="M536.8,727.6c1.8,1.6,3.5,3.3,5,5.1c2.3,2.8,2.3,3.8,0.4,6.8c-0.2,0.4-0.5,0.8-0.8,1.1
			c-0.2,0.4-0.5,0.7-0.7,1.1c0.2-0.2,0.4-0.4,0.6-0.6c0.2-0.2,0.4-0.3,0.7-0.4c0.7-0.4,1.4-0.7,2.1-0.8c0.8-0.2,1.5-0.1,2.3-0.2
			c1.6-0.1,3.3,0.4,4.8,1.1c2,1,3.6,2.7,4.5,4.7c1.7,3.7,0.8,8.7-2.3,11.8c-1.8,1.9-4,2.9-6.6,3.2c-5.6,0.7-11.1,0.6-16.6-1
			c-1.4-0.4-2.2-0.2-3,1c-5.2,6.6-10.7,13-17.3,18.3c-0.4,0.3-0.6,1.3-0.6,1.9c0.9,5.9-1.6,9.5-7.5,10.4c-5.5,0.9-10.7-0.3-15.9-1.9
			c-13.8-4.3-26.2-11.2-36.6-21.3c-2.7-2.6-5-5.7-6.8-8.9c-3-5.5-1.3-10.7,4.6-12.7c0.5-0.2,1-0.9,1.1-1.4
			c1.6-13.9,6.7-26.8,12-39.6c1.3-3.2,2.9-6.2,4.1-9.4c0.7-1.9,2-2.7,3.9-2.5c9.1,0.9,17.4,5.9,25.6,9.8c8.7,4.1,17.4,8.2,25.7,13
			C525.6,719.4,531.6,723,536.8,727.6z M500,758.1c-2.9,1.3-4.9,1-7.1-0.9c-1.1-1-2.2-1.5-3.3-0.3c-1.2,1.3-0.4,2.5,0.6,3.5
			c3,2.9,7.6,3.7,11.4,1.7c7.7-4.1,13.2-10,15.6-18.6c0.8-3,0.1-5.7-2.3-7.6c-2-1.6-4.3-3-6.6-4.1c-2.5-1.3-5.2-1.1-7.4,0.7
			c-1.1,0.9-2,2.2-2.8,3.4c-4.1,6.4-9.6,9.7-17.4,7.5c-1.2-0.4-2.4,0-2.7,1.3c-0.4,1.4,0.4,2.3,1.7,2.7c5.9,1.7,11.3,1,16.2-2.8
			c2.2-1.7,3.5-1.9,5.7-0.2c1.1,0.8,1.9,2,2.6,3.2c0.7,1.3,1.5,1.9,2.9,1.4c1.4-0.5,1.6-1.7,1-2.8c-0.8-1.6-1.8-3.2-3.1-4.4
			c-1.1-1-2.7-1.6-4.1-2.4c0.5-0.8,0.9-1.4,1.2-1.9c1.5-2.4,2.8-2.8,5.4-1.5c1.4,0.7,2.7,1.5,3.9,2.4c2.1,1.6,2.4,2.5,1.6,5
			c-1.2,3.8-3.3,7.1-6.1,9.9c-2.3,2.3-4,2.4-6.3,0.1c-0.9-0.9-1.5-2.1-1.8-3.3c-0.4-1.4-1.1-2.4-2.7-2c-1.5,0.4-1.6,1.6-1.4,2.9
			C495.2,754.1,497,756.4,500,758.1z M473.9,726.3c2.3-3.6,4.7-5.1,7.6-4.3c2.9,0.8,5.5,3.5,5.8,6.1c0.3,2.5-1.6,6-4.2,7.2
			c-0.9,0.4-2.4,0.3-3.1-0.2c-0.6-0.4-0.7-2-0.4-2.8c0.5-1.3,1.8-2.2,2.4-3.4c0.4-0.8,0.6-2.1,0.2-2.8c-0.7-1.1-2.1-1.1-2.9-0.1
			c-1.3,1.5-2.7,3-3.6,4.8c-1.2,2.4-0.9,5,1,7.1c1.8,2,4.3,2.8,6.8,1.9c4.3-1.5,6.9-4.8,7.8-9.3c0.8-3.9-0.7-7.1-3.6-9.7
			c-4.8-4.3-11.2-4.3-14.9,0.1c-2.9,3.5-4.5,7.7-4.7,12.4c-0.1,1.4,0.4,2.4,1.9,2.5c1.5,0.1,2-0.9,2.2-2.3
			C472.7,731.2,473.3,728.8,473.9,726.3z M448.2,751.5c-1.9,0.6-2.3,2.2-1.5,3.8c1.3,2.5,2.7,5.2,4.7,7.2
			c11.5,11.8,25.5,19.4,41.5,23c2.8,0.6,5.9,0.5,8.8,0.3c2.4-0.2,3-1.4,2.7-3.2c-2.7,0.1-5.4,0.5-8,0.2c-10.4-1-20-4.3-28.6-10.1
			C459.6,767.3,452.1,761,448.2,751.5z M531.8,754.5c0,0.1-0.1,0.1-0.1,0.1c0.5,0.3,0.9,0.4,1.4,0.5c2.3,0.5,4.7,0.9,7.1,0.9
			c2.4,0.1,4.8-0.2,7.1-0.7c1.5-0.4,3-1.8,3.9-3.2c1.4-2.2,0.6-5.3-1.4-6.7c-2.1-1.5-4.8-1.2-6.6,1.1c-0.9,1.1-1.3,2.7-1.6,4.2
			c-0.4,1.5-1.1,2.3-2.6,2.2c-0.9,0-2-0.5-2.4-1.4c-0.3-0.6-0.3-1.3-0.2-2c0.1-0.9,0.3-1.7,0.7-2.5c-0.3,0.4-0.6,0.8-1,1.3
			c-0.9,1.2-1.7,2.4-2.6,3.6C533.5,752.2,532.2,754.1,531.8,754.5z M461.7,748.7c0.9-1.7,0.2-4.1-1.5-5.1c-1.8-1-4.3-0.3-5.3,1.5
			c-1,1.8-0.2,4.2,1.7,5.2C458.5,751.2,460.8,750.5,461.7,748.7z M472.2,758.8c1.8,1,4.3,0.3,5.2-1.5c0.9-1.8,0.2-4.1-1.5-5.1
			c-1.9-1-4.2-0.3-5.2,1.5C469.8,755.6,470.5,757.9,472.2,758.8z M472.6,762.7c-1.7-1-4.1-0.4-5.1,1.3c-1.1,1.8-0.5,4.2,1.3,5.3
			c1.7,1,4.1,0.4,5.1-1.4C475,766.1,474.4,763.8,472.6,762.7z M504.5,767c-1.8-1-4.3-0.2-5.2,1.6c-0.9,1.8-0.1,4.1,1.7,5
			c1.8,1,4.2,0.2,5.2-1.6C507,770.2,506.2,767.9,504.5,767z M495.5,777.2c1.1-1.9,0.4-4.2-1.5-5.2c-1.8-1-4-0.4-5.1,1.4
			c-1.1,1.8-0.4,4.1,1.5,5.2C492.2,779.6,494.5,779,495.5,777.2z M464.6,758.9c1-1.8,0.3-4.2-1.6-5.2c-1.8-0.9-4-0.3-5,1.5
			c-1,1.8-0.3,4.2,1.6,5.2C461.3,761.3,463.6,760.6,464.6,758.9z M482.7,770.6c1.9,1.1,4.1,0.5,5.2-1.5c1-1.8,0.4-4-1.4-5
			c-1.8-1.1-4-0.5-5.1,1.3C480.3,767.2,480.9,769.5,482.7,770.6z M540.4,735.2c0-0.5-0.8-1.4-1.2-1.8c-3.7-4.2-8.9-7.5-13.8-10.3
			c-8.4-4.8-16.8-9.5-25.4-14c-8-4.2-16-8.8-24.5-11.5c-1.2-0.4-6.1-2.4-7-1.9c-2.6,1.4,7.1,7.1,8.2,7.8
			c16.7,11.4,34.6,21.5,53.3,29.2C531,733.2,540.2,737.3,540.4,735.2C540.4,735.2,540.4,735.2,540.4,735.2z"/>
		<path class="st13" d="M52.8,756.6c13.3-11.2,14.8-27.6,4.2-37.7c-4.8-4.5-9.9-5.1-13.8-1.4c-5,4.7-2.4,8.8,1.2,12.8
			C50.8,737.4,54.4,745.6,52.8,756.6z"/>
		<path class="st13" d="M368.3,730.5c-4,4.2-8.3,7.2-10.4,11.3c-2,3.9-1.6,9-2.5,15.2c-3.8-5.3-5.9-10.2-9.6-12.9
			c-3.5-2.6-8.7-3-15-4.9c11.2-5.2,13.8-14.2,15.3-24.6c2.8,3.9,5,8.7,8.7,11.4C358.3,728.6,363.5,729,368.3,730.5z"/>
		<path class="st13" d="M669.3,728.4c-6.8,7.1-14.2,12.3-17.8,19.4c-3.4,6.7-2.8,15.5-4.3,26.1c-6.5-9.1-10.2-17.4-16.5-22.2
			c-6-4.5-14.9-5.1-25.6-8.4c19.2-8.9,23.7-24.3,26.2-42.2c4.9,6.7,8.6,15,14.9,19.6C652.1,725.2,660.9,725.9,669.3,728.4z"/>
		<path class="st13" d="M684.3,238.8c-6.8,7.1-14.2,12.3-17.8,19.4c-3.4,6.7-2.8,15.5-4.3,26.1c-6.5-9.1-10.2-17.4-16.5-22.2
			c-6-4.5-14.9-5.1-25.6-8.4c19.2-8.9,23.7-24.3,26.2-42.2c4.9,6.7,8.6,15,14.9,19.6C667.2,235.6,676,236.2,684.3,238.8z"/>
		<path class="st13" d="M24.8,537c-6.8,7.1-14.2,12.3-17.8,19.4c-3.4,6.7-2.8,15.5-4.3,26.1c-6.5-9.1-10.2-17.4-16.5-22.2
			c-6-4.5-14.9-5.1-25.6-8.4c19.2-8.9,23.7-24.3,26.2-42.2c4.9,6.7,8.6,15,14.9,19.6C7.6,533.8,16.4,534.5,24.8,537z"/>
		<path class="st13" d="M739.4,348.4c2.4-0.1,4.7-0.1,7.1,0.1c3.6,0.3,4.3,1,5.1,4.5c0.1,0.4,0.2,0.9,0.3,1.3
			c0.1,0.4,0.2,0.9,0.3,1.3c0-0.3,0-0.6,0-0.9c0-0.2,0.1-0.5,0.2-0.7c0.2-0.7,0.5-1.4,0.9-2.1c0.4-0.7,0.9-1.2,1.5-1.7
			c1.1-1.2,2.6-2.1,4.1-2.6c2.1-0.8,4.4-0.6,6.5,0.1c3.8,1.3,6.7,5.6,6.7,9.9c0,2.6-0.8,4.9-2.4,6.9c-3.5,4.4-7.4,8.3-12.4,11
			c-1.2,0.7-1.6,1.4-1.5,2.8c1,8.4,1.6,16.7,0.7,25.1c-0.1,0.5,0.4,1.4,0.9,1.7c4.8,3.5,5.6,7.8,2.1,12.7c-3.2,4.5-7.8,7.4-12.6,9.9
			c-12.8,6.7-26.4,10.6-40.9,10.9c-3.7,0.1-7.5-0.5-11.1-1.5c-6-1.7-8.5-6.6-5.7-12.2c0.2-0.4,0.1-1.3-0.2-1.7
			c-8.7-11-14.2-23.7-19.6-36.5c-1.3-3.2-2.4-6.4-3.8-9.6c-0.8-1.9-0.5-3.3,1-4.5c7.1-5.8,16.5-8.1,25-11.2c9-3.2,18.1-6.5,27.4-9
			C725.6,350.6,732.5,348.9,739.4,348.4z M734.9,396c-1.1,3-2.7,4.2-5.7,4.4c-1.5,0.1-2.6,0.6-2.6,2.2c0,1.8,1.5,2,2.9,2
			c4.1-0.1,8-2.7,9.3-6.8c2.6-8.3,2.2-16.5-2.2-24.2c-1.5-2.7-4-4.1-7-3.7c-2.6,0.3-5.1,1-7.6,1.8c-2.7,0.9-4.4,2.9-4.8,5.7
			c-0.2,1.4,0.1,2.9,0.4,4.4c1.6,7.5,0.1,13.6-7,17.6c-1.1,0.6-1.7,1.6-1,2.9c0.7,1.3,1.9,1.4,3.1,0.7c5.4-2.9,8.7-7.3,9.5-13.4
			c0.4-2.7,1.1-3.8,3.9-4.2c1.3-0.2,2.8,0.1,4.1,0.4c1.4,0.4,2.4,0.3,3-1.1c0.6-1.3-0.1-2.4-1.3-2.7c-1.7-0.5-3.5-1-5.3-0.9
			c-1.5,0-3,0.8-4.6,1.3c-0.2-0.9-0.4-1.6-0.5-2.2c-0.6-2.8,0-4,2.7-4.9c1.5-0.5,3-0.8,4.5-1.1c2.6-0.4,3.4,0.1,4.7,2.5
			c1.8,3.5,2.7,7.3,2.7,11.3c0,3.2-1.2,4.5-4.4,4.5c-1.2,0-2.5-0.5-3.6-1c-1.3-0.7-2.4-0.9-3.3,0.5c-0.8,1.3-0.1,2.3,1.1,3
			C728.7,396.6,731.6,397,734.9,396z M694,392c-0.9-4.1-0.2-6.9,2.4-8.4c2.6-1.5,6.4-1.4,8.4,0.2c2,1.6,3.1,5.4,2.1,8.1
			c-0.3,0.9-1.4,1.9-2.3,2c-0.7,0.1-1.9-0.9-2.3-1.8c-0.5-1.3-0.3-2.8-0.7-4.1c-0.3-0.8-1.1-1.9-1.9-2.1c-1.3-0.3-2.2,0.7-2.2,2
			c0.1,2,0.2,4.1,0.9,5.9c0.9,2.6,2.9,4.2,5.7,4.3c2.7,0.1,5-1.1,6.1-3.5c2-4.1,1.5-8.3-1-12.1c-2.2-3.3-5.6-4.5-9.4-4.3
			c-6.4,0.4-11,4.9-10.5,10.6c0.4,4.6,2.3,8.7,5.4,12.1c0.9,1,2,1.4,3.2,0.4c1.1-1,0.8-2,0-3.2C696.6,396.3,695.3,394.1,694,392z
			 M693.6,428c-0.9,1.8-0.1,3.2,1.6,3.7c2.7,0.8,5.6,1.7,8.4,1.7c16.5,0.2,31.7-4.3,45.6-13.1c2.4-1.6,4.5-3.8,6.4-6
			c1.5-1.8,1.1-3.1-0.3-4.1c-1.8,2-3.5,4.1-5.5,5.8c-8,6.6-17.2,11.1-27.3,13.1C712.9,431,703.2,431.9,693.6,428z M754.9,371
			c0,0.1,0,0.1,0,0.1c0.5-0.1,0.9-0.3,1.4-0.6c2-1.3,3.9-2.7,5.7-4.4c1.7-1.6,3.3-3.5,4.5-5.5c0.8-1.3,0.8-3.4,0.5-5
			c-0.5-2.5-3.3-4.2-5.7-3.7c-2.5,0.4-4.2,2.6-3.9,5.5c0.2,1.4,1,2.8,1.8,4.1c0.8,1.3,0.8,2.4-0.3,3.4c-0.7,0.6-1.8,1.1-2.7,0.7
			c-0.6-0.2-1.1-0.7-1.6-1.3c-0.5-0.7-1-1.4-1.3-2.2c0,0.5,0.1,1.1,0.2,1.6c0.2,1.5,0.5,2.9,0.7,4.4
			C754.4,368.2,754.8,370.4,754.9,371z M701.2,416.4c-0.6-1.9-2.8-3.1-4.6-2.6c-2,0.6-3.3,2.8-2.7,4.8c0.6,2,2.8,3.1,4.8,2.5
			C700.7,420.5,701.8,418.4,701.2,416.4z M715.8,416.2c2-0.6,3.2-2.8,2.6-4.8c-0.6-1.9-2.8-3.1-4.7-2.5c-2,0.6-3.2,2.8-2.6,4.8
			C711.8,415.6,713.9,416.7,715.8,416.2z M718.8,418.7c-1.9,0.5-3.2,2.6-2.7,4.6c0.5,2,2.7,3.3,4.7,2.8c1.9-0.5,3.1-2.6,2.7-4.6
			C722.9,419.4,720.8,418.1,718.8,418.7z M744.4,399.1c-2,0.6-3.2,2.9-2.5,4.8c0.6,1.9,2.8,3,4.7,2.4c2-0.6,3.2-2.8,2.5-4.8
			C748.5,399.6,746.3,398.5,744.4,399.1z M745.3,412.7c-0.6-2.1-2.7-3.2-4.7-2.6c-2,0.6-3.1,2.6-2.6,4.6c0.5,2,2.6,3.2,4.7,2.6
			C744.6,416.7,745.8,414.6,745.3,412.7z M710.4,421.6c-0.6-2-2.8-3.2-4.8-2.5c-1.9,0.6-3.1,2.7-2.5,4.6c0.6,2,2.8,3.2,4.8,2.6
			C709.8,425.7,711,423.5,710.4,421.6z M731.5,417c2.1-0.6,3.2-2.6,2.6-4.7c-0.6-2-2.5-3.1-4.5-2.6c-2,0.6-3.2,2.4-2.7,4.5
			C727.4,416.4,729.5,417.6,731.5,417z M747.3,351.3c-0.4-0.4-1.6-0.4-2.1-0.4c-5.6-0.3-11.5,1-17,2.5c-9.3,2.5-18.6,5.2-27.9,8.1
			c-8.6,2.7-17.5,5.1-25.5,9.2c-1.1,0.6-6,2.6-6.3,3.6c-0.9,2.8,10,0,11.3-0.3c19.9-3.7,39.7-9.3,58.4-17.1
			C739.2,356.5,748.6,352.9,747.3,351.3C747.3,351.3,747.3,351.3,747.3,351.3z"/>
		<path class="st13" d="M800.9,79.2c1.8,1.6,3.5,3.3,5,5.1c2.3,2.8,2.3,3.8,0.4,6.8c-0.2,0.4-0.5,0.8-0.8,1.1
			c-0.2,0.4-0.5,0.7-0.7,1.1c0.2-0.2,0.4-0.4,0.6-0.6c0.2-0.2,0.4-0.3,0.7-0.4c0.7-0.4,1.4-0.7,2.1-0.8c0.8-0.2,1.5-0.1,2.3-0.2
			c1.6-0.1,3.3,0.4,4.8,1.1c2,1,3.6,2.7,4.5,4.7c1.7,3.7,0.8,8.7-2.3,11.8c-1.8,1.9-4,2.9-6.6,3.2c-5.6,0.7-11.1,0.6-16.6-1
			c-1.4-0.4-2.2-0.2-3,1c-5.2,6.6-10.7,13-17.3,18.3c-0.4,0.3-0.6,1.3-0.6,1.9c0.9,5.9-1.6,9.5-7.5,10.4c-5.5,0.9-10.7-0.3-15.9-1.9
			c-13.8-4.3-26.2-11.2-36.6-21.3c-2.7-2.6-5-5.7-6.8-8.9c-3-5.5-1.3-10.7,4.6-12.7c0.5-0.2,1-0.9,1.1-1.4
			c1.6-13.9,6.7-26.8,12-39.6c1.3-3.2,2.9-6.2,4.1-9.4c0.7-1.9,2-2.7,3.9-2.5c9.1,0.9,17.4,5.9,25.6,9.8c8.7,4.1,17.4,8.2,25.7,13
			C789.6,71,795.7,74.6,800.9,79.2z M764.1,109.6c-2.9,1.3-4.9,1-7.1-0.9c-1.1-1-2.2-1.5-3.3-0.3c-1.2,1.3-0.4,2.5,0.6,3.5
			c3,2.9,7.6,3.7,11.4,1.7c7.7-4.1,13.2-10,15.6-18.6c0.8-3,0.1-5.7-2.3-7.6c-2-1.6-4.3-3-6.6-4.1c-2.5-1.3-5.2-1.1-7.4,0.7
			c-1.1,0.9-2,2.2-2.8,3.4c-4.1,6.4-9.6,9.7-17.4,7.5c-1.2-0.4-2.4,0-2.7,1.3c-0.4,1.4,0.4,2.3,1.7,2.7c5.9,1.7,11.3,1,16.2-2.8
			c2.2-1.7,3.5-1.9,5.7-0.2c1.1,0.8,1.9,2,2.6,3.2c0.7,1.3,1.5,1.9,2.9,1.4c1.4-0.5,1.6-1.7,1-2.8c-0.8-1.6-1.8-3.2-3.1-4.4
			c-1.1-1-2.7-1.6-4.1-2.4c0.5-0.8,0.9-1.4,1.2-1.9c1.5-2.4,2.8-2.8,5.4-1.5c1.4,0.7,2.7,1.5,3.9,2.4c2.1,1.6,2.4,2.5,1.6,5
			c-1.2,3.8-3.3,7.1-6.1,9.9c-2.3,2.3-4,2.4-6.3,0.1c-0.9-0.9-1.5-2.1-1.8-3.3c-0.4-1.4-1.1-2.4-2.7-2c-1.5,0.4-1.6,1.6-1.4,2.9
			C759.3,105.7,761,108,764.1,109.6z M738,77.9c2.3-3.6,4.7-5.1,7.6-4.3c2.9,0.8,5.5,3.5,5.8,6.1c0.3,2.5-1.6,6-4.2,7.2
			c-0.9,0.4-2.4,0.3-3.1-0.2c-0.6-0.4-0.7-2-0.4-2.8c0.5-1.3,1.8-2.2,2.4-3.4c0.4-0.8,0.6-2.1,0.2-2.8c-0.7-1.1-2.1-1.1-2.9-0.1
			c-1.3,1.5-2.7,3-3.6,4.8c-1.2,2.4-0.9,5,1,7.1c1.8,2,4.3,2.8,6.8,1.9c4.3-1.5,6.9-4.8,7.8-9.3c0.8-3.9-0.7-7.1-3.6-9.7
			c-4.8-4.3-11.2-4.3-14.9,0.1c-2.9,3.5-4.5,7.7-4.7,12.4c-0.1,1.4,0.4,2.4,1.9,2.5c1.5,0.1,2-0.9,2.2-2.3
			C736.8,82.8,737.4,80.3,738,77.9z M712.3,103c-1.9,0.6-2.3,2.2-1.5,3.8c1.3,2.5,2.7,5.2,4.7,7.2c11.5,11.8,25.5,19.4,41.5,23
			c2.8,0.6,5.9,0.5,8.8,0.3c2.4-0.2,3-1.4,2.7-3.2c-2.7,0.1-5.4,0.5-8,0.2c-10.4-1-20-4.3-28.6-10.1
			C723.7,118.8,716.2,112.6,712.3,103z M795.9,106.1c0,0.1-0.1,0.1-0.1,0.1c0.5,0.3,0.9,0.4,1.4,0.5c2.3,0.5,4.7,0.9,7.1,0.9
			c2.4,0.1,4.8-0.2,7.1-0.7c1.5-0.4,3-1.8,3.9-3.2c1.4-2.2,0.6-5.3-1.4-6.7c-2.1-1.5-4.8-1.2-6.6,1.1c-0.9,1.1-1.3,2.7-1.6,4.2
			c-0.4,1.5-1.1,2.3-2.6,2.2c-0.9,0-2-0.5-2.4-1.4c-0.3-0.6-0.3-1.3-0.2-2c0.1-0.9,0.3-1.7,0.7-2.5c-0.3,0.4-0.6,0.8-1,1.3
			c-0.9,1.2-1.7,2.4-2.6,3.6C797.5,103.8,796.2,105.6,795.9,106.1z M725.8,100.3c0.9-1.7,0.2-4.1-1.5-5.1c-1.8-1-4.3-0.3-5.3,1.5
			c-1,1.8-0.2,4.2,1.7,5.2C722.6,102.8,724.9,102.1,725.8,100.3z M736.3,110.4c1.8,1,4.3,0.3,5.2-1.5c0.9-1.8,0.2-4.1-1.5-5.1
			c-1.9-1-4.2-0.3-5.2,1.5C733.9,107.1,734.6,109.4,736.3,110.4z M736.6,114.2c-1.7-1-4.1-0.4-5.1,1.3c-1.1,1.8-0.5,4.2,1.3,5.3
			c1.7,1,4.1,0.4,5.1-1.4C739.1,117.7,738.5,115.3,736.6,114.2z M768.6,118.5c-1.8-1-4.3-0.2-5.2,1.6c-0.9,1.8-0.1,4.1,1.7,5
			c1.8,1,4.2,0.2,5.2-1.6C771.1,121.8,770.3,119.5,768.6,118.5z M759.6,128.8c1.1-1.9,0.4-4.2-1.5-5.2c-1.8-1-4-0.4-5.1,1.4
			c-1.1,1.8-0.4,4.1,1.5,5.2C756.3,131.1,758.6,130.5,759.6,128.8z M728.7,110.4c1-1.8,0.3-4.2-1.6-5.2c-1.8-0.9-4-0.3-5,1.5
			c-1,1.8-0.3,4.2,1.6,5.2C725.4,112.8,727.7,112.1,728.7,110.4z M746.8,122.1c1.9,1.1,4.1,0.5,5.2-1.5c1-1.8,0.4-4-1.4-5
			c-1.8-1.1-4-0.5-5.1,1.3C744.4,118.7,745,121.1,746.8,122.1z M804.5,86.7c0-0.5-0.8-1.4-1.2-1.8c-3.7-4.2-8.9-7.5-13.8-10.3
			c-8.4-4.8-16.8-9.5-25.4-14c-8-4.2-16-8.8-24.5-11.5c-1.2-0.4-6.1-2.4-7-1.9c-2.6,1.4,7.1,7.1,8.2,7.8
			c16.7,11.4,34.6,21.5,53.3,29.2C795,84.7,804.2,88.9,804.5,86.7C804.5,86.8,804.5,86.8,804.5,86.7z"/>
		<path class="st13" d="M715.3,340c-10.7-13.8-8.7-30.1,3.9-37.7c5.6-3.4,10.7-2.9,13.8,1.5c3.9,5.7,0.5,9.1-3.8,12.3
			C721.3,321.7,716.1,329,715.3,340z"/>
		<path class="st13" d="M738.5,622.9c-4,4.2-8.3,7.2-10.4,11.3c-2,3.9-1.6,9-2.5,15.2c-3.8-5.3-5.9-10.2-9.6-12.9
			c-3.5-2.6-8.7-3-15-4.9c11.2-5.2,13.8-14.2,15.3-24.6c2.8,3.9,5,8.7,8.7,11.4C728.5,621,733.7,621.4,738.5,622.9z"/>
		<path class="st13" d="M744.7,537c-6.8,7.1-14.2,12.3-17.8,19.4c-3.4,6.7-2.8,15.5-4.3,26.1c-6.5-9.1-10.2-17.4-16.5-22.2
			c-6-4.5-14.9-5.1-25.6-8.4c19.2-8.9,23.7-24.3,26.2-42.2c4.9,6.7,8.6,15,14.9,19.6C727.6,533.8,736.4,534.5,744.7,537z"/>
		<path class="st13" d="M297,327.7c-6.8,7.1-14.2,12.3-17.8,19.4c-3.4,6.7-2.8,15.5-4.3,26.1c-6.5-9.1-10.2-17.4-16.5-22.2
			c-6-4.5-14.9-5.1-25.6-8.4c19.2-8.9,23.7-24.3,26.2-42.2c4.9,6.7,8.6,15,14.9,19.6C279.9,324.5,288.7,325.1,297,327.7z"/>
	</g>
</g>
</svg>
